<?xml version="1.0" encoding="UTF-8"?>
<svg version="1.1" xmlns="http://www.w3.org/2000/svg" width="200" height="198">
<path d="M0 0 C66 0 132 0 200 0 C200 65.34 200 130.68 200 198 C134 198 68 198 0 198 C0 132.66 0 67.32 0 0 Z " fill="#FCFBFE" transform="translate(0,0)"/>
<path d="M0 0 C4.55555556 0.55555556 4.55555556 0.55555556 6 2 C6.12600352 4.99468364 6.18869347 7.9650278 6.203125 10.9609375 C6.20882507 11.86244537 6.21452515 12.76395325 6.22039795 13.69277954 C6.22986325 15.60441915 6.23638798 17.5160752 6.24023438 19.42773438 C6.24993624 22.35575804 6.28094342 25.2830789 6.3125 28.2109375 C6.31903008 30.06509998 6.32428053 31.9192675 6.328125 33.7734375 C6.3404718 34.65164154 6.3528186 35.52984558 6.36553955 36.43466187 C6.36253845 37.25205841 6.35953735 38.06945496 6.35644531 38.91162109 C6.36191376 39.98964493 6.36191376 39.98964493 6.36749268 41.08944702 C5.89048111 43.56937637 4.95985357 44.45580388 3 46 C0.82348633 46.43237305 0.82348633 46.43237305 -1.66796875 46.51171875 C-2.56064453 46.54716797 -3.45332031 46.58261719 -4.37304688 46.61914062 C-5.30181641 46.64169922 -6.23058594 46.66425781 -7.1875 46.6875 C-8.12787109 46.72166016 -9.06824219 46.75582031 -10.03710938 46.79101562 C-12.35795393 46.87348218 -14.67842148 46.94263403 -17 47 C-16.97679687 47.84304687 -16.95359375 48.68609375 -16.9296875 49.5546875 C-16.91164062 50.65039062 -16.89359375 51.74609375 -16.875 52.875 C-16.85179687 53.96554688 -16.82859375 55.05609375 -16.8046875 56.1796875 C-17 59 -17 59 -19 61 C-20.64991582 61.70710678 -22.31562256 62.37943989 -24 63 C-23.67 64.65 -23.34 66.3 -23 68 C-21.68 68 -20.36 68 -19 68 C-18.38125 66.5459375 -18.38125 66.5459375 -17.75 65.0625 C-16 62 -16 62 -13.9375 61 C-13.298125 61 -12.65875 61 -12 61 C-10 63 -10 63 -9.734375 65.75 C-9.73953125 66.8225 -9.7446875 67.895 -9.75 69 C-9.74226563 70.60875 -9.74226563 70.60875 -9.734375 72.25 C-10 75 -10 75 -12 77 C-12.66 77.103125 -13.32 77.20625 -14 77.3125 C-14.66 77.539375 -15.32 77.76625 -16 78 C-16.433125 79.175625 -16.433125 79.175625 -16.875 80.375 C-17.24625 81.24125 -17.6175 82.1075 -18 83 C-19.010625 83.37125 -20.02125 83.7425 -21.0625 84.125 C-22.031875 84.74375 -23.00125 85.3625 -24 86 C-24.57243182 88.84454582 -24.68752725 91.50675845 -24.69921875 94.40625 C-25 97 -25 97 -26.0559082 98.63720703 C-28.9865302 100.69154987 -31.95480598 100.42851121 -35.40625 100.3984375 C-36.12735962 100.40130768 -36.84846924 100.40417786 -37.59143066 100.40713501 C-39.11450995 100.40917452 -40.6376155 100.40365247 -42.16064453 100.39111328 C-44.49180678 100.37505643 -46.82123542 100.3909641 -49.15234375 100.41015625 C-50.63281633 100.4081738 -52.11328782 100.40433007 -53.59375 100.3984375 C-54.2906897 100.40451019 -54.98762939 100.41058289 -55.70568848 100.4168396 C-58.54377413 100.37559908 -60.54932068 100.29271734 -62.96289062 98.72509766 C-64 97 -64 97 -64 93 C-65.4540625 92.5359375 -65.4540625 92.5359375 -66.9375 92.0625 C-70 91 -70 91 -71 90 C-71.07875846 88.20897437 -71.13811208 86.41707604 -71.1875 84.625 C-71.34062071 81.64635559 -71.34062071 81.64635559 -72 79 C-74.90074931 77.04901119 -74.90074931 77.04901119 -78 76 C-79 73.4375 -79 73.4375 -79 71 C-76.22957891 68.22957891 -74.23466195 68.60203894 -70.375 68.375 C-68.59222656 68.26285156 -68.59222656 68.26285156 -66.7734375 68.1484375 C-65.85820313 68.09945312 -64.94296875 68.05046875 -64 68 C-63.87625 67.21625 -63.7525 66.4325 -63.625 65.625 C-63 63 -63 63 -61 61 C-59.19156337 60.85283458 -57.37668434 60.7789113 -55.5625 60.75 C-52.61460326 60.61717246 -52.61460326 60.61717246 -50 60 C-48.03271039 57.14934271 -48.03271039 57.14934271 -47 54 C-44.3125 52.625 -44.3125 52.625 -42 52 C-42 50.35 -42 48.7 -42 47 C-42.804375 46.690625 -43.60875 46.38125 -44.4375 46.0625 C-47 45 -47 45 -48 44 C-48.09873816 42.00200428 -48.12971799 40.00042842 -48.125 38 C-48.12757813 36.906875 -48.13015625 35.81375 -48.1328125 34.6875 C-48 32 -48 32 -47 31 C-44.5625 30.8125 -44.5625 30.8125 -42 31 C-40 33 -40 33 -39 37 C-35.04 37 -31.08 37 -27 37 C-26.01 35.02 -25.02 33.04 -24 31 C-21.625 30.875 -21.625 30.875 -19 31 C-16.8614515 33.1385485 -16.57344937 34.13275314 -16 37 C-14.35 37 -12.7 37 -11 37 C-11 35.35 -11 33.7 -11 32 C-11.804375 31.690625 -12.60875 31.38125 -13.4375 31.0625 C-16 30 -16 30 -17 29 C-17.04063832 27.33382885 -17.042721 25.66611905 -17 24 C-15.576875 23.4121875 -15.576875 23.4121875 -14.125 22.8125 C-10.83541886 21.33388084 -10.83541886 21.33388084 -10 18.5 C-9.67 17.675 -9.34 16.85 -9 16 C-7.989375 15.62875 -6.97875 15.2575 -5.9375 14.875 C-4.968125 14.25625 -3.99875 13.6375 -3 13 C-2.39013484 10.12617496 -2.24990167 7.43132983 -2.203125 4.49609375 C-2 2 -2 2 0 0 Z " fill="#5AA3FC" transform="translate(190,65)"/>
<path d="M0 0 C1.09648361 -0.00574036 1.09648361 -0.00574036 2.21511841 -0.01159668 C3.75654482 -0.01430963 5.29801776 -0.00699155 6.83935547 0.00976562 C9.18172562 0.0311261 11.52100774 0.009979 13.86328125 -0.015625 C15.36719419 -0.01298041 16.87110523 -0.0078527 18.375 0 C19.06689423 -0.00809692 19.75878845 -0.01619385 20.47164917 -0.02453613 C25.90689945 0.07866743 28.93190063 1.55049962 33.3203125 4.53125 C38.42462104 10.47938265 37.90448115 16.96773058 37.78686523 24.54711914 C37.75782624 26.59278195 37.76629454 28.63585852 37.77929688 30.68164062 C37.6941608 43.91702574 37.6941608 43.91702574 32.78515625 49.17578125 C27.8858771 52.92228883 25.17194031 53.7049626 19.1171875 53.76953125 C18.40177795 53.777603 17.68636841 53.78567474 16.94927979 53.79399109 C15.43284526 53.80782958 13.91637962 53.8185528 12.39990234 53.82641602 C10.09281356 53.84358257 7.78717568 53.88746124 5.48046875 53.93164062 C4.00521885 53.94177212 2.52995678 53.9502868 1.0546875 53.95703125 C0.3700946 53.97453934 -0.31449829 53.99204742 -1.01983643 54.01008606 C-6.03568269 53.98764077 -8.80957671 52.64848445 -12.6796875 49.53125 C-17.88548886 43.43178607 -17.29030788 36.28973049 -17.20117188 28.66088867 C-17.17970043 26.4700698 -17.20104051 24.28251653 -17.2265625 22.09179688 C-17.22391957 20.68488868 -17.21879531 19.27798249 -17.2109375 17.87109375 C-17.20642578 16.60644287 -17.20191406 15.34179199 -17.19726562 14.03881836 C-16.42410168 8.79917386 -14.027441 5.92161907 -10.40966797 2.18945312 C-6.92181708 0.0709159 -3.96458764 -0.04612587 0 0 Z " fill="#FAFBFE" transform="translate(158.6796875,3.46875)"/>
<path d="M0 0 C1.0709919 -0.01210762 1.0709919 -0.01210762 2.16362 -0.02445984 C3.67407825 -0.03827755 5.18456743 -0.04901004 6.69506836 -0.05688477 C8.2342244 -0.06840127 9.77334061 -0.08884823 11.31225586 -0.1184082 C13.54177862 -0.16122384 15.77011643 -0.17727197 18 -0.1875 C19.02218376 -0.21376213 19.02218376 -0.21376213 20.0650177 -0.24055481 C25.09307862 -0.21794323 27.88885072 1.00647364 31.69921875 4.23828125 C35.51726864 8.76325947 36.2103268 11.97072398 36.23046875 17.83203125 C36.23429565 18.54178101 36.23812256 19.25153076 36.24206543 19.98278809 C36.24477337 21.47535633 36.23749066 22.96797293 36.22070312 24.46044922 C36.19927298 26.73253138 36.22053822 29.00145254 36.24609375 31.2734375 C36.24345027 32.73047566 36.23832486 34.18751187 36.23046875 35.64453125 C36.22595703 36.95744141 36.22144531 38.27035156 36.21679688 39.62304688 C35.4233034 45.16552397 33.14264117 48.0182532 28.92602539 51.58227539 C25.04504657 53.57400417 22.41982596 53.74048424 18.0703125 53.734375 C17.35819107 53.73583023 16.64606964 53.73728546 15.91236877 53.73878479 C14.41557702 53.73713351 12.91876693 53.72565888 11.42211914 53.70483398 C9.13939956 53.67581533 6.85899776 53.68425177 4.57617188 53.69726562 C-8.47211771 53.64153773 -8.47211771 53.64153773 -14.55078125 48.23828125 C-18.91012317 43.25617619 -17.67969109 35.228079 -17.76074219 28.92504883 C-17.78728917 27.35084508 -17.82814985 25.77681328 -17.88378906 24.20336914 C-18.39838356 9.45837694 -18.39838356 9.45837694 -13.95703125 4.21875 C-9.69303241 0.20408478 -5.62787605 0.06046693 0 0 Z " fill="#FAF9FE" transform="translate(21.30078125,141.76171875)"/>
<path d="M0 0 C1.10640839 -0.01210762 1.10640839 -0.01210762 2.23516846 -0.02445984 C3.79868216 -0.03829926 5.36222606 -0.04902206 6.92578125 -0.05688477 C9.30527945 -0.07405391 11.68337193 -0.11793262 14.0625 -0.16210938 C15.58332314 -0.17224058 17.10415807 -0.18075535 18.625 -0.1875 C19.33146667 -0.20500809 20.03793335 -0.22251617 20.76580811 -0.24055481 C25.86954854 -0.21839482 28.71393848 0.94193413 32.578125 4.23828125 C36.33627438 8.71001321 37.08265518 11.82662397 37.07421875 17.61328125 C37.07567398 18.30083496 37.07712921 18.98838867 37.07862854 19.69677734 C37.07697751 21.14229596 37.06550578 22.58783362 37.04467773 24.03320312 C37.01570066 26.23253856 37.02408764 28.4294614 37.03710938 30.62890625 C36.98401786 42.64139468 36.98401786 42.64139468 33.578125 48.23828125 C28.74993234 52.59543072 25.71943822 53.4089046 19.375 53.4765625 C18.65959045 53.48463425 17.94418091 53.49270599 17.20709229 53.50102234 C15.69065776 53.51486083 14.17419212 53.52558405 12.65771484 53.53344727 C10.35062606 53.55061382 8.04498818 53.59449249 5.73828125 53.63867188 C4.26303135 53.64880337 2.78776928 53.65731805 1.3125 53.6640625 C0.6279071 53.68157059 -0.05668579 53.69907867 -0.76202393 53.71711731 C-5.80116075 53.6945678 -8.6035833 52.47938149 -12.421875 49.23828125 C-16.15937357 44.81111358 -17.04778125 41.15347486 -17.05859375 35.49609375 C-17.07500664 34.40529007 -17.07500664 34.40529007 -17.0917511 33.29244995 C-17.10754364 31.7612818 -17.11283354 30.22997291 -17.1081543 28.69873047 C-17.10936895 26.37485412 -17.16916818 24.05728691 -17.23242188 21.734375 C-17.37694673 9.32194542 -17.37694673 9.32194542 -13.00390625 4.23046875 C-8.79062818 0.31544196 -5.60736306 0.05796715 0 0 Z " fill="#FCF8FC" transform="translate(20.421875,3.76171875)"/>
<path d="M0 0 C1.39895508 -0.01836914 1.39895508 -0.01836914 2.82617188 -0.03710938 C4.16325195 -0.04000977 4.16325195 -0.04000977 5.52734375 -0.04296875 C6.348396 -0.04707764 7.16944824 -0.05118652 8.01538086 -0.05541992 C10.0625 0.1875 10.0625 0.1875 12.0625 2.1875 C12.4765625 5.0078125 12.4765625 5.0078125 12.6875 8.3125 C12.76226563 9.40820312 12.83703125 10.50390625 12.9140625 11.6328125 C12.98753906 12.89738281 12.98753906 12.89738281 13.0625 14.1875 C13.866875 14.496875 14.67125 14.80625 15.5 15.125 C18.0625 16.1875 18.0625 16.1875 19.0625 17.1875 C19.18764928 19.16369447 19.2382276 21.14488173 19.25 23.125 C19.26417969 24.20652344 19.27835938 25.28804687 19.29296875 26.40234375 C19.0625 29.1875 19.0625 29.1875 17.0625 31.1875 C14.12796739 30.82068342 13.19812754 30.32312754 11.0625 28.1875 C10.4375 26.0625 10.4375 26.0625 10.0625 24.1875 C8.4125 24.5175 6.7625 24.8475 5.0625 25.1875 C5.16863836 27.63974694 5.16863836 27.63974694 6.0625 30.1875 C7.72322849 30.86882451 9.390267 31.53492127 11.0625 32.1875 C11.72916667 33.85416667 12.39583333 35.52083333 13.0625 37.1875 C14.3309375 37.6825 14.3309375 37.6825 15.625 38.1875 C16.429375 38.5175 17.23375 38.8475 18.0625 39.1875 C18.875 41.8125 18.875 41.8125 19.0625 44.1875 C14.3125 47.1875 14.3125 47.1875 12.0625 47.1875 C12.7225 49.1675 13.3825 51.1475 14.0625 53.1875 C16.02144361 53.07443303 16.02144361 53.07443303 18.0625 52.1875 C18.35125 51.40375 18.64 50.62 18.9375 49.8125 C20.47572558 46.22330697 22.55222962 45.63739429 26.0625 44.1875 C25.95636164 41.73525306 25.95636164 41.73525306 25.0625 39.1875 C23.41045544 38.48538106 21.74326231 37.81778587 20.0625 37.1875 C19.125 35.1875 19.125 35.1875 19.0625 33.1875 C21.0625 31.1875 21.0625 31.1875 23.10961914 30.94458008 C24.34119751 30.95074341 24.34119751 30.95074341 25.59765625 30.95703125 C26.48904297 30.95896484 27.38042969 30.96089844 28.29882812 30.96289062 C29.23146484 30.97513672 30.16410156 30.98738281 31.125 31 C32.06150391 31.00064453 32.99800781 31.00128906 33.96289062 31.00195312 C40.92230776 31.04730776 40.92230776 31.04730776 42.0625 32.1875 C42.10313832 33.85367115 42.105221 35.52138095 42.0625 37.1875 C40.6084375 37.7753125 40.6084375 37.7753125 39.125 38.375 C35.84073609 39.86344887 35.84073609 39.86344887 35.1875 42.875 C35.14625 43.638125 35.105 44.40125 35.0625 45.1875 C37.0425 45.8475 39.0225 46.5075 41.0625 47.1875 C41.6875 49.5625 41.6875 49.5625 42.0625 52.1875 C40.0625 54.1875 40.0625 54.1875 37.2421875 54.3828125 C36.15164062 54.35960937 35.06109375 54.33640625 33.9375 54.3125 C32.84179688 54.29445312 31.74609375 54.27640625 30.6171875 54.2578125 C29.77414063 54.23460937 28.93109375 54.21140625 28.0625 54.1875 C28.019779 55.85361905 28.02186168 57.52132885 28.0625 59.1875 C29.60451139 60.72951139 31.10129447 60.36763068 33.24609375 60.43359375 C34.09107422 60.46646484 34.93605469 60.49933594 35.80664062 60.53320312 C37.59818281 60.59426366 39.3898569 60.65157257 41.18164062 60.70507812 C42.02791016 60.73923828 42.87417969 60.77339844 43.74609375 60.80859375 C44.91483032 60.84617798 44.91483032 60.84617798 46.10717773 60.88452148 C48.0625 61.1875 48.0625 61.1875 50.0625 63.1875 C49.50694444 67.74305556 49.50694444 67.74305556 48.0625 69.1875 C43.29108284 69.5271552 38.51758174 69.58707432 33.73535156 69.64746094 C32.12697526 69.67404031 30.51876855 69.71493683 28.91113281 69.77050781 C26.59109741 69.84978444 24.27431749 69.8827865 21.953125 69.90625 C21.23835999 69.93924194 20.52359497 69.97223389 19.78717041 70.00622559 C17.73535156 69.99804688 17.73535156 69.99804688 14.0625 69.1875 C12.48639474 67.49056132 11.38217626 65.81963814 10.26947021 63.7911377 C8.71403204 61.72450899 7.51346906 61.77074604 5.0625 61.1875 C4.588125 60.218125 4.11375 59.24875 3.625 58.25 C1.75187514 54.57867528 0.7119223 54.62806143 -2.9375 53.1875 C-3.875 50.6875 -3.875 50.6875 -3.9375 48.1875 C-1.71560176 45.96560176 0.14732708 45.26151108 3.0625 44.1875 C2.95636164 41.73525306 2.95636164 41.73525306 2.0625 39.1875 C-0.38038628 37.87681667 -0.38038628 37.87681667 -2.9375 37.1875 C-5.1772148 34.9477852 -4.12281833 29.75852512 -4.125 26.75 C-4.13724609 25.86505859 -4.14949219 24.98011719 -4.16210938 24.06835938 C-4.16404297 23.22208984 -4.16597656 22.37582031 -4.16796875 21.50390625 C-4.17207764 20.72474854 -4.17618652 19.94559082 -4.18041992 19.14282227 C-3.9375 17.1875 -3.9375 17.1875 -1.9375 15.1875 C-0.28758418 14.48039322 1.37812256 13.80806011 3.0625 13.1875 C2.7325 11.8675 2.4025 10.5475 2.0625 9.1875 C1.29164062 9.13851562 0.52078125 9.08953125 -0.2734375 9.0390625 C-1.27632812 8.96429688 -2.27921875 8.88953125 -3.3125 8.8125 C-4.80910156 8.70808594 -4.80910156 8.70808594 -6.3359375 8.6015625 C-8.9375 8.1875 -8.9375 8.1875 -10.9375 6.1875 C-11.125 3.625 -11.125 3.625 -10.9375 1.1875 C-8.63740227 -1.11259773 -3.08959334 0.00212635 0 0 Z " fill="#AA6BEB" transform="translate(14.9375,64.8125)"/>
<path d="M0 0 C0.81416885 -0.00622879 1.62833771 -0.01245758 2.46717834 -0.01887512 C3.77977882 -0.0050605 3.77977882 -0.0050605 5.11889648 0.0090332 C6.47047096 0.00828545 6.47047096 0.00828545 7.84934998 0.00752258 C9.75326748 0.00986247 11.65718812 0.019586 13.56103516 0.03613281 C16.48229479 0.05975223 19.40264361 0.05668989 22.32397461 0.05004883 C24.17228736 0.05562463 26.02059626 0.06273389 27.86889648 0.0715332 C28.7459877 0.0706218 29.62307892 0.06971039 30.52674866 0.06877136 C36.69646079 0.14128501 36.69646079 0.14128501 38.92749023 2.37231445 C38.37193468 6.92787001 38.37193468 6.92787001 36.92749023 8.37231445 C35.13646461 8.45107291 33.34456627 8.51042653 31.55249023 8.55981445 C28.57384583 8.71293516 28.57384583 8.71293516 25.92749023 9.37231445 C23.97650142 12.27306376 23.97650142 12.27306376 22.92749023 15.37231445 C20.36499023 16.37231445 20.36499023 16.37231445 17.92749023 16.37231445 C15.70559199 14.15041621 15.00150131 12.28748737 13.92749023 9.37231445 C12.27749023 9.37231445 10.62749023 9.37231445 8.92749023 9.37231445 C8.59749023 16.30231445 8.26749023 23.23231445 7.92749023 30.37231445 C5.94749023 31.36231445 3.96749023 32.35231445 1.92749023 33.37231445 C1.55624023 34.40356445 1.18499023 35.43481445 0.80249023 36.49731445 C0.18374023 37.44606445 -0.43500977 38.39481445 -1.07250977 39.37231445 C-4.16829091 39.82212881 -7.2010331 39.8761717 -10.32641602 39.9699707 C-11.68573242 40.16913086 -11.68573242 40.16913086 -13.07250977 40.37231445 C-15.11524108 43.20672343 -15.11524108 43.20672343 -16.07250977 46.37231445 C-18.63891602 47.5637207 -18.63891602 47.5637207 -21.07250977 48.37231445 C-21.0923291 48.93740723 -21.11214844 49.5025 -21.13256836 50.0847168 C-21.22769213 52.63939442 -21.33742034 55.19323986 -21.44750977 57.74731445 C-21.49391602 59.08149414 -21.49391602 59.08149414 -21.54125977 60.44262695 C-21.57993164 61.2934082 -21.61860352 62.14418945 -21.65844727 63.02075195 C-21.68986816 63.80627441 -21.72128906 64.59179688 -21.75366211 65.40112305 C-22.07250977 67.37231445 -22.07250977 67.37231445 -24.07250977 69.37231445 C-26.69750977 69.49731445 -26.69750977 69.49731445 -29.07250977 69.37231445 C-30.21156296 67.09420807 -30.19917966 65.83535075 -30.2019043 63.30566406 C-30.20505646 62.46817123 -30.20820862 61.63067841 -30.2114563 60.76780701 C-30.20943207 59.8625679 -30.20740784 58.9573288 -30.20532227 58.0246582 C-30.20627899 57.09762589 -30.20723572 56.17059357 -30.20822144 55.21546936 C-30.20890253 53.25432263 -30.20705316 51.29317366 -30.20288086 49.33203125 C-30.19752558 46.31871518 -30.20283135 43.30554777 -30.20922852 40.29223633 C-30.20856784 38.39054329 -30.2072869 36.48885034 -30.20532227 34.5871582 C-30.2073465 33.67989487 -30.20937073 32.77263153 -30.2114563 31.83787537 C-30.18746354 25.48726823 -30.18746354 25.48726823 -29.07250977 24.37231445 C-26.63500977 24.18481445 -26.63500977 24.18481445 -24.07250977 24.37231445 C-22.07250977 26.37231445 -22.07250977 26.37231445 -21.07250977 30.37231445 C-17.11250977 30.37231445 -13.15250977 30.37231445 -9.07250977 30.37231445 C-7.99166456 26.73611789 -7.99166456 26.73611789 -8.07250977 24.37231445 C-9.33708008 24.40711914 -9.33708008 24.40711914 -10.62719727 24.44262695 C-12.27075195 24.46969727 -12.27075195 24.46969727 -13.94750977 24.49731445 C-15.03805664 24.52051758 -16.12860352 24.5437207 -17.25219727 24.56762695 C-20.07250977 24.37231445 -20.07250977 24.37231445 -22.07250977 22.37231445 C-22.26000977 19.80981445 -22.26000977 19.80981445 -22.07250977 17.37231445 C-20.53229658 15.83210127 -19.03180814 16.174499 -16.88891602 16.09106445 C-16.04393555 16.05368164 -15.19895508 16.01629883 -14.32836914 15.9777832 C-12.99515625 15.92557617 -12.99515625 15.92557617 -11.63500977 15.87231445 C-9.88614437 15.80353169 -8.13742839 15.73080262 -6.38891602 15.65356445 C-5.6097583 15.62327148 -4.83060059 15.59297852 -4.02783203 15.56176758 C-1.99441611 15.48279724 -1.99441611 15.48279724 -0.07250977 14.37231445 C-0.17864813 11.92006751 -0.17864813 11.92006751 -1.07250977 9.37231445 C-2.72455432 8.67019552 -4.39174745 8.00260032 -6.07250977 7.37231445 C-7.07250977 5.43481445 -7.07250977 5.43481445 -7.07250977 3.37231445 C-4.91332726 0.58873265 -3.47725578 -0.00305823 0 0 Z " fill="#CA64B4" transform="translate(95.072509765625,2.627685546875)"/>
<path d="M0 0 C1.09648361 -0.00574036 1.09648361 -0.00574036 2.21511841 -0.01159668 C3.75654482 -0.01430963 5.29801776 -0.00699155 6.83935547 0.00976562 C9.18172562 0.0311261 11.52100774 0.009979 13.86328125 -0.015625 C15.36719419 -0.01298041 16.87110523 -0.0078527 18.375 0 C19.06689423 -0.00809692 19.75878845 -0.01619385 20.47164917 -0.02453613 C25.90689945 0.07866743 28.93190063 1.55049962 33.3203125 4.53125 C38.42462104 10.47938265 37.90448115 16.96773058 37.78686523 24.54711914 C37.75782624 26.59278195 37.76629454 28.63585852 37.77929688 30.68164062 C37.6941608 43.91702574 37.6941608 43.91702574 32.78515625 49.17578125 C27.8858771 52.92228883 25.17194031 53.7049626 19.1171875 53.76953125 C18.40177795 53.777603 17.68636841 53.78567474 16.94927979 53.79399109 C15.43284526 53.80782958 13.91637962 53.8185528 12.39990234 53.82641602 C10.09281356 53.84358257 7.78717568 53.88746124 5.48046875 53.93164062 C4.00521885 53.94177212 2.52995678 53.9502868 1.0546875 53.95703125 C0.3700946 53.97453934 -0.31449829 53.99204742 -1.01983643 54.01008606 C-6.03568269 53.98764077 -8.80957671 52.64848445 -12.6796875 49.53125 C-17.88548886 43.43178607 -17.29030788 36.28973049 -17.20117188 28.66088867 C-17.17970043 26.4700698 -17.20104051 24.28251653 -17.2265625 22.09179688 C-17.22391957 20.68488868 -17.21879531 19.27798249 -17.2109375 17.87109375 C-17.20642578 16.60644287 -17.20191406 15.34179199 -17.19726562 14.03881836 C-16.42410168 8.79917386 -14.027441 5.92161907 -10.40966797 2.18945312 C-6.92181708 0.0709159 -3.96458764 -0.04612587 0 0 Z M-6.6796875 11.53125 C-9.77858634 16.17959825 -9.00824675 20.93967989 -8.9921875 26.40625 C-9.00830078 27.49550781 -9.02441406 28.58476563 -9.04101562 29.70703125 C-9.04166016 30.76019531 -9.04230469 31.81335938 -9.04296875 32.8984375 C-9.04594971 33.85862793 -9.04893066 34.81881836 -9.05200195 35.80810547 C-8.48736966 39.93788161 -6.74877435 42.59349052 -3.64453125 45.31640625 C0.79956006 47.1373712 5.00139569 47.00490797 9.7578125 46.96875 C10.68658203 46.98873047 11.61535156 47.00871094 12.57226562 47.02929688 C18.30058656 47.02521978 21.89726224 46.53045309 26.3203125 42.53125 C30.38351586 37.95906788 29.87130947 32.46144792 29.8828125 26.65625 C29.91955078 25.68816406 29.95628906 24.72007813 29.99414062 23.72265625 C30.03151911 17.6175032 29.17622236 14.21028108 24.90600586 9.76904297 C20.68709085 6.47575596 15.08255883 7.27042766 10.0078125 7.21875 C9.07001953 7.18974609 8.13222656 7.16074219 7.16601562 7.13085938 C1.36538339 7.07771757 -2.14513787 7.5301768 -6.6796875 11.53125 Z " fill="#7D8EE1" transform="translate(158.6796875,3.46875)"/>
<path d="M0 0 C1.0709919 -0.01210762 1.0709919 -0.01210762 2.16362 -0.02445984 C3.67407825 -0.03827755 5.18456743 -0.04901004 6.69506836 -0.05688477 C8.2342244 -0.06840127 9.77334061 -0.08884823 11.31225586 -0.1184082 C13.54177862 -0.16122384 15.77011643 -0.17727197 18 -0.1875 C19.02218376 -0.21376213 19.02218376 -0.21376213 20.0650177 -0.24055481 C25.09307862 -0.21794323 27.88885072 1.00647364 31.69921875 4.23828125 C35.51726864 8.76325947 36.2103268 11.97072398 36.23046875 17.83203125 C36.23429565 18.54178101 36.23812256 19.25153076 36.24206543 19.98278809 C36.24477337 21.47535633 36.23749066 22.96797293 36.22070312 24.46044922 C36.19927298 26.73253138 36.22053822 29.00145254 36.24609375 31.2734375 C36.24345027 32.73047566 36.23832486 34.18751187 36.23046875 35.64453125 C36.22595703 36.95744141 36.22144531 38.27035156 36.21679688 39.62304688 C35.4233034 45.16552397 33.14264117 48.0182532 28.92602539 51.58227539 C25.04504657 53.57400417 22.41982596 53.74048424 18.0703125 53.734375 C17.35819107 53.73583023 16.64606964 53.73728546 15.91236877 53.73878479 C14.41557702 53.73713351 12.91876693 53.72565888 11.42211914 53.70483398 C9.13939956 53.67581533 6.85899776 53.68425177 4.57617188 53.69726562 C-8.47211771 53.64153773 -8.47211771 53.64153773 -14.55078125 48.23828125 C-18.91012317 43.25617619 -17.67969109 35.228079 -17.76074219 28.92504883 C-17.78728917 27.35084508 -17.82814985 25.77681328 -17.88378906 24.20336914 C-18.39838356 9.45837694 -18.39838356 9.45837694 -13.95703125 4.21875 C-9.69303241 0.20408478 -5.62787605 0.06046693 0 0 Z M-9.1484375 13.3359375 C-10.90175615 17.75192311 -10.77406865 21.96811166 -10.73828125 26.67578125 C-10.75826172 27.60455078 -10.77824219 28.53332031 -10.79882812 29.49023438 C-10.79475103 35.21855531 -10.29998434 38.81523099 -6.30078125 43.23828125 C-1.77652714 47.22333189 3.41412973 46.719284 9.13671875 46.67578125 C10.06548828 46.69576172 10.99425781 46.71574219 11.95117188 46.73632812 C17.67949281 46.73225103 21.27616849 46.23748434 25.69921875 42.23828125 C29.68426939 37.71402714 29.1802215 32.52337027 29.13671875 26.80078125 C29.15669922 25.87201172 29.17667969 24.94324219 29.19726562 23.98632812 C29.19318853 18.25800719 28.69842184 14.66133151 24.69921875 10.23828125 C20.17496464 6.25323061 14.98430777 6.7572785 9.26171875 6.80078125 C8.33294922 6.78080078 7.40417969 6.76082031 6.44726562 6.74023438 C-0.45457036 6.74514671 -4.44295905 7.99377698 -9.1484375 13.3359375 Z " fill="#8F75F9" transform="translate(21.30078125,141.76171875)"/>
<path d="M0 0 C1.10640839 -0.01210762 1.10640839 -0.01210762 2.23516846 -0.02445984 C3.79868216 -0.03829926 5.36222606 -0.04902206 6.92578125 -0.05688477 C9.30527945 -0.07405391 11.68337193 -0.11793262 14.0625 -0.16210938 C15.58332314 -0.17224058 17.10415807 -0.18075535 18.625 -0.1875 C19.33146667 -0.20500809 20.03793335 -0.22251617 20.76580811 -0.24055481 C25.86954854 -0.21839482 28.71393848 0.94193413 32.578125 4.23828125 C36.33627438 8.71001321 37.08265518 11.82662397 37.07421875 17.61328125 C37.07567398 18.30083496 37.07712921 18.98838867 37.07862854 19.69677734 C37.07697751 21.14229596 37.06550578 22.58783362 37.04467773 24.03320312 C37.01570066 26.23253856 37.02408764 28.4294614 37.03710938 30.62890625 C36.98401786 42.64139468 36.98401786 42.64139468 33.578125 48.23828125 C28.74993234 52.59543072 25.71943822 53.4089046 19.375 53.4765625 C18.65959045 53.48463425 17.94418091 53.49270599 17.20709229 53.50102234 C15.69065776 53.51486083 14.17419212 53.52558405 12.65771484 53.53344727 C10.35062606 53.55061382 8.04498818 53.59449249 5.73828125 53.63867188 C4.26303135 53.64880337 2.78776928 53.65731805 1.3125 53.6640625 C0.6279071 53.68157059 -0.05668579 53.69907867 -0.76202393 53.71711731 C-5.80116075 53.6945678 -8.6035833 52.47938149 -12.421875 49.23828125 C-16.15937357 44.81111358 -17.04778125 41.15347486 -17.05859375 35.49609375 C-17.07500664 34.40529007 -17.07500664 34.40529007 -17.0917511 33.29244995 C-17.10754364 31.7612818 -17.11283354 30.22997291 -17.1081543 28.69873047 C-17.10936895 26.37485412 -17.16916818 24.05728691 -17.23242188 21.734375 C-17.37694673 9.32194542 -17.37694673 9.32194542 -13.00390625 4.23046875 C-8.79062818 0.31544196 -5.60736306 0.05796715 0 0 Z M-8.421875 13.23828125 C-9.88997957 17.64259495 -9.68738381 21.93624636 -9.734375 26.55078125 C-9.76337891 27.48857422 -9.79238281 28.42636719 -9.82226562 29.39257812 C-9.87524478 35.17545631 -9.48486448 38.77383795 -5.421875 43.23828125 C-0.95943287 47.11937771 3.89549607 46.68696102 9.515625 46.61328125 C10.39669922 46.62488281 11.27777344 46.63648438 12.18554688 46.6484375 C17.39743352 46.62501329 21.07491366 46.14129485 25.578125 43.23828125 C30.17498444 38.16588463 29.82113835 32.9065694 29.890625 26.42578125 C29.91962891 25.53568359 29.94863281 24.64558594 29.97851562 23.72851562 C30.03311243 18.06304722 29.52376935 14.62755852 25.578125 10.23828125 C21.04219426 6.22702907 15.81735038 6.79223169 10.078125 6.86328125 C8.67240234 6.84587891 8.67240234 6.84587891 7.23828125 6.828125 C0.57424994 6.85648258 -3.99026537 7.92034969 -8.421875 13.23828125 Z " fill="#C75EBC" transform="translate(20.421875,3.76171875)"/>
<path d="M0 0 C1.0725 0.00515625 2.145 0.0103125 3.25 0.015625 C4.3225 0.01046875 5.395 0.0053125 6.5 0 C9.25 0.265625 9.25 0.265625 11.25 2.265625 C11.25 4.203125 11.25 4.203125 10.25 6.265625 C9.26 6.595625 8.27 6.925625 7.25 7.265625 C6.26 7.925625 5.27 8.585625 4.25 9.265625 C3.6349628 12.3979216 3.49952041 15.36109699 3.453125 18.55078125 C3.25 21.265625 3.25 21.265625 1.25 23.265625 C-0.39991582 23.97273178 -2.06562256 24.64506489 -3.75 25.265625 C-3.63693303 27.22456861 -3.63693303 27.22456861 -2.75 29.265625 C-0.29295238 30.49852701 -0.29295238 30.49852701 2.25 31.265625 C4.01249851 33.02812351 3.37733845 35.75135199 3.4375 38.140625 C3.58976986 41.38338222 3.58976986 41.38338222 4.25 44.265625 C7.1184413 46.36794844 7.1184413 46.36794844 10.25 47.265625 C11.25 49.328125 11.25 49.328125 11.25 51.265625 C8.73295195 53.78267305 7.17327101 53.51232099 3.73840332 53.54351807 C2.61492493 53.53744537 2.61492493 53.53744537 1.46875 53.53125 C0.69946167 53.53316345 -0.06982666 53.5350769 -0.86242676 53.53704834 C-2.4898308 53.53841008 -4.1172457 53.53471439 -5.74462891 53.52636719 C-8.24015631 53.51566721 -10.73496382 53.52626251 -13.23046875 53.5390625 C-14.80989743 53.5377409 -16.38932566 53.5351785 -17.96875 53.53125 C-18.7177356 53.53529846 -19.46672119 53.53934692 -20.23840332 53.54351807 C-25.52007757 53.49554743 -25.52007757 53.49554743 -27.75 51.265625 C-28.015625 48.734375 -28.015625 48.734375 -28 45.765625 C-28.00515625 44.7859375 -28.0103125 43.80625 -28.015625 42.796875 C-27.75 40.265625 -27.75 40.265625 -25.75 38.265625 C-22.96484375 37.88671875 -22.96484375 37.88671875 -19.6875 37.703125 C-15.90176774 37.80680559 -15.90176774 37.80680559 -12.75 36.265625 C-12.59344973 34.77923508 -12.49933057 33.28613373 -12.43359375 31.79296875 C-12.39169922 30.89384766 -12.34980469 29.99472656 -12.30664062 29.06835938 C-12.26732422 28.12283203 -12.22800781 27.17730469 -12.1875 26.203125 C-12.14431641 25.25373047 -12.10113281 24.30433594 -12.05664062 23.32617188 C-11.95020724 20.97281147 -11.84818992 18.61934146 -11.75 16.265625 C-10.77546875 15.88535156 -9.8009375 15.50507813 -8.796875 15.11328125 C-5.52079214 13.60172614 -5.52079214 13.60172614 -5.015625 10.63671875 C-5.01046875 9.66863281 -5.0053125 8.70054687 -5 7.703125 C-4.88476013 0.47182342 -4.88476013 0.47182342 0 0 Z " fill="#56A4FD" transform="translate(184.75,141.734375)"/>
<path d="M0 0 C0.84175781 -0.00257813 1.68351562 -0.00515625 2.55078125 -0.0078125 C3.87142578 0.00378906 3.87142578 0.00378906 5.21875 0.015625 C6.09917969 0.00789062 6.97960937 0.00015625 7.88671875 -0.0078125 C8.72847656 -0.00523437 9.57023437 -0.00265625 10.4375 0 C11.59668945 0.00338379 11.59668945 0.00338379 12.77929688 0.00683594 C14.71875 0.265625 14.71875 0.265625 16.71875 2.265625 C16.986875 3.090625 17.255 3.915625 17.53125 4.765625 C18.50804563 7.49261356 18.50804563 7.49261356 21.28125 8.515625 C22.085625 8.763125 22.89 9.010625 23.71875 9.265625 C25.26825268 10.81512768 24.93530193 12.36553094 25.03515625 14.51953125 C25.07705078 15.37353516 25.11894531 16.22753906 25.16210938 17.10742188 C25.20142578 18.00525391 25.24074219 18.90308594 25.28125 19.828125 C25.32443359 20.72982422 25.36761719 21.63152344 25.41210938 22.56054688 C25.51853142 24.79540985 25.62054988 27.03038808 25.71875 29.265625 C27.69875 30.255625 29.67875 31.245625 31.71875 32.265625 C31.761471 33.93174405 31.75938832 35.59945385 31.71875 37.265625 C29.41865227 39.56572273 23.87084334 38.45099865 20.78125 38.453125 C19.84861328 38.46537109 18.91597656 38.47761719 17.95507812 38.49023438 C17.06369141 38.49216797 16.17230469 38.49410156 15.25390625 38.49609375 C14.432854 38.50020264 13.61180176 38.50431152 12.76586914 38.50854492 C10.71875 38.265625 10.71875 38.265625 8.71875 36.265625 C8.71875 34.328125 8.71875 34.328125 9.71875 32.265625 C12.78125 30.515625 12.78125 30.515625 15.71875 29.265625 C15.71875 25.305625 15.71875 21.345625 15.71875 17.265625 C14.39875 16.935625 13.07875 16.605625 11.71875 16.265625 C9.13424667 18.85012833 9.40765937 20.17634701 9.21875 23.765625 C8.94097222 29.04340278 8.94097222 29.04340278 6.71875 31.265625 C6.05875 31.36875 5.39875 31.471875 4.71875 31.578125 C3.72875 31.9184375 3.72875 31.9184375 2.71875 32.265625 C1.48584799 34.72267262 1.48584799 34.72267262 0.71875 37.265625 C-0.28125 38.265625 -0.28125 38.265625 -2.84375 38.328125 C-3.648125 38.3075 -4.4525 38.286875 -5.28125 38.265625 C-7.0492698 34.7295854 -6.46589913 30.65991245 -6.46875 26.765625 C-6.48711914 25.44498047 -6.48711914 25.44498047 -6.50585938 24.09765625 C-6.50779297 23.25589844 -6.50972656 22.41414063 -6.51171875 21.546875 C-6.51582764 20.77408203 -6.51993652 20.00128906 -6.52416992 19.20507812 C-6.28125 17.265625 -6.28125 17.265625 -4.28125 15.265625 C-2.63133418 14.55851822 -0.96562744 13.88618511 0.71875 13.265625 C0.60568303 11.30668139 0.60568303 11.30668139 -0.28125 9.265625 C-1.10625 8.95625 -1.93125 8.646875 -2.78125 8.328125 C-3.60625 7.9775 -4.43125 7.626875 -5.28125 7.265625 C-6.21875 4.765625 -6.21875 4.765625 -6.28125 2.265625 C-3.87295208 -0.14267292 -3.28841444 0.00959921 0 0 Z " fill="#6299FC" transform="translate(71.28125,156.734375)"/>
<path d="M0 0 C5.67458978 1.92721917 9.32050871 5.64101742 12 11 C12.55713132 16.95701945 12.52180186 21.95208399 9 27 C4.79658918 31.22638028 1.16054581 33.13817147 -4.8125 33.3125 C-9.6661481 33.25598008 -12.28169946 32.27564572 -16 29 C-20.53672319 23.97282025 -21.35816104 20.10864202 -21.28125 13.50390625 C-20.7247527 8.54953445 -17.97706409 5.86074694 -14.375 2.6875 C-9.68678983 -0.6435967 -5.63115856 -0.46854016 0 0 Z " fill="#8B80E7" transform="translate(104,83)"/>
<path d="M0 0 C2.5 0.125 2.5 0.125 3.5 1.125 C3.82446337 4.22542773 4.01334441 7.3270725 4.21875 10.4375 C4.20607799 13.04096752 4.20607799 13.04096752 5.5 14.125 C8.07988885 14.27263966 10.63648093 14.35995899 13.21875 14.40625 C14.37836243 14.43386414 14.37836243 14.43386414 15.56140137 14.46203613 C18.04085468 14.52096647 20.52037753 14.57371069 23 14.625 C26.26057003 14.69244268 29.52090865 14.76611069 32.78125 14.84375 C33.53853394 14.85732544 34.29581787 14.87090088 35.0760498 14.8848877 C40.38719819 15.01219819 40.38719819 15.01219819 41.5 16.125 C41.6875 18.5625 41.6875 18.5625 41.5 21.125 C38.91331224 23.71168776 37.53108979 23.46729306 33.9375 23.6875 C30.40583192 23.62297212 30.40583192 23.62297212 27.5 25.125 C27.42773498 26.97787502 27.4161878 28.83333878 27.4375 30.6875 C27.44652344 31.69941406 27.45554688 32.71132812 27.46484375 33.75390625 C27.47644531 34.53636719 27.48804688 35.31882813 27.5 36.125 C28.9540625 36.74375 28.9540625 36.74375 30.4375 37.375 C33.5 39.125 33.5 39.125 34.5625 41.125 C34.5 43.125 34.5 43.125 33.30859375 44.7265625 C30.93649543 46.56071196 29.47199527 46.52653567 26.5 46.5 C25.200625 46.51160156 25.200625 46.51160156 23.875 46.5234375 C21.07575529 46.05382737 20.18943844 45.36486838 18.5 43.125 C18.37625 42.444375 18.2525 41.76375 18.125 41.0625 C17.91875 40.423125 17.7125 39.78375 17.5 39.125 C15.04295238 37.89209799 15.04295238 37.89209799 12.5 37.125 C10.36264735 34.98764735 10.99004051 30.48698992 10.78125 27.59375 C10.76614735 25.1836395 10.76614735 25.1836395 9.5 24.125 C6.72334163 23.88079878 3.94783001 23.74111813 1.1640625 23.6015625 C-1.7949123 23.07224443 -2.73957622 22.51330826 -4.5 20.125 C-4.62375 19.444375 -4.7475 18.76375 -4.875 18.0625 C-5.08125 17.423125 -5.2875 16.78375 -5.5 16.125 C-6.325 15.815625 -7.15 15.50625 -8 15.1875 C-8.825 14.836875 -9.65 14.48625 -10.5 14.125 C-11.4375 11.625 -11.4375 11.625 -11.5 9.125 C-9.5 7.125 -9.5 7.125 -7.5 6.8125 C-6.84 6.585625 -6.18 6.35875 -5.5 6.125 C-4.26709799 3.66795238 -4.26709799 3.66795238 -3.5 1.125 C-2.5 0.125 -2.5 0.125 0 0 Z " fill="#7A8EE6" transform="translate(130.5,49.875)"/>
<path d="M0 0 C1.08152344 -0.01417969 2.16304687 -0.02835938 3.27734375 -0.04296875 C6.0625 0.1875 6.0625 0.1875 8.0625 2.1875 C8.330625 3.0125 8.59875 3.8375 8.875 4.6875 C9.82675451 7.42154194 9.82675451 7.42154194 12.5625 8.1875 C15.0625 9.1875 15.0625 9.1875 16.21875 11.75 C16.4971875 12.554375 16.775625 13.35875 17.0625 14.1875 C18.20138672 14.24357422 18.20138672 14.24357422 19.36328125 14.30078125 C20.35714844 14.36652344 21.35101563 14.43226563 22.375 14.5 C23.36113281 14.55800781 24.34726563 14.61601562 25.36328125 14.67578125 C28.0625 15.1875 28.0625 15.1875 29.89453125 16.41796875 C31.44846385 18.7722546 31.46254622 20.38232348 31.4375 23.1875 C31.44910156 24.486875 31.44910156 24.486875 31.4609375 25.8125 C31.0625 28.1875 31.0625 28.1875 29.8515625 29.9765625 C27.48574094 31.57788277 25.90234842 31.58785579 23.0625 31.5625 C22.19625 31.57023437 21.33 31.57796875 20.4375 31.5859375 C18.0625 31.1875 18.0625 31.1875 16.25 29.9140625 C15.0625 28.1875 15.0625 28.1875 15.0625 24.1875 C13.4125 24.1875 11.7625 24.1875 10.0625 24.1875 C9.7325 25.8375 9.4025 27.4875 9.0625 29.1875 C11.0425 30.1775 13.0225 31.1675 15.0625 32.1875 C15.105221 33.85361905 15.10313832 35.52132885 15.0625 37.1875 C13.25210804 38.99789196 10.63159565 38.48630517 8.1875 38.5625 C7.11757812 38.61148438 6.04765625 38.66046875 4.9453125 38.7109375 C2.0625 38.1875 2.0625 38.1875 0.1796875 35.7890625 C-0.9375 33.1875 -0.9375 33.1875 -0.9375 31.1875 C-1.72125 31.06375 -2.505 30.94 -3.3125 30.8125 C-5.9375 30.1875 -5.9375 30.1875 -7.9375 28.1875 C-7.9375 26.25 -7.9375 26.25 -6.9375 24.1875 C-3.875 22.4375 -3.875 22.4375 -0.9375 21.1875 C-0.9375 16.8975 -0.9375 12.6075 -0.9375 8.1875 C-2.5875 7.8575 -4.2375 7.5275 -5.9375 7.1875 C-6.5975 6.5275 -7.2575 5.8675 -7.9375 5.1875 C-7.10213108 -0.32593489 -5.24918956 0.03120802 0 0 Z " fill="#59A4FD" transform="translate(110.9375,156.8125)"/>
<path d="M0 0 C0.84175781 -0.00257813 1.68351563 -0.00515625 2.55078125 -0.0078125 C3.87142578 0.00378906 3.87142578 0.00378906 5.21875 0.015625 C6.09917969 0.00789062 6.97960937 0.00015625 7.88671875 -0.0078125 C8.72847656 -0.00523437 9.57023438 -0.00265625 10.4375 0 C11.59668945 0.00338379 11.59668945 0.00338379 12.77929688 0.00683594 C14.71875 0.265625 14.71875 0.265625 16.71875 2.265625 C16.97753906 4.20507812 16.97753906 4.20507812 16.984375 6.546875 C16.98824219 7.80951172 16.98824219 7.80951172 16.9921875 9.09765625 C16.98445313 9.97808594 16.97671875 10.85851562 16.96875 11.765625 C16.97648437 12.64605469 16.98421875 13.52648437 16.9921875 14.43359375 C16.98960937 15.27535156 16.98703125 16.11710938 16.984375 16.984375 C16.98211914 17.75716797 16.97986328 18.52996094 16.97753906 19.32617188 C16.71875 21.265625 16.71875 21.265625 14.71875 23.265625 C12.77929688 23.52441406 12.77929688 23.52441406 10.4375 23.53125 C9.59574219 23.53382813 8.75398437 23.53640625 7.88671875 23.5390625 C7.00628906 23.53132813 6.12585938 23.52359375 5.21875 23.515625 C3.89810547 23.52722656 3.89810547 23.52722656 2.55078125 23.5390625 C1.70902344 23.53648437 0.86726562 23.53390625 0 23.53125 C-0.77279297 23.52899414 -1.54558594 23.52673828 -2.34179688 23.52441406 C-4.28125 23.265625 -4.28125 23.265625 -6.28125 21.265625 C-6.54003906 19.32617188 -6.54003906 19.32617188 -6.546875 16.984375 C-6.54945313 16.14261719 -6.55203125 15.30085937 -6.5546875 14.43359375 C-6.54308594 13.11294922 -6.54308594 13.11294922 -6.53125 11.765625 C-6.53898438 10.88519531 -6.54671875 10.00476563 -6.5546875 9.09765625 C-6.55210937 8.25589844 -6.54953125 7.41414062 -6.546875 6.546875 C-6.54461914 5.77408203 -6.54236328 5.00128906 -6.54003906 4.20507812 C-5.99493728 0.11990023 -3.52809625 0.01029886 0 0 Z " fill="#FCFDFE" transform="translate(140.28125,133.734375)"/>
<path d="M0 0 C3.375 1.75 3.375 1.75 5 5 C5.86276862 11.37392327 6.00593722 16.70913952 2 22 C-2.93930851 23.64643617 -7.85084134 23.55516535 -13 23 C-16.25 21.375 -16.25 21.375 -18 18 C-19.5105409 6.26212711 -19.5105409 6.26212711 -16.3984375 1.6015625 C-11.54125623 -1.64183216 -5.57984803 -0.71806781 0 0 Z " fill="#C860BB" transform="translate(37,19)"/>
<path d="M0 0 C1.010625 0.00128906 2.02125 0.00257813 3.0625 0.00390625 C6.38011923 0.49360802 8.30575551 1.46973929 11 3.4375 C12.33827901 6.11405801 12.20578556 8.26184052 12.25 11.25 C12.27578125 12.28769531 12.3015625 13.32539063 12.328125 14.39453125 C11.95701851 17.83610214 11.04491005 19.67290073 9 22.4375 C4.54412852 24.66543574 -1.16060755 23.91664777 -6 23.4375 C-9.3125 21.8125 -9.3125 21.8125 -11 18.4375 C-11.65733892 13.67881569 -11.95688455 9.16000667 -11 4.4375 C-7.61005444 0.66817425 -4.98523588 -0.09538079 0 0 Z " fill="#9374F9" transform="translate(30,156.5625)"/>
<path d="M0 0 C2.3984375 1.6015625 2.3984375 1.6015625 4 4 C5.03358098 9.98051342 5.04664794 15.90670412 2.3125 21.375 C-2.87961512 23.92207534 -8.33769927 24.04857421 -14 23 C-17.18283281 20.40166069 -18.84664677 18.48314481 -19.2734375 14.35546875 C-19.42576132 9.6041372 -19.5253905 6.05078099 -17.375 1.75 C-11.92803516 -1.07435214 -5.99753404 -1.03652257 0 0 Z " fill="#788FE3" transform="translate(176,19)"/>
<path d="M0 0 C2.375 -0.125 2.375 -0.125 5 0 C7.60729699 2.60729699 7.1924179 3.82422306 7.25 7.4375 C7.37433604 10.37278094 7.37433604 10.37278094 8 13 C10.87129568 15.3155324 10.87129568 15.3155324 14 16 C14.125 18.375 14.125 18.375 14 21 C12 23 12 23 10 23.3125 C9.01 23.6528125 9.01 23.6528125 8 24 C7.690625 24.825 7.38125 25.65 7.0625 26.5 C6.711875 27.325 6.36125 28.15 6 29 C3.5 29.9375 3.5 29.9375 1 30 C-1.60729699 27.39270301 -1.1924179 26.17577694 -1.25 22.5625 C-1.37802955 19.6169045 -1.37802955 19.6169045 -2 17 C-4.88452275 14.97343617 -4.88452275 14.97343617 -8 14 C-9.0625 12 -9.0625 12 -9 10 C-7.51199262 7.96377938 -6.25700177 7.10903106 -3.9375 6.125 C-1.28822249 4.58670984 -0.89964656 2.84888077 0 0 Z " fill="#9A76EC" transform="translate(66,96)"/>
<path d="M0 0 C1.80746134 1.80746134 1.17303483 4.50445781 1.1875 6.9375 C1.20167969 8.01902344 1.21585938 9.10054687 1.23046875 10.21484375 C1 13 1 13 -1 15 C-3.125 15.625 -3.125 15.625 -5 16 C-5 17.65 -5 19.3 -5 21 C-4.195625 21.226875 -3.39125 21.45375 -2.5625 21.6875 C0 23 0 23 0.9375 25.5 C0.958125 26.325 0.97875 27.15 1 28 C-1 30 -1 30 -3.53125 30.265625 C-4.5109375 30.26046875 -5.490625 30.2553125 -6.5 30.25 C-7.4796875 30.25515625 -8.459375 30.2603125 -9.46875 30.265625 C-12 30 -12 30 -14 28 C-14.22705078 25.93701172 -14.22705078 25.93701172 -14.1953125 23.4296875 C-14.18886719 22.53378906 -14.18242188 21.63789062 -14.17578125 20.71484375 C-14.15902344 19.77769531 -14.14226562 18.84054688 -14.125 17.875 C-14.11597656 16.93011719 -14.10695313 15.98523438 -14.09765625 15.01171875 C-14.07404522 12.67422708 -14.04111516 10.33723877 -14 8 C-13.03578125 7.55914062 -12.0715625 7.11828125 -11.078125 6.6640625 C-7.52363041 4.74247025 -7.17507561 3.72107275 -6 0 C-3.49749232 -1.25125384 -2.59701335 -0.83774624 0 0 Z " fill="#BD68BE" transform="translate(110,35)"/>
<path d="M0 0 C1.08152344 -0.01417969 2.16304687 -0.02835937 3.27734375 -0.04296875 C6.0625 0.1875 6.0625 0.1875 8.0625 2.1875 C8.0625 4.625 8.0625 4.625 7.0625 7.1875 C6.0725 7.55875 5.0825 7.93 4.0625 8.3125 C3.0725 8.93125 2.0825 9.55 1.0625 10.1875 C0.44812742 13.06188602 0.3124231 15.75482572 0.265625 18.69140625 C0.0625 21.1875 0.0625 21.1875 -1.9375 23.1875 C-4.375 23.1875 -4.375 23.1875 -6.9375 22.1875 C-7.95441264 20.19604609 -8.95392648 18.19562926 -9.9375 16.1875 C-12.49471737 14.76192644 -12.49471737 14.76192644 -14.9375 14.1875 C-14.9375 12.5375 -14.9375 10.8875 -14.9375 9.1875 C-13.98875 8.795625 -13.04 8.40375 -12.0625 8 C-8.55925773 5.96811948 -8.03046716 4.96320474 -6.9375 1.1875 C-5.13003866 -0.61996134 -2.43304219 0.01446517 0 0 Z " fill="#6F95F0" transform="translate(133.9375,87.8125)"/>
<path d="M0 0 C2.375 -0.125 2.375 -0.125 5 0 C7.1385485 2.1385485 7.42655063 3.13275314 8 6 C8.84304687 6.04898438 9.68609375 6.09796875 10.5546875 6.1484375 C12.19824219 6.26058594 12.19824219 6.26058594 13.875 6.375 C14.96554688 6.44460937 16.05609375 6.51421875 17.1796875 6.5859375 C20 7 20 7 22 9 C21.44444444 13.55555556 21.44444444 13.55555556 20 15 C16.8617655 15.24966567 13.70950387 15.18521791 10.5625 15.1875 C9.67755859 15.19974609 8.79261719 15.21199219 7.88085938 15.22460938 C7.03458984 15.22654297 6.18832031 15.22847656 5.31640625 15.23046875 C4.53724854 15.23457764 3.75809082 15.23868652 2.95532227 15.24291992 C1 15 1 15 -1 13 C-1.23046875 10.46875 -1.23046875 10.46875 -1.1875 7.5 C-1.18105469 6.5203125 -1.17460938 5.540625 -1.16796875 4.53125 C-1 2 -1 2 0 0 Z " fill="#AF68E5" transform="translate(43,73)"/>
<path d="M0 0 C4.70588235 0.70588235 4.70588235 0.70588235 6 2 C6.12487758 3.80927281 6.17570846 5.62396107 6.1875 7.4375 C6.20167969 8.42621094 6.21585938 9.41492188 6.23046875 10.43359375 C6 13 6 13 4 15 C1.95288086 15.24291992 1.95288086 15.24291992 -0.53515625 15.23046875 C-1.42654297 15.22853516 -2.31792969 15.22660156 -3.23632812 15.22460938 C-4.6352832 15.20624023 -4.6352832 15.20624023 -6.0625 15.1875 C-7.46725586 15.1865332 -7.46725586 15.1865332 -8.90039062 15.18554688 C-15.85980776 15.14019224 -15.85980776 15.14019224 -17 14 C-17.125 11.5 -17.125 11.5 -17 9 C-15.23750149 7.23750149 -12.51427301 7.87266155 -10.125 7.8125 C-6.89024423 7.6591431 -6.89024423 7.6591431 -4 7 C-1.66906654 4.17872942 -1.66906654 4.17872942 -1 1 C-0.67 0.67 -0.34 0.34 0 0 Z " fill="#9F75D4" transform="translate(113,65)"/>
<path d="M0 0 C1.2065625 0.0309375 1.2065625 0.0309375 2.4375 0.0625 C2.829375 1.01125 3.22125 1.96 3.625 2.9375 C5.72396781 6.55641001 6.73675601 6.60168 10.4375 8.0625 C11.375 10.5625 11.375 10.5625 11.4375 13.0625 C9.4375 15.0625 9.4375 15.0625 6.9375 15.875 C4.20196304 16.85978463 4.20196304 16.85978463 3.125 19.6875 C2.898125 20.47125 2.67125 21.255 2.4375 22.0625 C0.77138095 22.105221 -0.89632885 22.10313832 -2.5625 22.0625 C-4.15187556 20.47312444 -3.69231143 18.82350154 -3.6953125 16.625 C-3.69660156 15.73039062 -3.69789062 14.83578125 -3.69921875 13.9140625 C-3.69341797 12.50253906 -3.69341797 12.50253906 -3.6875 11.0625 C-3.69136719 10.12148438 -3.69523437 9.18046875 -3.69921875 8.2109375 C-3.69792969 7.31632812 -3.69664063 6.42171875 -3.6953125 5.5 C-3.69362061 4.26056641 -3.69362061 4.26056641 -3.69189453 2.99609375 C-3.49072608 -0.01004609 -3.03099684 0.07392675 0 0 Z " fill="#B36BBE" transform="translate(122.5625,26.9375)"/>
<path d="M0 0 C-0.33 4.62 -0.66 9.24 -1 14 C-5.27709699 14 -6.55930376 13.29379749 -10 11 C-9.67 9.68 -9.34 8.36 -9 7 C-9.99 7.66 -10.98 8.32 -12 9 C-15.1875 8.625 -15.1875 8.625 -18 8 C-15.44533941 4.9752109 -12.62983727 3.79379389 -9 2.3125 C-7.948125 1.87550781 -6.89625 1.43851562 -5.8125 0.98828125 C-3 0 -3 0 0 0 Z " fill="#F8F8FD" transform="translate(107,93)"/>
<path d="M0 0 C2.5625 0.25 2.5625 0.25 5 1 C6.22691067 3.45382134 6.20175931 5.19984103 6.25 7.9375 C6.28867188 9.25041016 6.28867188 9.25041016 6.328125 10.58984375 C6 13 6 13 4.6171875 14.83203125 C3 16 3 16 0.875 15.75 C-1 15 -1 15 -2 14 C-2.12514928 12.02380553 -2.1757276 10.04261827 -2.1875 8.0625 C-2.20167969 6.98097656 -2.21585937 5.89945313 -2.23046875 4.78515625 C-2 2 -2 2 0 0 Z " fill="#7596F7" transform="translate(90,126)"/>
<path d="M0 0 C2.375 -0.125 2.375 -0.125 5 0 C7 2 7 2 7.265625 4.53125 C7.26046875 5.5109375 7.2553125 6.490625 7.25 7.5 C7.25515625 8.4796875 7.2603125 9.459375 7.265625 10.46875 C7 13 7 13 5 15 C0.44444444 14.44444444 0.44444444 14.44444444 -1 13 C-1.09879565 11.189715 -1.12971514 9.37547273 -1.125 7.5625 C-1.12757813 6.57378906 -1.13015625 5.58507812 -1.1328125 4.56640625 C-1 2 -1 2 0 0 Z " fill="#5CA8FD" transform="translate(189,119)"/>
<path d="M0 0 C2.14576637 -0.02685938 4.29162645 -0.04633088 6.4375 -0.0625 C7.63246094 -0.07410156 8.82742187 -0.08570313 10.05859375 -0.09765625 C13 0 13 0 14 1 C14.125 3.5 14.125 3.5 14 6 C12.19253866 7.80746134 9.49554219 7.17303483 7.0625 7.1875 C5.98097656 7.20167969 4.89945312 7.21585938 3.78515625 7.23046875 C1 7 1 7 -1 5 C-0.625 2.375 -0.625 2.375 0 0 Z " fill="#D05EAC" transform="translate(66,4)"/>
<path d="M0 0 C2.625 0.375 2.625 0.375 5 1 C5.625 3.375 5.625 3.375 6 6 C5.34 6.66 4.68 7.32 4 8 C1.375 7.625 1.375 7.625 -1 7 C-1.625 4.625 -1.625 4.625 -2 2 C-1.34 1.34 -0.68 0.68 0 0 Z " fill="#649BFB" transform="translate(90,149)"/>
<path d="M0 0 C0.598125 0.20625 1.19625 0.4125 1.8125 0.625 C2.4375 3 2.4375 3 2.8125 5.625 C2.1525 6.285 1.4925 6.945 0.8125 7.625 C-1.8125 7.25 -1.8125 7.25 -4.1875 6.625 C-4.5175 4.975 -4.8475 3.325 -5.1875 1.625 C-2.1875 -0.375 -2.1875 -0.375 0 0 Z " fill="#AE73F3" transform="translate(16.1875,126.375)"/>
<path d="M0 0 C-0.0625 1.8125 -0.0625 1.8125 -1 4 C-5.7053118 6.67556946 -8.7585303 7.40624797 -14 6 C-11.72698066 3.45655714 -9.54913519 2.12383563 -6.4375 0.75 C-5.65246094 0.39421875 -4.86742188 0.0384375 -4.05859375 -0.328125 C-2 -1 -2 -1 0 0 Z " fill="#ECE9FA" transform="translate(103,95)"/>
<path d="M0 0 C2.625 0.375 2.625 0.375 5 1 C5.6875 2.8125 5.6875 2.8125 6 5 C4.8125 6.8125 4.8125 6.8125 3 8 C0.8125 7.6875 0.8125 7.6875 -1 7 C-1.625 4.625 -1.625 4.625 -2 2 C-1.34 1.34 -0.68 0.68 0 0 Z " fill="#898CF5" transform="translate(67,134)"/>
<path d="M0 0 C1.67542976 0.28604898 3.34385343 0.61781233 5 1 C5.6875 2.8125 5.6875 2.8125 6 5 C4.5625 6.75 4.5625 6.75 3 8 C0.525 7.01 0.525 7.01 -2 6 C-1.125 1.125 -1.125 1.125 0 0 Z " fill="#6DA7F9" transform="translate(136,111)"/>
<path d="M0 0 C1.67542976 0.28604898 3.34385343 0.61781233 5 1 C5.33 2.65 5.66 4.3 6 6 C4.35 6.66 2.7 7.32 1 8 C-0.5625 6.75 -0.5625 6.75 -2 5 C-1.74853421 2.86254078 -1.54074221 1.54074221 0 0 Z " fill="#F0F6FE" transform="translate(159,111)"/>
<path d="M0 0 C2 0.125 2 0.125 4 1 C5.25 3.0625 5.25 3.0625 6 5 C4.75 6.5625 4.75 6.5625 3 8 C0.8125 7.6875 0.8125 7.6875 -1 7 C-1.625 4.625 -1.625 4.625 -2 2 C-1.34 1.34 -0.68 0.68 0 0 Z " fill="#63A1F7" transform="translate(167,80)"/>
<path d="M0 0 C2.00720923 0.28674418 4.0085944 0.61866701 6 1 C6.125 3.375 6.125 3.375 6 6 C5.34 6.66 4.68 7.32 4 8 C0.46428571 7.46428571 0.46428571 7.46428571 -1 6 C-1.125 3.5 -1.125 3.5 -1 1 C-0.67 0.67 -0.34 0.34 0 0 Z " fill="#BA6CD9" transform="translate(51,65)"/>
<path d="M0 0 C2.625 0.375 2.625 0.375 5 1 C5.6875 2.8125 5.6875 2.8125 6 5 C4.5625 6.75 4.5625 6.75 3 8 C1.0625 7.25 1.0625 7.25 -1 6 C-1.875 4 -1.875 4 -2 2 C-1.34 1.34 -0.68 0.68 0 0 Z " fill="#BA6ADC" transform="translate(36,65)"/>
<path d="M0 0 C2.125 0.375 2.125 0.375 4 1 C4.625 3.375 4.625 3.375 5 6 C4.34 6.66 3.68 7.32 3 8 C0.375 7.625 0.375 7.625 -2 7 C-2.125 4.625 -2.125 4.625 -2 2 C-1.34 1.34 -0.68 0.68 0 0 Z " fill="#6C9CF7" transform="translate(106,126)"/>
<path d="M0 0 C0.125 2.375 0.125 2.375 0 5 C-0.66 5.66 -1.32 6.32 -2 7 C-5.53571429 6.46428571 -5.53571429 6.46428571 -7 5 C-7.04063832 3.33382885 -7.042721 1.66611905 -7 0 C-4.3333581 -1.33332095 -2.83319697 -0.67102033 0 0 Z " fill="#A874E3" transform="translate(80,89)"/>
<path d="M0 0 C2.5 0.125 2.5 0.125 3.5 1.125 C3.625 3.625 3.625 3.625 3.5 6.125 C2.5 7.125 2.5 7.125 0 7.25 C-2.5 7.125 -2.5 7.125 -3.5 6.125 C-3.625 3.625 -3.625 3.625 -3.5 1.125 C-2.5 0.125 -2.5 0.125 0 0 Z " fill="#5AA6FD" transform="translate(145.5,187.875)"/>
<path d="M0 0 C2.625 0.375 2.625 0.375 5 1 C5.625 2.875 5.625 2.875 6 5 C4 7 4 7 1.375 7.125 C0.59125 7.08375 -0.1925 7.0425 -1 7 C-1.625 4.625 -1.625 4.625 -2 2 C-1.34 1.34 -0.68 0.68 0 0 Z " fill="#5AA6FD" transform="translate(190,165)"/>
<path d="M0 0 C2.5 0.125 2.5 0.125 3.5 1.125 C3.625 3.625 3.625 3.625 3.5 6.125 C2.5 7.125 2.5 7.125 0 7.25 C-2.5 7.125 -2.5 7.125 -3.5 6.125 C-3.625 3.625 -3.625 3.625 -3.5 1.125 C-2.5 0.125 -2.5 0.125 0 0 Z " fill="#5BA5FD" transform="translate(145.5,141.875)"/>
<path d="M0 0 C2.5 0.125 2.5 0.125 3.5 1.125 C3.625 3.625 3.625 3.625 3.5 6.125 C2.5 7.125 2.5 7.125 0 7.25 C-2.5 7.125 -2.5 7.125 -3.5 6.125 C-3.625 3.625 -3.625 3.625 -3.5 1.125 C-2.5 0.125 -2.5 0.125 0 0 Z " fill="#659CFA" transform="translate(99.5,141.875)"/>
<path d="M0 0 C2.5 0.125 2.5 0.125 3.5 1.125 C3.625 3.625 3.625 3.625 3.5 6.125 C2.5 7.125 2.5 7.125 0 7.25 C-2.5 7.125 -2.5 7.125 -3.5 6.125 C-3.625 3.625 -3.625 3.625 -3.5 1.125 C-2.5 0.125 -2.5 0.125 0 0 Z " fill="#7592F4" transform="translate(99.5,118.875)"/>
<path d="M0 0 C0.78375 0.04125 1.5675 0.0825 2.375 0.125 C3 2.5 3 2.5 3.375 5.125 C2.715 5.785 2.055 6.445 1.375 7.125 C-1.25 6.75 -1.25 6.75 -3.625 6.125 C-4.25 4.25 -4.25 4.25 -4.625 2.125 C-2.625 0.125 -2.625 0.125 0 0 Z " fill="#8287F1" transform="translate(84.625,118.875)"/>
<path d="M0 0 C2.125 0.375 2.125 0.375 4 1 C4.625 3.375 4.625 3.375 5 6 C4.34 6.66 3.68 7.32 3 8 C0.375 7.625 0.375 7.625 -2 7 C-2.125 4.625 -2.125 4.625 -2 2 C-1.34 1.34 -0.68 0.68 0 0 Z " fill="#B069ED" transform="translate(6,103)"/>
<path d="M0 0 C3.69230769 0.69230769 3.69230769 0.69230769 5 2 C5.04063832 3.66617115 5.042721 5.33388095 5 7 C2.625 7.625 2.625 7.625 0 8 C-0.66 7.34 -1.32 6.68 -2 6 C-1.44444444 1.44444444 -1.44444444 1.44444444 0 0 Z " fill="#8788E3" transform="translate(121,80)"/>
<path d="M0 0 C2.5 0.125 2.5 0.125 3.5 1.125 C3.625 3.625 3.625 3.625 3.5 6.125 C2.5 7.125 2.5 7.125 0 7.25 C-2.5 7.125 -2.5 7.125 -3.5 6.125 C-3.625 3.625 -3.625 3.625 -3.5 1.125 C-2.5 0.125 -2.5 0.125 0 0 Z " fill="#B36BD6" transform="translate(76.5,72.875)"/>
<path d="M0 0 C2.375 -0.125 2.375 -0.125 5 0 C5.66 0.66 6.32 1.32 7 2 C6.625 4.125 6.625 4.125 6 6 C3.625 6.625 3.625 6.625 1 7 C0.34 6.34 -0.32 5.68 -1 5 C-0.625 2.375 -0.625 2.375 0 0 Z " fill="#B370C4" transform="translate(112,50)"/>
<path d="M0 0 C0.78375 0.04125 1.5675 0.0825 2.375 0.125 C3 2.5 3 2.5 3.375 5.125 C2.715 5.785 2.055 6.445 1.375 7.125 C-1.25 6.75 -1.25 6.75 -3.625 6.125 C-4.25 4.25 -4.25 4.25 -4.625 2.125 C-2.625 0.125 -2.625 0.125 0 0 Z " fill="#C566BC" transform="translate(84.625,49.875)"/>
<path d="M0 0 C2.625 0.375 2.625 0.375 5 1 C5.625 2.875 5.625 2.875 6 5 C5.34 5.66 4.68 6.32 4 7 C1.375 6.625 1.375 6.625 -1 6 C-1.625 4.125 -1.625 4.125 -2 2 C-1.34 1.34 -0.68 0.68 0 0 Z " fill="#6798F6" transform="translate(113,119)"/>
<path d="M0 0 C0.99 0.33 1.98 0.66 3 1 C2.45730469 1.45890625 1.91460937 1.9178125 1.35546875 2.390625 C0.64003906 3.00421875 -0.07539063 3.6178125 -0.8125 4.25 C-1.52019531 4.85328125 -2.22789062 5.4565625 -2.95703125 6.078125 C-4.91889671 7.92370398 -6.45669625 9.79945332 -8 12 C-7.55396127 6.94489444 -5.35299176 4.59833262 -2 1 C-1.34 0.67 -0.68 0.34 0 0 Z " fill="#AC79C3" transform="translate(150,5)"/>
<path d="M0 0 C0.99 0.33 1.98 0.66 3 1 C2.360625 1.61875 1.72125 2.2375 1.0625 2.875 C-1.74799713 7.13332898 -1.80559267 10.99401138 -2 16 C-2.33 16 -2.66 16 -3 16 C-3.08133791 14.08404032 -3.13934367 12.16708068 -3.1875 10.25 C-3.22230469 9.18265625 -3.25710937 8.1153125 -3.29296875 7.015625 C-2.97082786 3.69972145 -2.22851086 2.40983327 0 0 Z " fill="#9891DA" transform="translate(160,20)"/>
<path d="M0 0 C1.67542976 0.28604898 3.34385343 0.61781233 5 1 C5.33 2.65 5.66 4.3 6 6 C5.34 6 4.68 6 4 6 C4 4.68 4 3.36 4 2 C1.53199953 3.15173355 -0.04783565 4.04783565 -2 6 C-1.125 1.125 -1.125 1.125 0 0 Z " fill="#78A7FB" transform="translate(90,149)"/>
<path d="M0 0 C0.99 0.33 1.98 0.66 3 1 C2.67 2.32 2.34 3.64 2 5 C0.68 5 -0.64 5 -2 5 C-1.125 1.125 -1.125 1.125 0 0 Z " fill="#5C9DF9" transform="translate(138,112)"/>
</svg>
