<?xml version="1.0" encoding="UTF-8"?>
<svg version="1.1" xmlns="http://www.w3.org/2000/svg" width="200" height="201">
<path d="M0 0 C66 0 132 0 200 0 C200 66.33 200 132.66 200 201 C134 201 68 201 0 201 C0 134.67 0 68.34 0 0 Z " fill="#FCFBFE" transform="translate(0,0)"/>
<path d="M0 0 C3.7071837 -0.28323135 7.30402903 -0.4661091 11 0 C12.9375 2.5 12.9375 2.5 14 5 C15.32 5 16.64 5 18 5 C18.556875 3.7625 18.556875 3.7625 19.125 2.5 C21 0 21 0 23.33984375 -0.40234375 C25.96349203 -0.43622156 28.40888856 -0.42222228 31 0 C33 2 33 2 33.265625 4.09375 C33.26046875 4.8878125 33.2553125 5.681875 33.25 6.5 C33.25773437 7.69109375 33.25773437 7.69109375 33.265625 8.90625 C33 11 33 11 31 13 C28.6171875 13.4140625 28.6171875 13.4140625 25.875 13.625 C24.96492188 13.69976562 24.05484375 13.77453125 23.1171875 13.8515625 C22.06917969 13.92503906 22.06917969 13.92503906 21 14 C20.67 15.32 20.34 16.64 20 18 C21.4540625 18.680625 21.4540625 18.680625 22.9375 19.375 C25.3402687 20.92407911 25.91800813 21.67100116 26.62109375 24.4921875 C26.8523904 27.00442494 26.99037266 29.4776379 27 32 C27.804375 32.2475 28.60875 32.495 29.4375 32.75 C32 34 32 34 32.9375 36 C32.958125 36.66 32.97875 37.32 33 38 C30.50600835 40.49399165 29.38557427 40.32932088 25.9375 40.5625 C22.66160436 40.53981953 22.66160436 40.53981953 20 42 C19.90176063 43.66429051 19.87026369 45.33281931 19.875 47 C19.87242187 47.9075 19.86984375 48.815 19.8671875 49.75 C19.74826221 51.96966611 19.74826221 51.96966611 21 53 C23.84087552 53.28318854 26.68165215 53.44850213 29.53125 53.62109375 C30.3459375 53.74613281 31.160625 53.87117188 32 54 C33.17673198 56.35346396 33.16623866 57.8806033 33.1875 60.5 C33.20167969 61.2940625 33.21585937 62.088125 33.23046875 62.90625 C33 65 33 65 31 67 C29.0625 66.9375 29.0625 66.9375 27 66 C25.25 63.4375 25.25 63.4375 24 61 C22.04105639 61.11306697 22.04105639 61.11306697 20 62 C18.70339566 64.49034386 18.70339566 64.49034386 18 67 C13.125 66.125 13.125 66.125 12 65 C11.76298761 62.14122091 11.57780818 59.30116703 11.4375 56.4375 C11.37272461 55.22803711 11.37272461 55.22803711 11.30664062 53.99414062 C11.20024738 51.99631195 11.09959112 49.9981793 11 48 C9.35 47.34 7.7 46.68 6 46 C6 44.35 6 42.7 6 41 C6.763125 40.773125 7.52625 40.54625 8.3125 40.3125 C11.58810488 38.71278599 12.2170365 37.10080608 14 34 C16.1875 32.6875 16.1875 32.6875 18 32 C18 30.68 18 29.36 18 28 C17.195625 27.690625 16.39125 27.38125 15.5625 27.0625 C13 26 13 26 12 25 C11.76636119 23.15108054 11.58696365 21.29511969 11.4375 19.4375 C11.35371094 18.42558594 11.26992187 17.41367188 11.18359375 16.37109375 C11.12300781 15.58863281 11.06242187 14.80617188 11 14 C7.7 14 4.4 14 1 14 C0.67 15.32 0.34 16.64 0 18 C0.99 18.474375 1.98 18.94875 3 19.4375 C6 22 6 22 6.43359375 24.19921875 C6.44311798 30.11376404 6.44311798 30.11376404 5 33 C1.04 33 -2.92 33 -7 33 C-7.66 31.35 -8.32 29.7 -9 28 C-10.65 28.33 -12.3 28.66 -14 29 C-14.09087891 30.06541016 -14.09087891 30.06541016 -14.18359375 31.15234375 C-14.26738281 32.07144531 -14.35117188 32.99054688 -14.4375 33.9375 C-14.51871094 34.85402344 -14.59992188 35.77054688 -14.68359375 36.71484375 C-15 39 -15 39 -16 40 C-17.68183948 40.23287008 -19.3712416 40.41264166 -21.0625 40.5625 C-21.98160156 40.64628906 -22.90070313 40.73007813 -23.84765625 40.81640625 C-24.55792969 40.87699219 -25.26820313 40.93757813 -26 41 C-26.33 42.32 -26.66 43.64 -27 45 C-26.05125 45.5775 -25.1025 46.155 -24.125 46.75 C-21.23865902 48.82816551 -20.15904259 49.75468075 -19 53 C-17.68 53 -16.36 53 -15 53 C-15.02320313 52.22914063 -15.04640625 51.45828125 -15.0703125 50.6640625 C-15.08835938 49.66117188 -15.10640625 48.65828125 -15.125 47.625 C-15.14820313 46.62726563 -15.17140625 45.62953125 -15.1953125 44.6015625 C-15 42 -15 42 -13 40 C-11.0625 40.0625 -11.0625 40.0625 -9 41 C-8.62875 41.825 -8.2575 42.65 -7.875 43.5 C-6.27132177 46.21372543 -6.27132177 46.21372543 -3.66015625 46.48046875 C-1.86860988 46.61669824 -0.07336322 46.71160954 1.72265625 46.76171875 C4 47 4 47 6 49 C6.22705078 51.43017578 6.22705078 51.43017578 6.1953125 54.4453125 C6.18886719 55.52167969 6.18242187 56.59804687 6.17578125 57.70703125 C6.15902344 58.83496094 6.14226562 59.96289062 6.125 61.125 C6.11597656 62.26066406 6.10695312 63.39632812 6.09765625 64.56640625 C6.07403098 67.37781299 6.04109013 70.18880298 6 73 C7.98 73.66 9.96 74.32 12 75 C12 76.65 12 78.3 12 80 C11.236875 80.226875 10.47375 80.45375 9.6875 80.6875 C6.41189512 82.28721401 5.7829635 83.89919392 4 87 C2.66666667 87.66666667 1.33333333 88.33333333 0 89 C-1.75322937 91.53188648 -1.75322937 91.53188648 -3 94 C-4.8125 93.8125 -4.8125 93.8125 -7 93 C-7.37640625 92.17242187 -7.7528125 91.34484375 -8.140625 90.4921875 C-9.8616329 87.60068679 -9.8616329 87.60068679 -13.65234375 87.30078125 C-15.0805566 87.2782375 -16.50941195 87.28309443 -17.9375 87.3125 C-18.65357422 87.28478516 -19.36964844 87.25707031 -20.10742188 87.22851562 C-22.51400572 87.17196922 -22.51400572 87.17196922 -26 88 C-28.55834458 90.88342216 -28.55834458 90.88342216 -30 94 C-31.8125 93.8125 -31.8125 93.8125 -34 93 C-35.75 90.4375 -35.75 90.4375 -37 88 C-38.98 88.495 -38.98 88.495 -41 89 C-40.88693303 90.95894361 -40.88693303 90.95894361 -40 93 C-37.50965614 94.29660434 -37.50965614 94.29660434 -35 95 C-35.875 99.875 -35.875 99.875 -37 101 C-38.47648876 101.09823996 -39.95775417 101.12973519 -41.4375 101.125 C-42.24058594 101.12757813 -43.04367188 101.13015625 -43.87109375 101.1328125 C-46 101 -46 101 -48 100 C-48 89.44 -48 78.88 -48 68 C-45.525 67.505 -45.525 67.505 -43 67 C-41.18884044 68.81115956 -41.61800552 71.61278227 -41.4375 74.0625 C-41.35371094 75.16722656 -41.26992187 76.27195312 -41.18359375 77.41015625 C-41.12300781 78.26480469 -41.06242187 79.11945313 -41 80 C-39.18757948 80.02687279 -37.37504767 80.04633715 -35.5625 80.0625 C-34.55316406 80.07410156 -33.54382813 80.08570313 -32.50390625 80.09765625 C-30.05978933 80.28612676 -30.05978933 80.28612676 -29 79 C-28.90013025 76.15664952 -28.86122119 73.34302837 -28.875 70.5 C-28.87113281 69.70207031 -28.86726563 68.90414062 -28.86328125 68.08203125 C-28.4910039 64.2316068 -28.4910039 64.2316068 -30 61 C-32.54969386 60.79764334 -35.09692964 60.68084754 -37.65234375 60.57421875 C-40 60 -40 60 -41.31640625 57.95703125 C-41.54199219 57.31121094 -41.76757812 56.66539062 -42 56 C-41.01 55.4225 -40.02 54.845 -39 54.25 C-38.01 53.5075 -37.02 52.765 -36 52 C-36 50.68 -36 49.36 -36 48 C-39.63 48 -43.26 48 -47 48 C-47.99 50.475 -47.99 50.475 -49 53 C-51 53.9375 -51 53.9375 -53 54 C-55 52 -55 52 -55.265625 49.6875 C-55.26046875 48.800625 -55.2553125 47.91375 -55.25 47 C-55.25515625 46.113125 -55.2603125 45.22625 -55.265625 44.3125 C-55 42 -55 42 -53 40 C-50.10032243 39.69324768 -47.28216822 39.48826629 -44.375 39.375 C-43.57320312 39.33632812 -42.77140625 39.29765625 -41.9453125 39.2578125 C-39.96392444 39.16346069 -37.98199355 39.08063785 -36 39 C-35.690625 38.195625 -35.38125 37.39125 -35.0625 36.5625 C-34 34 -34 34 -33 33 C-31.15108054 32.76636119 -29.29511969 32.58696365 -27.4375 32.4375 C-26.42558594 32.35371094 -25.41367188 32.26992187 -24.37109375 32.18359375 C-23.58863281 32.12300781 -22.80617187 32.06242187 -22 32 C-22.30345066 30.02476185 -22.30345066 30.02476185 -23 28 C-23.845625 27.62875 -24.69125 27.2575 -25.5625 26.875 C-28 25 -28 25 -28.5390625 22.73046875 C-28.69241329 19.97419013 -28.63881462 17.68834484 -28 15 C-25.1875 12.6875 -25.1875 12.6875 -22 11 C-21.42765625 9.73542969 -21.42765625 9.73542969 -20.84375 8.4453125 C-19 6 -19 6 -17.17114258 5.50024414 C-14.87490186 5.28220272 -12.61892057 5.20452854 -10.3125 5.1875 C-9.11657227 5.14979492 -9.11657227 5.14979492 -7.89648438 5.11132812 C-5.9315198 5.05249685 -3.96570609 5.02337596 -2 5 C-1.34 3.35 -0.68 1.7 0 0 Z " fill="#5CA0F9" transform="translate(165,85)"/>
<path d="M0 0 C1.84271484 -0.0309375 1.84271484 -0.0309375 3.72265625 -0.0625 C5.50736328 -0.07023438 5.50736328 -0.07023438 7.328125 -0.078125 C8.41512695 -0.0874707 9.50212891 -0.09681641 10.62207031 -0.10644531 C15.53855528 0.45381601 18.76327652 2.15660372 22.0625 5.8125 C25.80087828 11.21237974 24.97236373 16.58838635 25 23 C25.020625 24.18078125 25.04125 25.3615625 25.0625 26.578125 C25.09566472 33.94069332 24.71325022 38.82374193 19.75 44.5625 C14.9842303 48.58361819 8.43172938 47.58361522 2.51806641 47.6550293 C0.5206027 47.6871685 -1.47614997 47.75648065 -3.47265625 47.82617188 C-14.32028454 47.95256268 -14.32028454 47.95256268 -18.546875 44.53515625 C-23.51060053 39.55603052 -23.52878676 33.86906251 -23.57226562 27.21679688 C-23.56904297 26.09337891 -23.56582031 24.96996094 -23.5625 23.8125 C-23.57861328 22.69294922 -23.59472656 21.57339844 -23.61132812 20.41992188 C-23.61745703 10.09272391 -23.61745703 10.09272391 -20.25 5.25 C-13.71563383 -0.64686703 -8.52168886 0.03532306 0 0 Z " fill="#FBFAFC" transform="translate(173.25,3.75)"/>
<path d="M0 0 C1.88138672 -0.0299707 1.88138672 -0.0299707 3.80078125 -0.06054688 C10.71898282 -0.05688645 15.66018849 -0.01502748 21.125 4.4375 C23.97164029 8.30573043 24.50889501 11.07510234 24.5234375 15.83984375 C24.52923828 17.66999023 24.52923828 17.66999023 24.53515625 19.53710938 C24.52355469 20.80361328 24.51195312 22.07011719 24.5 23.375 C24.51160156 24.63763672 24.52320313 25.90027344 24.53515625 27.20117188 C24.53128906 28.42255859 24.52742188 29.64394531 24.5234375 30.90234375 C24.52005371 32.012146 24.51666992 33.12194824 24.51318359 34.26538086 C23.96268109 38.76392112 22.50290166 42.18877662 19.125 45.25 C13.43614704 48.62775645 6.71571051 47.70175884 0.3125 47.75 C-0.95916016 47.77900391 -2.23082031 47.80800781 -3.54101562 47.83789062 C-14.02654928 47.90929552 -14.02654928 47.90929552 -17.57421875 45.79296875 C-23.98552773 39.22926873 -23.3610959 32.0610641 -23.3125 23.4375 C-23.33248047 22.179375 -23.35246094 20.92125 -23.37304688 19.625 C-23.36688063 7.98312963 -23.36688063 7.98312963 -18.875 3.4375 C-12.97757118 -0.81159907 -7.01340979 -0.03940118 0 0 Z " fill="#BD64D2" transform="translate(24.875,3.5625)"/>
<path d="M0 0 C1.75666992 -0.00483398 1.75666992 -0.00483398 3.54882812 -0.00976562 C15.46526043 0.06500948 15.46526043 0.06500948 20.6875 4.8125 C25.44457632 10.09814036 24.16030024 16.24896097 24.1875 23.0625 C24.208125 24.33867187 24.22875 25.61484375 24.25 26.9296875 C24.25773437 28.78207031 24.25773437 28.78207031 24.265625 30.671875 C24.2749707 31.80077148 24.28431641 32.92966797 24.29394531 34.09277344 C23.79162861 38.63013824 22.339232 42.04218038 18.9375 45.125 C13.24864704 48.50275645 6.52821051 47.57675884 0.125 47.625 C-1.14666016 47.65400391 -2.41832031 47.68300781 -3.72851562 47.71289062 C-14.21404928 47.78429552 -14.21404928 47.78429552 -17.76171875 45.66796875 C-24.17302773 39.10426873 -23.5485959 31.9360641 -23.5 23.3125 C-23.51998047 22.054375 -23.53996094 20.79625 -23.56054688 19.5 C-23.55510605 9.22771505 -23.55510605 9.22771505 -21.41015625 5.625 C-15.02362851 -0.66588922 -8.51243249 -0.11751011 0 0 Z " fill="#7E87FA" transform="translate(25.0625,151.6875)"/>
<path d="M0 0 C1.2065625 0.0309375 1.2065625 0.0309375 2.4375 0.0625 C3.65443876 2.49637753 3.75709896 4.48088846 4 7.1875 C4.12568359 8.55261719 4.12568359 8.55261719 4.25390625 9.9453125 C4.31449219 10.64398438 4.37507813 11.34265625 4.4375 12.0625 C5.48550781 12.15337891 5.48550781 12.15337891 6.5546875 12.24609375 C7.46476562 12.32988281 8.37484375 12.41367188 9.3125 12.5 C10.21742187 12.58121094 11.12234375 12.66242188 12.0546875 12.74609375 C14.4375 13.0625 14.4375 13.0625 16.4375 14.0625 C16.49808594 15.27808594 16.55867188 16.49367188 16.62109375 17.74609375 C16.70548332 19.33074228 16.7901321 20.91537702 16.875 22.5 C16.91431641 23.30244141 16.95363281 24.10488281 16.99414062 24.93164062 C16.8429296 28.81489561 16.8429296 28.81489561 18.4375 32.0625 C21.27457088 32.2735218 24.09647646 32.43857813 26.9375 32.5625 C35.30236486 32.92736486 35.30236486 32.92736486 36.4375 34.0625 C36.47813832 35.72867115 36.480221 37.39638095 36.4375 39.0625 C34.7875 39.7225 33.1375 40.3825 31.4375 41.0625 C31.62578772 43.50730079 31.62578772 43.50730079 32.4375 46.0625 C34.40508273 47.42270151 34.40508273 47.42270151 36.4375 48.0625 C36.1075 49.7125 35.7775 51.3625 35.4375 53.0625 C31.8075 53.0625 28.1775 53.0625 24.4375 53.0625 C23.7775 51.4125 23.1175 49.7625 22.4375 48.0625 C21.6125 47.7325 20.7875 47.4025 19.9375 47.0625 C19.1125 46.7325 18.2875 46.4025 17.4375 46.0625 C16.77083333 44.39583333 16.10416667 42.72916667 15.4375 41.0625 C12.94715614 39.76589566 12.94715614 39.76589566 10.4375 39.0625 C8.31824396 36.94324396 9.01918983 32.4428907 8.875 29.5 C8.83181641 28.69369141 8.78863281 27.88738281 8.74414062 27.05664062 C8.63774738 25.05881195 8.53709112 23.0606793 8.4375 21.0625 C7.1175 21.0625 5.7975 21.0625 4.4375 21.0625 C4.43492188 21.73796875 4.43234375 22.4134375 4.4296875 23.109375 C4.30976416 25.87560677 4.11789883 28.37513857 3.4375 31.0625 C2.426875 31.7225 1.41625 32.3825 0.375 33.0625 C-2.74180581 34.71374805 -2.74180581 34.71374805 -3.16796875 37.375 C-3.31671291 40.14083727 -3.26797268 42.38079937 -2.5625 45.0625 C-0.58174973 46.42426581 1.41829663 47.75843116 3.4375 49.0625 C4.10205454 52.12498882 4.05370712 54.99331455 3.4375 58.0625 C2.7775 58.7225 2.1175 59.3825 1.4375 60.0625 C-1.0625 60 -1.0625 60 -3.5625 59.0625 C-4.71875 56.50390625 -4.71875 56.50390625 -5.5625 54.0625 C-6.77808594 54.00191406 -7.99367188 53.94132812 -9.24609375 53.87890625 C-10.83074228 53.79451668 -12.41537702 53.7098679 -14 53.625 C-14.80244141 53.58568359 -15.60488281 53.54636719 -16.43164062 53.50585938 C-22.44921875 53.17578125 -22.44921875 53.17578125 -23.5625 52.0625 C-23.63476502 50.20962498 -23.6463122 48.35416122 -23.625 46.5 C-23.61597656 45.48808594 -23.60695312 44.47617188 -23.59765625 43.43359375 C-23.58605469 42.65113281 -23.57445312 41.86867187 -23.5625 41.0625 C-21.0875 40.5675 -21.0875 40.5675 -18.5625 40.0625 C-17.5725 42.0425 -16.5825 44.0225 -15.5625 46.0625 C-13.5825 45.5675 -13.5825 45.5675 -11.5625 45.0625 C-11.5625 43.7425 -11.5625 42.4225 -11.5625 41.0625 C-12.366875 40.815 -13.17125 40.5675 -14 40.3125 C-16.5625 39.0625 -16.5625 39.0625 -17.5 37.0625 C-17.520625 36.4025 -17.54125 35.7425 -17.5625 35.0625 C-15.4239515 32.9239515 -14.42974686 32.63594937 -11.5625 32.0625 C-11.8925 30.4125 -12.2225 28.7625 -12.5625 27.0625 C-13.8825 26.7325 -15.2025 26.4025 -16.5625 26.0625 C-16.8925 24.7425 -17.2225 23.4225 -17.5625 22.0625 C-16.634375 21.505625 -15.70625 20.94875 -14.75 20.375 C-11.55501121 18.05706695 -10.48967086 16.39124967 -8.5625 13.0625 C-7.55123047 12.65064453 -7.55123047 12.65064453 -6.51953125 12.23046875 C-5.87371094 11.84503906 -5.22789063 11.45960937 -4.5625 11.0625 C-3.89747832 8.67740349 -3.89747832 8.67740349 -3.875 6 C-3.57809106 0.08727051 -3.57809106 0.08727051 0 0 Z " fill="#8683EF" transform="translate(59.5625,91.9375)"/>
<path d="M0 0 C2.475 0.495 2.475 0.495 5 1 C5.33 2.32 5.66 3.64 6 5 C7.65 5 9.3 5 11 5 C11.66 3.35 12.32 1.7 13 0 C18.94 0 24.88 0 31 0 C31.495 2.475 31.495 2.475 32 5 C29.48700493 7.51299507 28.52621273 7.21586191 25.0625 7.3125 C22.38903213 7.46334494 22.38903213 7.46334494 20 8 C18.04664818 10.33790071 18.04664818 10.33790071 17 13 C14.9296875 14.16015625 14.9296875 14.16015625 13 15 C12.64957815 18.40038985 12.4587594 21.6145931 13 25 C15.80996083 27.71036916 15.80996083 27.71036916 19 29 C18.8125 30.875 18.8125 30.875 18 33 C15.4375 34.25 15.4375 34.25 13 35 C12.95101563 35.69867188 12.90203125 36.39734375 12.8515625 37.1171875 C12.77679687 38.02726562 12.70203125 38.93734375 12.625 39.875 C12.55539063 40.77992187 12.48578125 41.68484375 12.4140625 42.6171875 C12 45 12 45 10 47 C7.10032243 47.30675232 4.28216822 47.51173371 1.375 47.625 C0.57320312 47.66367188 -0.22859375 47.70234375 -1.0546875 47.7421875 C-3.03607556 47.83653931 -5.01800645 47.91936215 -7 48 C-7.99 49.98 -8.98 51.96 -10 54 C-13.875 53.125 -13.875 53.125 -15 52 C-15.1245486 50.35769636 -15.17568524 48.70947724 -15.1875 47.0625 C-15.20167969 46.16660156 -15.21585938 45.27070312 -15.23046875 44.34765625 C-15 42 -15 42 -13 40 C-10.6171875 39.5859375 -10.6171875 39.5859375 -7.875 39.375 C-6.96492187 39.30023438 -6.05484375 39.22546875 -5.1171875 39.1484375 C-4.41851562 39.09945312 -3.71984375 39.05046875 -3 39 C-2.99742188 38.32453125 -2.99484375 37.6490625 -2.9921875 36.953125 C-2.68008525 29.75396637 -2.68008525 29.75396637 -0.59765625 27.4453125 C1.0625 26.375 1.0625 26.375 4 25 C3.87822312 23.08533633 3.87822312 23.08533633 3 21 C1.34467377 19.98133771 -0.32260138 18.98189187 -2 18 C-3.3125 15.8125 -3.3125 15.8125 -4 14 C-5.32 14 -6.64 14 -8 14 C-8.33 15.65 -8.66 17.3 -9 19 C-10.65614657 19.38218767 -12.32457024 19.71395102 -14 20 C-15 19 -15 19 -15.1328125 16.53125 C-15.13023438 15.5309375 -15.12765625 14.530625 -15.125 13.5 C-15.12757812 12.4996875 -15.13015625 11.499375 -15.1328125 10.46875 C-15 8 -15 8 -14 7 C-12.39655422 6.92114201 -10.79212544 6.86183695 -9.1875 6.8125 C-5.4651559 6.56245674 -5.4651559 6.56245674 -2.44921875 4.6015625 C-1.22177195 2.78232318 -1.22177195 2.78232318 0 0 Z " fill="#AE68EC" transform="translate(17,58)"/>
<path d="M0 0 C1.84271484 -0.0309375 1.84271484 -0.0309375 3.72265625 -0.0625 C5.50736328 -0.07023438 5.50736328 -0.07023438 7.328125 -0.078125 C8.41512695 -0.0874707 9.50212891 -0.09681641 10.62207031 -0.10644531 C15.53855528 0.45381601 18.76327652 2.15660372 22.0625 5.8125 C25.80087828 11.21237974 24.97236373 16.58838635 25 23 C25.020625 24.18078125 25.04125 25.3615625 25.0625 26.578125 C25.09566472 33.94069332 24.71325022 38.82374193 19.75 44.5625 C14.9842303 48.58361819 8.43172938 47.58361522 2.51806641 47.6550293 C0.5206027 47.6871685 -1.47614997 47.75648065 -3.47265625 47.82617188 C-14.32028454 47.95256268 -14.32028454 47.95256268 -18.546875 44.53515625 C-23.51060053 39.55603052 -23.52878676 33.86906251 -23.57226562 27.21679688 C-23.56904297 26.09337891 -23.56582031 24.96996094 -23.5625 23.8125 C-23.57861328 22.69294922 -23.59472656 21.57339844 -23.61132812 20.41992188 C-23.61745703 10.09272391 -23.61745703 10.09272391 -20.25 5.25 C-13.71563383 -0.64686703 -8.52168886 0.03532306 0 0 Z M-15.25 12.25 C-16.9982484 15.7464968 -16.47708836 19.71048055 -16.5 23.5625 C-16.520625 24.41779297 -16.54125 25.27308594 -16.5625 26.15429688 C-16.59253172 31.00066611 -16.47290385 34.35691287 -13.25 38.25 C-8.80284623 41.21476918 -4.60765015 40.61826557 0.625 40.625 C1.61886719 40.64949219 2.61273438 40.67398438 3.63671875 40.69921875 C8.13155172 40.71727029 10.94661366 40.72081244 14.8828125 38.4140625 C18.68394269 34.00856852 18.00362567 28.8934876 18.0625 23.375 C18.09150391 22.47652344 18.12050781 21.57804687 18.15039062 20.65234375 C18.19185146 16.33403791 18.16735071 13.92636631 15.85546875 10.1796875 C11.44731357 6.13956012 6.65590273 6.95528389 0.9375 6.875 C-0.06087891 6.83761719 -1.05925781 6.80023437 -2.08789062 6.76171875 C-8.21949551 6.68818851 -11.43981828 6.93012364 -15.25 12.25 Z " fill="#A07BC7" transform="translate(173.25,3.75)"/>
<path d="M0 0 C1.39895508 -0.01643555 1.39895508 -0.01643555 2.82617188 -0.03320312 C7.19196219 0.01347318 9.7532028 0.13946419 13.52734375 2.47265625 C17.46882438 6.78491011 16.69386803 11.28799747 16.75 16.875 C16.77900391 17.82568359 16.80800781 18.77636719 16.83789062 19.75585938 C16.87826288 24.19991318 16.8986984 26.80651499 14.54296875 30.66796875 C10.11789407 34.64971498 5.32808825 33.89445465 -0.375 34 C-1.37337891 34.04576172 -2.37175781 34.09152344 -3.40039062 34.13867188 C-8.24106328 34.21284607 -10.74714657 34.16594227 -14.71875 31.2265625 C-17.62874542 26.757523 -17.32826455 21.65525205 -17.25 16.5 C-17.27771484 15.51966797 -17.30542969 14.53933594 -17.33398438 13.52929688 C-17.31772614 8.73962099 -17.12661049 6.30786566 -14.1796875 2.4140625 C-9.84574897 -0.440277 -5.01401304 -0.12874287 0 0 Z " fill="#FDFAFD" transform="translate(25.5625,10.4375)"/>
<path d="M0 0 C0.90298828 -0.020625 1.80597656 -0.04125 2.73632812 -0.0625 C7.68228265 -0.09157247 11.23150495 -0.07645556 15.1875 3.25 C18.08490017 7.59610025 17.55559044 11.51192431 17.5625 16.625 C17.58699219 17.57117188 17.61148438 18.51734375 17.63671875 19.4921875 C17.65536268 23.91701299 17.63933996 26.5118088 15.2890625 30.3515625 C10.86532144 34.34773007 6.08159053 33.54488195 0.375 33.625 C-1.12256836 33.68107422 -1.12256836 33.68107422 -2.65039062 33.73828125 C-7.17015467 33.79248228 -10.01541669 33.71250513 -13.9765625 31.4140625 C-16.69736558 26.72501889 -16.50397691 22.57639763 -16.375 17.25 C-16.38595703 16.26515625 -16.39691406 15.2803125 -16.40820312 14.265625 C-16.36266334 9.77236611 -16.28109288 7.01661413 -13.90234375 3.125 C-9.65618154 -0.68464087 -5.46128535 0.03078949 0 0 Z " fill="#FCFCFE" transform="translate(24.8125,158.75)"/>
<path d="M0 0 C4.87376303 2.44226094 7.8379944 6.40007188 9.89453125 11.38671875 C11.06646156 16.69124544 9.68981175 20.96457015 7.1015625 25.62890625 C5.37683358 28.1406474 3.43771455 29.73364961 0.89453125 31.38671875 C0.29640625 31.79921875 -0.30171875 32.21171875 -0.91796875 32.63671875 C-5.61352557 34.24662395 -9.75399715 33.89020817 -14.29296875 32.19921875 C-18.68710856 29.36743976 -22.12170846 26.27589786 -24.10546875 21.38671875 C-24.7862071 16.14661655 -24.76280133 11.72572955 -22.41796875 6.94921875 C-16.0074794 -0.15429647 -9.50098177 -2.76744738 0 0 Z " fill="#9080E0" transform="translate(107.10546875,85.61328125)"/>
<path d="M0 0 C1.56125851 0.00399299 3.12251789 0.01875614 4.68359375 0.04296875 C5.47701172 0.04361328 6.27042969 0.04425781 7.08789062 0.04492188 C12.98083853 0.09021353 12.98083853 0.09021353 14.12109375 1.23046875 C14.54369556 4.93729033 14.6281317 8.53076326 14.12109375 12.23046875 C11.80859375 14.10546875 11.80859375 14.10546875 9.12109375 15.23046875 C8.1092148 16.88995023 7.10843915 18.55627437 6.12109375 20.23046875 C5.10595703 20.64619141 5.10595703 20.64619141 4.0703125 21.0703125 C3.42707031 21.45316406 2.78382812 21.83601563 2.12109375 22.23046875 C1.49294085 24.58386553 1.49294085 24.58386553 1.49609375 27.23046875 C1.31444722 32.03711528 1.31444722 32.03711528 -0.87890625 34.23046875 C-3.77858382 34.53722107 -6.59673803 34.74220246 -9.50390625 34.85546875 C-10.30570313 34.89414062 -11.1075 34.9328125 -11.93359375 34.97265625 C-13.91498181 35.06700806 -15.8969127 35.1498309 -17.87890625 35.23046875 C-17.92789063 36.43445312 -17.976875 37.6384375 -18.02734375 38.87890625 C-18.10236968 40.45445073 -18.17791758 42.02997041 -18.25390625 43.60546875 C-18.28484375 44.39953125 -18.31578125 45.19359375 -18.34765625 46.01171875 C-18.65234375 52.00390625 -18.65234375 52.00390625 -20.87890625 54.23046875 C-24.41462054 53.69475446 -24.41462054 53.69475446 -25.87890625 52.23046875 C-25.97837078 50.46187682 -26.00970842 48.68935424 -26.01171875 46.91796875 C-26.01300781 45.84289063 -26.01429687 44.7678125 -26.015625 43.66015625 C-26.00982422 41.96246094 -26.00982422 41.96246094 -26.00390625 40.23046875 C-26.00777344 39.09867188 -26.01164062 37.966875 -26.015625 36.80078125 C-26.01433594 35.72570313 -26.01304688 34.650625 -26.01171875 33.54296875 C-26.01059082 32.54910156 -26.00946289 31.55523437 -26.00830078 30.53125 C-25.87890625 28.23046875 -25.87890625 28.23046875 -24.87890625 27.23046875 C-23.02998679 26.99682994 -21.17402594 26.8174324 -19.31640625 26.66796875 C-18.30449219 26.58417969 -17.29257813 26.50039063 -16.25 26.4140625 C-15.46753906 26.35347656 -14.68507813 26.29289062 -13.87890625 26.23046875 C-13.46125 25.02390625 -13.46125 25.02390625 -13.03515625 23.79296875 C-11.53201687 20.46168688 -10.15900174 20.54250695 -6.87890625 19.23046875 C-6.54890625 18.40546875 -6.21890625 17.58046875 -5.87890625 16.73046875 C-4.87890625 14.23046875 -4.87890625 14.23046875 -2.25390625 12.91796875 C-1.07828125 12.57765625 -1.07828125 12.57765625 0.12109375 12.23046875 C0.12109375 10.91046875 0.12109375 9.59046875 0.12109375 8.23046875 C-0.68328125 7.98296875 -1.48765625 7.73546875 -2.31640625 7.48046875 C-4.87890625 6.23046875 -4.87890625 6.23046875 -5.81640625 4.23046875 C-5.83703125 3.57046875 -5.85765625 2.91046875 -5.87890625 2.23046875 C-3.87890625 0.23046875 -3.87890625 0.23046875 0 0 Z " fill="#CE61B0" transform="translate(108.87890625,3.76953125)"/>
<path d="M0 0 C2.5 0.125 2.5 0.125 3.5 1.125 C3.57226502 2.97787502 3.5838122 4.83333878 3.5625 6.6875 C3.55347656 7.69941406 3.54445312 8.71132813 3.53515625 9.75390625 C3.52355469 10.53636719 3.51195312 11.31882812 3.5 12.125 C5.48 12.785 7.46 13.445 9.5 14.125 C9.50386719 15.13820313 9.50386719 15.13820313 9.5078125 16.171875 C9.55071705 21.33041043 9.55071705 21.33041043 11.90234375 25.6796875 C13.71866453 26.90334208 13.71866453 26.90334208 16.5 28.125 C16.3125 30.5 16.3125 30.5 15.5 33.125 C13.83927151 33.80632451 12.172233 34.47242127 10.5 35.125 C9.13921965 37.64872901 9.13921965 37.64872901 8.5 40.125 C5.10110872 40.47526742 1.88557045 40.6544968 -1.5 40.125 C-3.8125 37.3125 -3.8125 37.3125 -5.5 34.125 C-6.86125 33.50625 -6.86125 33.50625 -8.25 32.875 C-10.5 31.125 -10.5 31.125 -10.81640625 28.72265625 C-10.81282904 26.17210482 -10.71452793 23.66596413 -10.5 21.125 C-8.52 20.135 -6.54 19.145 -4.5 18.125 C-4.43941406 16.90941406 -4.37882813 15.69382812 -4.31640625 14.44140625 C-4.23201668 12.85675772 -4.1473679 11.27212298 -4.0625 9.6875 C-4.02318359 8.88505859 -3.98386719 8.08261719 -3.94335938 7.25585938 C-3.55510895 0.17775545 -3.55510895 0.17775545 0 0 Z " fill="#9E7ACD" transform="translate(140.5,44.875)"/>
<path d="M0 0 C2.62187494 1.04874998 3.79371361 1.64931313 5.25 4.125 C5.4975 4.74375 5.745 5.3625 6 6 C7.91466367 5.87822312 7.91466367 5.87822312 10 5 C11.77148372 2.52066803 11.77148372 2.52066803 13 0 C16.875 0.875 16.875 0.875 18 2 C18.09986975 4.84335048 18.13877881 7.65697163 18.125 10.5 C18.13080078 11.69689453 18.13080078 11.69689453 18.13671875 12.91796875 C18.12660767 18.87339233 18.12660767 18.87339233 17 20 C14.625 20.375 14.625 20.375 12 20 C10.1875 17.5 10.1875 17.5 9 15 C7.68 15.33 6.36 15.66 5 16 C5.11306697 17.95894361 5.11306697 17.95894361 6 20 C8.49034386 21.29660434 8.49034386 21.29660434 11 22 C10.8125 24.375 10.8125 24.375 10 27 C8.33927151 27.68132451 6.672233 28.34742127 5 29 C4.01 31.475 4.01 31.475 3 34 C-0.63 34 -4.26 34 -8 34 C-8.33 32.35 -8.66 30.7 -9 29 C-8.18740723 28.61787354 -7.37481445 28.23574707 -6.53759766 27.84204102 C-3.77496144 26.25464049 -3.77496144 26.25464049 -3.38818359 23.48803711 C-3.39156738 22.5110083 -3.39495117 21.53397949 -3.3984375 20.52734375 C-3.38296875 19.46322266 -3.3675 18.39910156 -3.3515625 17.30273438 C-3.35929687 16.19220703 -3.36703125 15.08167969 -3.375 13.9375 C-3.375 11.7382427 -3.36260937 9.53893931 -3.3359375 7.33984375 C-3.34157715 6.36394287 -3.3472168 5.38804199 -3.35302734 4.38256836 C-3.23652832 3.5963208 -3.1200293 2.81007324 -3 2 C-2.01 1.34 -1.02 0.68 0 0 Z " fill="#C26ABD" transform="translate(99,44)"/>
<path d="M0 0 C1.81242052 -0.02687279 3.62495233 -0.04633715 5.4375 -0.0625 C6.44683594 -0.07410156 7.45617187 -0.08570312 8.49609375 -0.09765625 C11 0 11 0 12 1 C12.23427778 3.01594582 12.41336124 5.038474 12.5625 7.0625 C12.64628906 8.16722656 12.73007812 9.27195312 12.81640625 10.41015625 C12.87699219 11.26480469 12.93757813 12.11945313 13 13 C13.78246094 12.98839844 14.56492187 12.97679688 15.37109375 12.96484375 C16.38300781 12.95582031 17.39492188 12.94679688 18.4375 12.9375 C19.44683594 12.92589844 20.45617187 12.91429688 21.49609375 12.90234375 C24 13 24 13 25 14 C25.04063832 15.66617115 25.042721 17.33388095 25 19 C24.21625 19.226875 23.4325 19.45375 22.625 19.6875 C19.7802755 20.74653828 19.7802755 20.74653828 19 23.5 C18.67 24.325 18.34 25.15 18 26 C16.33333333 26.66666667 14.66666667 27.33333333 13 28 C11.63921965 30.52372901 11.63921965 30.52372901 11 33 C9.35 33 7.7 33 6 33 C5.773125 32.21625 5.54625 31.4325 5.3125 30.625 C4.21875 27.78125 4.21875 27.78125 1.375 26.6875 C0.59125 26.460625 -0.1925 26.23375 -1 26 C-1 24.35 -1 22.7 -1 21 C0.98 20.34 2.96 19.68 5 19 C4.93037367 15.27182653 4.76562117 11.65557149 4 8 C1.64452575 5.71204241 1.64452575 5.71204241 -1 5 C-0.67 3.35 -0.34 1.7 0 0 Z " fill="#9F70F3" transform="translate(10,112)"/>
<path d="M0 0 C1.81242052 -0.02687279 3.62495233 -0.04633715 5.4375 -0.0625 C6.44683594 -0.07410156 7.45617187 -0.08570313 8.49609375 -0.09765625 C11 0 11 0 12 1 C12.23427778 3.01594582 12.41336124 5.038474 12.5625 7.0625 C12.64628906 8.16722656 12.73007813 9.27195313 12.81640625 10.41015625 C12.87699219 11.26480469 12.93757813 12.11945313 13 13 C15.46355363 12.69913961 15.46355363 12.69913961 18 12 C19.37466625 9.52363988 19.37466625 9.52363988 20 7 C21.65 7 23.3 7 25 7 C25.66 8.65 26.32 10.3 27 12 C28.80597656 12.07347656 28.80597656 12.07347656 30.6484375 12.1484375 C32.22398198 12.22346343 33.79950166 12.29901133 35.375 12.375 C36.1690625 12.4059375 36.963125 12.436875 37.78125 12.46875 C43.7734375 12.7734375 43.7734375 12.7734375 46 15 C45.625 17.625 45.625 17.625 45 20 C39.60653012 20.02464849 34.21309275 20.04283531 28.81958008 20.05493164 C26.98331125 20.05997231 25.14704646 20.06680477 23.31079102 20.07543945 C20.67723599 20.08751672 18.04373384 20.09323081 15.41015625 20.09765625 C14.17109276 20.10539818 14.17109276 20.10539818 12.90699768 20.11329651 C10.93763632 20.11349205 8.96838386 20.06204152 7 20 C5.38109255 18.38109255 5.88106702 16.4175608 5.8125 14.1875 C5.56245674 10.4651559 5.56245674 10.4651559 3.6015625 7.44921875 C1.78232318 6.22177195 1.78232318 6.22177195 -1 5 C-0.67 3.35 -0.34 1.7 0 0 Z " fill="#5AA2FD" transform="translate(57,179)"/>
<path d="M0 0 C1.81242052 -0.02687279 3.62495233 -0.04633715 5.4375 -0.0625 C6.44683594 -0.07410156 7.45617187 -0.08570313 8.49609375 -0.09765625 C11 0 11 0 12 1 C12.32237212 3.57897694 12.51267304 6.15931821 12.71875 8.75 C12.76200665 10.96665352 12.76200665 10.96665352 14 12 C16.54756104 12.28306234 19.09510022 12.44815786 21.65234375 12.62109375 C24 13 24 13 26 15 C25.9375 16.9375 25.9375 16.9375 25 19 C23.75863281 19.53753906 23.75863281 19.53753906 22.4921875 20.0859375 C19.88723153 21.68789042 19.88723153 21.68789042 19.49731445 23.83325195 C19.28208803 26.1277148 19.20451363 28.38309798 19.1875 30.6875 C19.16236328 31.48478516 19.13722656 32.28207031 19.11132812 33.10351562 C19.05249685 35.0684802 19.02337596 37.03429391 19 39 C16.525 39.495 16.525 39.495 14 40 C13.4225 39.05125 12.845 38.1025 12.25 37.125 C10.17183449 34.23865902 9.24531925 33.15904259 6 32 C6.25 29.625 6.25 29.625 7 27 C9.0625 25.6875 9.0625 25.6875 11 25 C11 23.68 11 22.36 11 21 C8.525 20.01 8.525 20.01 6 19 C5.67 15.04 5.34 11.08 5 7 C3.02 6.34 1.04 5.68 -1 5 C-0.67 3.35 -0.34 1.7 0 0 Z " fill="#C761BC" transform="translate(57,11)"/>
<path d="M0 0 C0.73734375 0.00773438 1.4746875 0.01546875 2.234375 0.0234375 C3.34039062 0.01183594 3.34039062 0.01183594 4.46875 0 C9.9810554 0.0201179 9.9810554 0.0201179 12.234375 2.2734375 C12.43294472 5.14685811 12.51266446 7.90205738 12.484375 10.7734375 C12.49210937 11.55847656 12.49984375 12.34351563 12.5078125 13.15234375 C12.48768287 19.02012963 12.48768287 19.02012963 10.234375 21.2734375 C7.52514699 21.47195852 4.94134321 21.55183227 2.234375 21.5234375 C1.49703125 21.53117187 0.7596875 21.53890625 0 21.546875 C-5.5123054 21.5267571 -5.5123054 21.5267571 -7.765625 19.2734375 C-7.96419472 16.40001689 -8.04391446 13.64481762 -8.015625 10.7734375 C-8.02335938 9.98839844 -8.03109375 9.20335937 -8.0390625 8.39453125 C-8.0151446 1.42246485 -7.04758398 0.02572111 0 0 Z " fill="#F7FBFE" transform="translate(151.765625,144.7265625)"/>
<path d="M0 0 C1.1240625 -0.0103125 2.248125 -0.020625 3.40625 -0.03125 C6.5 0.5 6.5 0.5 8.87109375 2.19140625 C11.78585864 6.32240397 11.28694529 10.66386348 10.5 15.5 C8.6875 18.6875 8.6875 18.6875 5.5 20.5 C0.20179065 21.44525774 -3.96760113 21.37136407 -8.6875 18.6875 C-11.27930508 14.12949796 -11.60801564 9.62743787 -10.5 4.5 C-7.53296845 0.29492651 -5.00220094 -0.04589175 0 0 Z " fill="#7E88FB" transform="translate(25.5,165.5)"/>
<path d="M0 0 C1.2375 0.00128906 2.475 0.00257812 3.75 0.00390625 C7 0.4375 7 0.4375 8.91015625 1.52734375 C10.59318634 4.47717069 10.43399515 7.07284053 10.4375 10.4375 C10.46650391 12.29375 10.46650391 12.29375 10.49609375 14.1875 C10 17.4375 10 17.4375 8.3125 19.34375 C3.98788017 21.3891783 -0.34181285 21.13347175 -5 20.4375 C-8.1875 18.625 -8.1875 18.625 -10 15.4375 C-10.69597175 10.77931285 -10.9516783 6.44961983 -8.90625 2.125 C-6.04686707 -0.40625702 -3.75080398 -0.05860631 0 0 Z " fill="#BD64D2" transform="translate(25,17.5625)"/>
<path d="M0 0 C1.85625 -0.01160156 1.85625 -0.01160156 3.75 -0.0234375 C7 0.375 7 0.375 8.90625 1.49609375 C10.52818029 4.28233828 10.47092104 6.610179 10.5 9.8125 C10.5309375 10.94558594 10.561875 12.07867187 10.59375 13.24609375 C10 16.375 10 16.375 7.78125 18.75 C3.47419481 21.26648168 -0.15687074 21.24041162 -5 20.375 C-8.125 18.625 -8.125 18.625 -10 15.375 C-11.33925222 5.6325966 -11.33925222 5.6325966 -8.90625 1.53125 C-5.96997353 -0.24977016 -3.39661422 -0.02122884 0 0 Z " fill="#A079C5" transform="translate(174,17.625)"/>
<path d="M0 0 C2.375 0.25 2.375 0.25 5 1 C5.28101563 1.66257813 5.56203125 2.32515625 5.8515625 3.0078125 C6.23054688 3.66523438 6.60953125 4.32265625 7 5 C9.35339678 5.6281529 9.35339678 5.6281529 12 5.625 C16.80664653 5.80664653 16.80664653 5.80664653 19 8 C18.67 9.65 18.34 11.3 18 13 C3.15 13 -11.7 13 -27 13 C-27.33 11.35 -27.66 9.7 -28 8 C-25.39911378 5.39911378 -24.17862887 5.70037775 -20.5546875 5.5859375 C-19.47832031 5.54726562 -18.40195313 5.50859375 -17.29296875 5.46875 C-16.16503906 5.4378125 -15.03710938 5.406875 -13.875 5.375 C-12.73933594 5.33632812 -11.60367188 5.29765625 -10.43359375 5.2578125 C-7.62256044 5.16332399 -4.81153767 5.07776459 -2 5 C-1.34 3.35 -0.68 1.7 0 0 Z " fill="#5AA6FD" transform="translate(138,186)"/>
<path d="M0 0 C1.51400391 0.01740234 1.51400391 0.01740234 3.05859375 0.03515625 C4.07050781 0.04417969 5.08242187 0.05320313 6.125 0.0625 C7.29869141 0.07990234 7.29869141 0.07990234 8.49609375 0.09765625 C8.78484375 1.06703125 9.07359375 2.03640625 9.37109375 3.03515625 C11.12099408 6.28744089 11.12099408 6.28744089 13.8515625 6.6484375 C15.63767443 6.77988297 17.42808584 6.8629777 19.21875 6.89453125 C21.49609375 7.09765625 21.49609375 7.09765625 23.49609375 9.09765625 C23.43359375 11.09765625 23.43359375 11.09765625 22.49609375 13.09765625 C21.69171875 13.40703125 20.88734375 13.71640625 20.05859375 14.03515625 C17.25292895 14.85615322 17.25292895 14.85615322 16.3359375 17.6640625 C16.05878906 18.46714844 15.78164062 19.27023438 15.49609375 20.09765625 C11.7695625 20.44460916 8.20939664 20.63503728 4.49609375 20.09765625 C2.05859375 17.22265625 2.05859375 17.22265625 0.49609375 14.09765625 C-1.53007046 12.88866609 -1.53007046 12.88866609 -3.50390625 12.09765625 C-3.53077904 10.28523573 -3.5502434 8.47270392 -3.56640625 6.66015625 C-3.57800781 5.65082031 -3.58960938 4.64148438 -3.6015625 3.6015625 C-3.46988459 0.22534083 -3.37622167 0.13167791 0 0 Z " fill="#55A4FD" transform="translate(174.50390625,178.90234375)"/>
<path d="M0 0 C3.53571429 0.53571429 3.53571429 0.53571429 5 2 C5.25208722 5.80588144 5.18522344 9.62425456 5.1875 13.4375 C5.19974609 14.51322266 5.21199219 15.58894531 5.22460938 16.69726562 C5.22750977 18.23737305 5.22750977 18.23737305 5.23046875 19.80859375 C5.23457764 20.75532959 5.23868652 21.70206543 5.24291992 22.67749023 C5 25 5 25 3 27 C1.0625 26.9375 1.0625 26.9375 -1 26 C-1.37125 25.175 -1.7425 24.35 -2.125 23.5 C-3.7245408 20.7731908 -3.7245408 20.7731908 -6.33984375 20.58984375 C-8.13206694 20.48956153 -9.92763158 20.43622962 -11.72265625 20.43359375 C-14 20 -14 20 -15.37109375 18.09765625 C-16 16 -16 16 -15 14 C-12.53125 13.62109375 -12.53125 13.62109375 -9.5 13.4375 C-5.93669646 13.50678967 -5.93669646 13.50678967 -3 12 C-2.71693766 9.45243896 -2.55184214 6.90489978 -2.37890625 4.34765625 C-2 2 -2 2 0 0 Z " fill="#CB64AD" transform="translate(139,4)"/>
<path d="M0 0 C2.625 0.375 2.625 0.375 5 1 C5.05380578 3.79192205 5.09357669 6.5828141 5.125 9.375 C5.15013672 10.56609375 5.15013672 10.56609375 5.17578125 11.78125 C5.19335473 13.85492015 5.10335168 15.92883241 5 18 C3 20 3 20 -0.87890625 20.23046875 C-2.44016476 20.22647576 -4.00142414 20.21171261 -5.5625 20.1875 C-6.35591797 20.18685547 -7.14933594 20.18621094 -7.96679688 20.18554688 C-13.85974478 20.14025522 -13.85974478 20.14025522 -15 19 C-15.07226502 17.14712498 -15.0838122 15.29166122 -15.0625 13.4375 C-15.05347656 12.42558594 -15.04445312 11.41367188 -15.03515625 10.37109375 C-15.02355469 9.58863281 -15.01195312 8.80617188 -15 8 C-13.35 7.67 -11.7 7.34 -10 7 C-9.5875 7.825 -9.175 8.65 -8.75 9.5 C-8.1725 10.325 -7.595 11.15 -7 12 C-5.68 12 -4.36 12 -3 12 C-2.95101562 11.30132812 -2.90203125 10.60265625 -2.8515625 9.8828125 C-2.77679688 8.97273438 -2.70203125 8.06265625 -2.625 7.125 C-2.55539063 6.22007813 -2.48578125 5.31515625 -2.4140625 4.3828125 C-2 2 -2 2 0 0 Z " fill="#6E95EA" transform="translate(186,58)"/>
<path d="M0 0 C1.65 0.33 3.3 0.66 5 1 C5.16225719 3.75236274 5.2809328 6.49517476 5.375 9.25 C5.45041016 10.41595703 5.45041016 10.41595703 5.52734375 11.60546875 C5.58571933 13.88211637 5.56488317 15.79115476 5 18 C2.0625 20.40625 2.0625 20.40625 -1 22 C-2.38868516 24.10039331 -2.38868516 24.10039331 -3 26 C-4.65 25.67 -6.3 25.34 -8 25 C-8 19.06 -8 13.12 -8 7 C-6.35 6.34 -4.7 5.68 -3 5 C-1.17380913 2.48635244 -1.17380913 2.48635244 0 0 Z " fill="#B167D9" transform="translate(71,65)"/>
<path d="M0 0 C1.3303125 0.00773438 1.3303125 0.00773438 2.6875 0.015625 C3.574375 0.01046875 4.46125 0.0053125 5.375 0 C7.6875 0.265625 7.6875 0.265625 9.6875 2.265625 C9.625 4.265625 9.625 4.265625 8.6875 6.265625 C6.125 7.515625 6.125 7.515625 3.6875 8.265625 C3.63851562 8.96429688 3.58953125 9.66296875 3.5390625 10.3828125 C3.46429688 11.29289063 3.38953125 12.20296875 3.3125 13.140625 C3.24289063 14.04554688 3.17328125 14.95046875 3.1015625 15.8828125 C2.6875 18.265625 2.6875 18.265625 0.6875 20.265625 C-1.625 20.53125 -1.625 20.53125 -4.3125 20.515625 C-5.6428125 20.52335937 -5.6428125 20.52335937 -7 20.53125 C-9.3125 20.265625 -9.3125 20.265625 -11.3125 18.265625 C-11.25 16.265625 -11.25 16.265625 -10.3125 14.265625 C-7.75 13.015625 -7.75 13.015625 -5.3125 12.265625 C-5.26351562 11.56695312 -5.21453125 10.86828125 -5.1640625 10.1484375 C-5.05191406 8.78332031 -5.05191406 8.78332031 -4.9375 7.390625 C-4.86789063 6.48570312 -4.79828125 5.58078125 -4.7265625 4.6484375 C-4.16298514 1.40520931 -3.30537644 0.37967162 0 0 Z " fill="#5EA0FC" transform="translate(80.3125,158.734375)"/>
<path d="M0 0 C2.475 0.495 2.475 0.495 5 1 C5.28322934 4.70715736 5.45051636 8.30246937 5 12 C2.6875 13.875 2.6875 13.875 0 15 C-0.37125 15.886875 -0.7425 16.77375 -1.125 17.6875 C-3 20 -3 20 -5.62890625 20.3203125 C-8.43499003 20.31314498 -11.2025098 20.21373015 -14 20 C-14.33 18.35 -14.66 16.7 -15 15 C-14.05125 14.608125 -13.1025 14.21625 -12.125 13.8125 C-8.50386119 11.71223949 -8.43273172 10.72510247 -7 7 C-5.33333333 6.33333333 -3.66666667 5.66666667 -2 5 C-0.63921965 2.47627099 -0.63921965 2.47627099 0 0 Z " fill="#B665D8" transform="translate(64,51)"/>
<path d="M0 0 C0.91007812 0.00902344 1.82015625 0.01804688 2.7578125 0.02734375 C3.45648438 0.03894531 4.15515625 0.05054688 4.875 0.0625 C5.266875 1.01125 5.65875 1.96 6.0625 2.9375 C8.07293856 6.40377338 9.10199642 7.0427693 12.875 8.0625 C12.545 9.7125 12.215 11.3625 11.875 13.0625 C10.9778125 13.124375 10.9778125 13.124375 10.0625 13.1875 C7.52399168 13.93989901 7.52399168 13.93989901 6.125 17.125 C5.7125 18.094375 5.3 19.06375 4.875 20.0625 C3.225 19.7325 1.575 19.4025 -0.125 19.0625 C-0.12757812 18.38703125 -0.13015625 17.7115625 -0.1328125 17.015625 C-0.25276024 14.24883052 -0.45056191 11.75176886 -1.125 9.0625 C-4.06442994 6.65728763 -4.06442994 6.65728763 -7.125 5.0625 C-7.125 3.7425 -7.125 2.4225 -7.125 1.0625 C-4.60024538 -0.19987731 -2.81299534 -0.03606404 0 0 Z " fill="#CF5EAE" transform="translate(90.125,3.9375)"/>
<path d="M0 0 C1.65 0.33 3.3 0.66 5 1 C5.02683987 3.97922593 5.04676037 6.95821295 5.0625 9.9375 C5.07087891 10.78763672 5.07925781 11.63777344 5.08789062 12.51367188 C5.09111328 13.32255859 5.09433594 14.13144531 5.09765625 14.96484375 C5.10289307 15.7137085 5.10812988 16.46257324 5.11352539 17.23413086 C5 19 5 19 4 20 C2.16884117 20.09851171 0.33380067 20.12972629 -1.5 20.125 C-2.5003125 20.12757813 -3.500625 20.13015625 -4.53125 20.1328125 C-7 20 -7 20 -8 19 C-8.07226502 17.14712498 -8.0838122 15.29166122 -8.0625 13.4375 C-8.05347656 12.42558594 -8.04445312 11.41367188 -8.03515625 10.37109375 C-8.02355469 9.58863281 -8.01195312 8.80617187 -8 8 C-6.576875 7.4121875 -6.576875 7.4121875 -5.125 6.8125 C-1.65872662 4.80206144 -1.0197307 3.77300358 0 0 Z " fill="#6297FA" transform="translate(64,152)"/>
<path d="M0 0 C2.625 0.375 2.625 0.375 5 1 C5.061875 1.61875 5.12375 2.2375 5.1875 2.875 C5.455625 3.57625 5.72375 4.2775 6 5 C6.825 5.33 7.65 5.66 8.5 6 C11 7 11 7 11.875 9 C12 11 12 11 11 13 C10.195625 13.268125 9.39125 13.53625 8.5625 13.8125 C5.76670768 14.78464531 5.76670768 14.78464531 4.6875 17.625 C4.460625 18.40875 4.23375 19.1925 4 20 C-0.875 19.125 -0.875 19.125 -2 18 C-2.12658222 15.34177343 -2.18520214 12.72112576 -2.1875 10.0625 C-2.19974609 9.32064453 -2.21199219 8.57878906 -2.22460938 7.81445312 C-2.22988478 5.87486371 -2.12188902 3.9357629 -2 2 C-1.34 1.34 -0.68 0.68 0 0 Z " fill="#8A8EE2" transform="translate(125,85)"/>
<path d="M0 0 C1.32 0.66 2.64 1.32 4 2 C4 7.61 4 13.22 4 19 C2.02 19.99 2.02 19.99 0 21 C-0.99 20.34 -1.98 19.68 -3 19 C-3.30279086 16.07895874 -3.41810841 13.41700216 -3.375 10.5 C-3.38660156 9.71496094 -3.39820312 8.92992187 -3.41015625 8.12109375 C-3.3984375 5.84375 -3.3984375 5.84375 -3 2 C-2.01 1.34 -1.02 0.68 0 0 Z " fill="#BF70BC" transform="translate(126,44)"/>
<path d="M0 0 C-0.66 4.62 -1.32 9.24 -2 14 C-2.99 14.33 -3.98 14.66 -5 15 C-7.6875 13.5625 -7.6875 13.5625 -10 12 C-9.38722388 9.03824877 -8.74627478 7.61941217 -7 5 C-7.86625 5.680625 -8.7325 6.36125 -9.625 7.0625 C-13 9 -13 9 -16.375 8.75 C-17.674375 8.37875 -17.674375 8.37875 -19 8 C-16.45503136 4.99711313 -13.66909427 3.79704375 -10.0625 2.3125 C-9.02222656 1.87550781 -7.98195313 1.43851562 -6.91015625 0.98828125 C-4 0 -4 0 0 0 Z " fill="#F7F6FC" transform="translate(108,95)"/>
<path d="M0 0 C1.66611905 -0.042721 3.33382885 -0.04063832 5 0 C6.66561399 1.66561399 6.17115945 3.65962705 6.1875 5.9375 C6.20167969 6.83339844 6.21585938 7.72929687 6.23046875 8.65234375 C6 11 6 11 4 13 C1.6875 13.265625 1.6875 13.265625 -1 13.25 C-2.3303125 13.25773438 -2.3303125 13.25773438 -3.6875 13.265625 C-6 13 -6 13 -8 11 C-7.9375 9 -7.9375 9 -7 7 C-6.195625 6.690625 -5.39125 6.38125 -4.5625 6.0625 C-1.75492583 5.22618194 -1.75492583 5.22618194 -0.6875 2.375 C-0.460625 1.59125 -0.23375 0.8075 0 0 Z " fill="#5AA6FD" transform="translate(192,166)"/>
<path d="M0 0 C3.69230769 0.69230769 3.69230769 0.69230769 5 2 C5.1245486 3.64230364 5.17568524 5.29052276 5.1875 6.9375 C5.20167969 7.83339844 5.21585938 8.72929687 5.23046875 9.65234375 C5 12 5 12 3 14 C0.90625 14.23046875 0.90625 14.23046875 -1.5 14.1875 C-2.69109375 14.17783203 -2.69109375 14.17783203 -3.90625 14.16796875 C-6 14 -6 14 -8 13 C-8 11.35 -8 9.7 -8 8 C-6.824375 7.6596875 -6.824375 7.6596875 -5.625 7.3125 C-2.78943005 6.22711327 -2.78943005 6.22711327 -1.75 3.4375 C-1.5025 2.633125 -1.255 1.82875 -1 1 C-0.67 0.67 -0.34 0.34 0 0 Z " fill="#5FA1FB" transform="translate(98,145)"/>
<path d="M0 0 C3.875 0.875 3.875 0.875 5 2 C5.09823937 3.66429051 5.12973631 5.33281931 5.125 7 C5.12757812 7.9075 5.13015625 8.815 5.1328125 9.75 C5 12 5 12 4 13 C1.98035801 13.07244053 -0.04167124 13.08377188 -2.0625 13.0625 C-3.71958984 13.04896484 -3.71958984 13.04896484 -5.41015625 13.03515625 C-6.26480469 13.02355469 -7.11945312 13.01195313 -8 13 C-8.33 11.68 -8.66 10.36 -9 9 C-8.071875 8.443125 -7.14375 7.88625 -6.1875 7.3125 C-3.0580593 5.04212145 -1.70245949 3.40491897 0 0 Z " fill="#AD69E7" transform="translate(51,78)"/>
<path d="M0 0 C3.53571429 0.53571429 3.53571429 0.53571429 5 2 C5.09823937 3.66429051 5.12973631 5.33281931 5.125 7 C5.12757813 7.9075 5.13015625 8.815 5.1328125 9.75 C5 12 5 12 4 13 C1.5 13.125 1.5 13.125 -1 13 C-2.66561399 11.33438601 -2.17115945 9.34037295 -2.1875 7.0625 C-2.20167969 6.16660156 -2.21585938 5.27070313 -2.23046875 4.34765625 C-2 2 -2 2 0 0 Z " fill="#5AA6FD" transform="translate(186,152)"/>
<path d="M0 0 C0.89589844 -0.01417969 1.79179688 -0.02835938 2.71484375 -0.04296875 C5.0625 0.1875 5.0625 0.1875 7.0625 2.1875 C6.52678571 5.72321429 6.52678571 5.72321429 5.0625 7.1875 C3.39820949 7.28573937 1.72968069 7.31723631 0.0625 7.3125 C-1.29875 7.31636719 -1.29875 7.31636719 -2.6875 7.3203125 C-4.9375 7.1875 -4.9375 7.1875 -5.9375 6.1875 C-6.0625 3.6875 -6.0625 3.6875 -5.9375 1.1875 C-4.27188601 -0.47811399 -2.27787295 0.01634055 0 0 Z " fill="#6A9BF8" transform="translate(75.9375,144.8125)"/>
<path d="M0 0 C4.70588235 0.70588235 4.70588235 0.70588235 6 2 C6.16796875 3.99609375 6.16796875 3.99609375 6.1875 6.4375 C6.20167969 7.24058594 6.21585938 8.04367188 6.23046875 8.87109375 C6 11 6 11 4 13 C1.375 12.625 1.375 12.625 -1 12 C-1.02687279 10.18757948 -1.04633715 8.37504767 -1.0625 6.5625 C-1.07410156 5.55316406 -1.08570312 4.54382813 -1.09765625 3.50390625 C-1 1 -1 1 0 0 Z " fill="#A671EF" transform="translate(30,105)"/>
<path d="M0 0 C0.89589844 -0.01417969 1.79179687 -0.02835938 2.71484375 -0.04296875 C5.0625 0.1875 5.0625 0.1875 7.0625 2.1875 C6.52678571 5.72321429 6.52678571 5.72321429 5.0625 7.1875 C3.39820949 7.28573937 1.72968069 7.31723631 0.0625 7.3125 C-1.29875 7.31636719 -1.29875 7.31636719 -2.6875 7.3203125 C-4.9375 7.1875 -4.9375 7.1875 -5.9375 6.1875 C-6.0625 3.6875 -6.0625 3.6875 -5.9375 1.1875 C-4.27188601 -0.47811399 -2.27787295 0.01634055 0 0 Z " fill="#C869B3" transform="translate(129.9375,30.8125)"/>
<path d="M0 0 C1.51400391 0.01740234 1.51400391 0.01740234 3.05859375 0.03515625 C4.07050781 0.04417969 5.08242187 0.05320313 6.125 0.0625 C7.29869141 0.07990234 7.29869141 0.07990234 8.49609375 0.09765625 C8.87828142 1.75380282 9.21004477 3.42222649 9.49609375 5.09765625 C8.49609375 6.09765625 8.49609375 6.09765625 5.9921875 6.1953125 C4.47818359 6.17791016 4.47818359 6.17791016 2.93359375 6.16015625 C1.92167969 6.15113281 0.90976563 6.14210937 -0.1328125 6.1328125 C-0.91527344 6.12121094 -1.69773437 6.10960937 -2.50390625 6.09765625 C-2.88609392 4.44150968 -3.21785727 2.77308601 -3.50390625 1.09765625 C-2.50390625 0.09765625 -2.50390625 0.09765625 0 0 Z " fill="#56A0FC" transform="translate(93.50390625,165.90234375)"/>
<path d="M0 0 C2.0625 0.4375 2.0625 0.4375 4 1 C4.625 2.875 4.625 2.875 5 5 C4.34 5.66 3.68 6.32 3 7 C0.375 6.625 0.375 6.625 -2 6 C-1.125 1.125 -1.125 1.125 0 0 Z " fill="#68A8FB" transform="translate(112,145)"/>
<path d="M0 0 C2.0625 0.4375 2.0625 0.4375 4 1 C4.625 2.875 4.625 2.875 5 5 C4.34 5.66 3.68 6.32 3 7 C0.375 6.625 0.375 6.625 -2 6 C-1.125 1.125 -1.125 1.125 0 0 Z " fill="#C270D3" transform="translate(58,44)"/>
<path d="M0 0 C1.67542976 0.28604898 3.34385343 0.61781233 5 1 C5.625 2.875 5.625 2.875 6 5 C5.34 5.66 4.68 6.32 4 7 C1.875 6.625 1.875 6.625 0 6 C-0.38218767 4.34385343 -0.71395102 2.67542976 -1 1 C-0.67 0.67 -0.34 0.34 0 0 Z " fill="#C76FCA" transform="translate(57,31)"/>
<path d="M0 0 C2.125 0.375 2.125 0.375 4 1 C5.125 4.75 5.125 4.75 4 7 C2.35 6.67 0.7 6.34 -1 6 C-1.625 4.125 -1.625 4.125 -2 2 C-1.34 1.34 -0.68 0.68 0 0 Z " fill="#B472EA" transform="translate(44,71)"/>
<path d="M0 0 C2.125 0.375 2.125 0.375 4 1 C4.625 2.875 4.625 2.875 5 5 C4.34 5.66 3.68 6.32 3 7 C0.875 6.625 0.875 6.625 -1 6 C-1.625 4.125 -1.625 4.125 -2 2 C-1.34 1.34 -0.68 0.68 0 0 Z " fill="#60A8FD" transform="translate(105,172)"/>
<path d="M0 0 C1.65 0 3.3 0 5 0 C5.38218767 1.65614657 5.71395102 3.32457024 6 5 C5 6 5 6 2.4375 6.0625 C1.2309375 6.0315625 1.2309375 6.0315625 0 6 C-1.125 2.25 -1.125 2.25 0 0 Z " fill="#68A3F9" transform="translate(104,139)"/>
<path d="M0 0 C2.125 0.375 2.125 0.375 4 1 C4.625 2.875 4.625 2.875 5 5 C4.34 5.66 3.68 6.32 3 7 C0.875 6.625 0.875 6.625 -1 6 C-1.625 4.125 -1.625 4.125 -2 2 C-1.34 1.34 -0.68 0.68 0 0 Z " fill="#AA74EC" transform="translate(44,98)"/>
<path d="M0 0 C2.125 0.375 2.125 0.375 4 1 C4.625 2.875 4.625 2.875 5 5 C4.34 5.66 3.68 6.32 3 7 C0.875 6.625 0.875 6.625 -1 6 C-1.625 4.125 -1.625 4.125 -2 2 C-1.34 1.34 -0.68 0.68 0 0 Z " fill="#7F94E5" transform="translate(159,78)"/>
<path d="M0 0 C1.67542976 0.28604898 3.34385343 0.61781233 5 1 C5 2.65 5 4.3 5 6 C3.34385343 6.38218767 1.67542976 6.71395102 0 7 C-1 6 -1 6 -1.125 3.5 C-1 1 -1 1 0 0 Z " fill="#B370EF" transform="translate(10,78)"/>
<path d="M0 0 C0 1.65 0 3.3 0 5 C-1.65614657 5.38218767 -3.32457024 5.71395102 -5 6 C-6 5 -6 5 -6.0625 2.4375 C-6.041875 1.633125 -6.02125 0.82875 -6 0 C-3.50907189 -1.24546405 -2.58919267 -0.7767578 0 0 Z " fill="#CF6BB3" transform="translate(123,25)"/>
<path d="M0 0 C1.65 0.33 3.3 0.66 5 1 C5 2.65 5 4.3 5 6 C3.125 6.625 3.125 6.625 1 7 C0.34 6.34 -0.32 5.68 -1 5 C-0.625 2.375 -0.625 2.375 0 0 Z " fill="#5FA9FD" transform="translate(145,179)"/>
<path d="M0 0 C1.67542976 0.28604898 3.34385343 0.61781233 5 1 C5 2.65 5 4.3 5 6 C1.25 7.125 1.25 7.125 -1 6 C-1.042721 4.33388095 -1.04063832 2.66617115 -1 1 C-0.67 0.67 -0.34 0.34 0 0 Z " fill="#60A7FD" transform="translate(91,179)"/>
<path d="M0 0 C1.67542976 0.28604898 3.34385343 0.61781233 5 1 C5 2.65 5 4.3 5 6 C1.25 7.125 1.25 7.125 -1 6 C-1.042721 4.33388095 -1.04063832 2.66617115 -1 1 C-0.67 0.67 -0.34 0.34 0 0 Z " fill="#B16EEC" transform="translate(37,78)"/>
<path d="M0 0 C1.67542976 0.28604898 3.34385343 0.61781233 5 1 C5.5625 2.9375 5.5625 2.9375 6 5 C5 6 5 6 2.4375 6.0625 C1.2309375 6.0315625 1.2309375 6.0315625 0 6 C-0.38218767 4.34385343 -0.71395102 2.67542976 -1 1 C-0.67 0.67 -0.34 0.34 0 0 Z " fill="#908BD9" transform="translate(165,58)"/>
<path d="M0 0 C1.67542976 0.28604898 3.34385343 0.61781233 5 1 C4.67 2.65 4.34 4.3 4 6 C2.0625 6.5625 2.0625 6.5625 0 7 C-1 6 -1 6 -1.125 3.5 C-1 1 -1 1 0 0 Z " fill="#5DA7FD" transform="translate(152,152)"/>
<path d="M0 0 C1.65 0 3.3 0 5 0 C5.625 1.875 5.625 1.875 6 4 C5.34 4.66 4.68 5.32 4 6 C1.375 5.625 1.375 5.625 -1 5 C-0.67 3.35 -0.34 1.7 0 0 Z " fill="#A96EF4" transform="translate(3,119)"/>
<path d="M0 0 C1.65 0 3.3 0 5 0 C5.33 1.65 5.66 3.3 6 5 C4.35 5.33 2.7 5.66 1 6 C-0.0625 4.125 -0.0625 4.125 -1 2 C-0.67 1.34 -0.34 0.68 0 0 Z " fill="#A774E0" transform="translate(70,92)"/>
<path d="M0 0 C1.67542976 0.28604898 3.34385343 0.61781233 5 1 C5.33 1.99 5.66 2.98 6 4 C5.67 4.66 5.34 5.32 5 6 C3.35 6 1.7 6 0 6 C-0.38218767 4.34385343 -0.71395102 2.67542976 -1 1 C-0.67 0.67 -0.34 0.34 0 0 Z " fill="#B06BF0" transform="translate(3,85)"/>
<path d="M0 0 C1.67542976 0.28604898 3.34385343 0.61781233 5 1 C4.67 2.65 4.34 4.3 4 6 C2.0625 6.5625 2.0625 6.5625 0 7 C-1 6 -1 6 -1.125 3.5 C-1 1 -1 1 0 0 Z " fill="#CE64B6" transform="translate(71,4)"/>
<path d="M0 0 C2.125 0.375 2.125 0.375 4 1 C4.5625 2.9375 4.5625 2.9375 5 5 C4 6 4 6 1.4375 6.0625 C0.2309375 6.0315625 0.2309375 6.0315625 -1 6 C-1.625 4.125 -1.625 4.125 -2 2 C-1.34 1.34 -0.68 0.68 0 0 Z " fill="#5CA4FC" transform="translate(105,159)"/>
<path d="M0 0 C1.67542976 0.28604898 3.34385343 0.61781233 5 1 C4.67 2.65 4.34 4.3 4 6 C2.35 5.67 0.7 5.34 -1 5 C-1 1 -1 1 0 0 Z " fill="#6D98F0" transform="translate(125,112)"/>
<path d="M0 0 C1.67542976 0.28604898 3.34385343 0.61781233 5 1 C5 2.32 5 3.64 5 5 C3.35 5.33 1.7 5.66 0 6 C-0.38218767 4.34385343 -0.71395102 2.67542976 -1 1 C-0.67 0.67 -0.34 0.34 0 0 Z " fill="#BD68C7" transform="translate(84,65)"/>
<path d="M0 0 C1.65 0.33 3.3 0.66 5 1 C4.67 2.65 4.34 4.3 4 6 C2.35 5.67 0.7 5.34 -1 5 C-0.67 3.35 -0.34 1.7 0 0 Z " fill="#A867EB" transform="translate(37,92)"/>
<path d="M0 0 C1.65 0.33 3.3 0.66 5 1 C4.67 2.65 4.34 4.3 4 6 C2.35 5.67 0.7 5.34 -1 5 C-0.67 3.35 -0.34 1.7 0 0 Z " fill="#B26AC0" transform="translate(118,65)"/>
<path d="M0 0 C0.33 1.32 0.66 2.64 1 4 C0.01 4.639375 -0.98 5.27875 -2 5.9375 C-4.18481659 7.7120224 -4.91901527 8.52520718 -5.3984375 11.3359375 C-5.37716456 13.58377811 -5.26257641 15.76810054 -5 18 C-5.66 17.67 -6.32 17.34 -7 17 C-7.3503316 13.60048598 -7.53840296 10.38500869 -7 7 C-4.0625 4.5625 -4.0625 4.5625 -1 3 C-0.67 2.01 -0.34 1.02 0 0 Z " fill="#7493EA" transform="translate(144,93)"/>
<path d="M0 0 C2.0625 0.4375 2.0625 0.4375 4 1 C3.01 1.66 2.02 2.32 1 3 C0.61588725 5.609621 0.39706803 8.0058074 0.3125 10.625 C0.27833984 11.33140625 0.24417969 12.0378125 0.20898438 12.765625 C0.12648692 14.50985688 0.06156665 16.25490395 0 18 C-0.33 18 -0.66 18 -1 18 C-1.02684312 15.18743719 -1.04676188 12.37512759 -1.0625 9.5625 C-1.07087891 8.76005859 -1.07925781 7.95761719 -1.08789062 7.13085938 C-1.0965143 5.08704779 -1.0522815 3.04316098 -1 1 C-0.67 0.67 -0.34 0.34 0 0 Z " fill="#B264B8" transform="translate(138,45)"/>
<path d="M0 0 C0.99 0.33 1.98 0.66 3 1 C2.34 1.66 1.68 2.32 1 3 C0.53993654 5.20250992 0.53993654 5.20250992 0.375 7.625 C0.30023438 8.44226563 0.22546875 9.25953125 0.1484375 10.1015625 C0.07496094 11.04128906 0.07496094 11.04128906 0 12 C-0.33 12 -0.66 12 -1 12 C-1.02687279 10.18757948 -1.04633715 8.37504767 -1.0625 6.5625 C-1.07410156 5.55316406 -1.08570312 4.54382813 -1.09765625 3.50390625 C-1 1 -1 1 0 0 Z " fill="#8B7AD6" transform="translate(125,85)"/>
</svg>
