<?xml version="1.0" encoding="UTF-8"?>
<svg version="1.1" xmlns="http://www.w3.org/2000/svg" width="212" height="200">
<path d="M0 0 C69.96 0 139.92 0 212 0 C212 66 212 132 212 200 C142.04 200 72.08 200 0 200 C0 134 0 68 0 0 Z " fill="#B5E51E" transform="translate(0,0)"/>
<path d="M0 0 C2.7302389 -0.1083667 5.45614543 -0.18746694 8.1875 -0.25 C8.95642578 -0.28351562 9.72535156 -0.31703125 10.51757812 -0.3515625 C14.43032033 -0.41873404 16.53332341 -0.2673668 20 1.71875 C22.22798849 4.26004937 22.66572457 5.42309022 22.8125 8.75 C22.86019531 9.54921875 22.90789063 10.3484375 22.95703125 11.171875 C22.97121094 11.77515625 22.98539063 12.3784375 23 13 C24.65 12.67 26.3 12.34 28 12 C28.33 11.01 28.66 10.02 29 9 C33.06005808 5.72897208 36.85695631 5.57025599 41.875 5.6875 C42.55691406 5.68427734 43.23882812 5.68105469 43.94140625 5.67773438 C49.33985086 5.73428951 55.0184651 6.0184651 59 10 C59 10.99 59 11.98 59 13 C60.65 13 62.3 13 64 13 C64.144375 12.21625 64.28875 11.4325 64.4375 10.625 C65 8 65 8 66 6 C73.26 6 80.52 6 88 6 C88 6.66 88 7.32 88 8 C88.66 8 89.32 8 90 8 C90.495 10.475 90.495 10.475 91 13 C91.60055206 12.98889694 92.20110413 12.97779388 92.81985474 12.96635437 C99.08157449 12.85556708 105.34301496 12.78025248 111.60546875 12.7253418 C113.9411958 12.70022819 116.27684451 12.66613072 118.61230469 12.62280273 C121.97350414 12.56201508 125.33366285 12.53375788 128.6953125 12.51171875 C129.73615997 12.48591232 130.77700745 12.4601059 131.84939575 12.43351746 C139.96330241 12.43039246 139.96330241 12.43039246 143.64306641 15.33496094 C147.2984853 19.46822722 147.19095434 22.91616806 147.3828125 28.265625 C146.77787557 34.16684647 144.29608316 40.70391684 140 45 C128.77595916 46.44684901 118.148453 45.66950843 107 44 C107 43.34 107 42.68 107 42 C105.23027832 42.11589478 105.23027832 42.11589478 103.42480469 42.23413086 C90.32779548 43.02658813 77.35936365 42.95397411 64.25 42.5625 C62.26954999 42.5090665 60.28908107 42.45632911 58.30859375 42.40429688 C53.53880758 42.27750915 48.7693725 42.14146444 44 42 C44 41.34 44 40.68 44 40 C29.14197397 38.64164335 29.14197397 38.64164335 16.00390625 43.515625 C14.53715118 46.36866478 13.57606064 48.84983055 13 52 C12.34 52 11.68 52 11 52 C10.67 52.99 10.34 53.98 10 55 C8.35 55 6.7 55 5 55 C5 53.02 5 51.04 5 49 C5.66 49 6.32 49 7 49 C7 49.66 7 50.32 7 51 C7.66 51 8.32 51 9 51 C9.21011719 50.34644531 9.42023437 49.69289062 9.63671875 49.01953125 C11.51705122 44.85478339 14.13178281 41.37308095 16.8125 37.6875 C17.86286232 36.23465027 18.9110544 34.78022897 19.95703125 33.32421875 C20.4670166 32.61442871 20.97700195 31.90463867 21.50244141 31.17333984 C23.45163772 28.34455837 25.20587737 25.4157675 26.9284668 22.44458008 C27.28207275 21.96786865 27.63567871 21.49115723 28 21 C28.66 21 29.32 21 30 21 C30 20.34 30 19.68 30 19 C28.35 19 26.7 19 25 19 C24.773125 19.721875 24.54625 20.44375 24.3125 21.1875 C22.75168987 24.53209313 20.6968713 26.51603959 18 29 C15.86257449 21.2972024 14.52501978 13.98030063 14 6 C9.71 6 5.42 6 1 6 C1.29005704 8.52102765 1.5818178 11.04183502 1.875 13.5625 C1.96378418 14.32957275 2.05256836 15.09664551 2.14404297 15.88696289 C2.58344664 19.63656666 3.04190973 23.38009537 3.578125 27.1171875 C4.58315353 34.13802965 5.30052197 40.90434228 5 48 C2.71703558 44.57555337 2.17872846 41.52814085 1.5 37.5625 C1.30990356 36.48560913 1.30990356 36.48560913 1.1159668 35.38696289 C0.86026753 33.93325022 0.60722813 32.47906704 0.35693359 31.02441406 C0.04939694 29.28016379 -0.29059197 27.54169184 -0.63671875 25.8046875 C-2.17289916 17.80783346 -2.19956809 10.11576888 -2 2 C-1.34 2 -0.68 2 0 2 C0 1.34 0 0.68 0 0 Z " fill="#F7F7F7" transform="translate(33,27)"/>
<path d="M0 0 C5.07779099 3.42455672 8.49529535 7.0435404 10.6875 12.8125 C10.875 16.6875 10.875 16.6875 10.6875 19.8125 C9.6975 20.3075 9.6975 20.3075 8.6875 20.8125 C9.1825 22.2975 9.1825 22.2975 9.6875 23.8125 C10.3475 24.1425 11.0075 24.4725 11.6875 24.8125 C9.86792813 35.83696483 9.86792813 35.83696483 6.6875 39.8125 C6.0275 39.8125 5.3675 39.8125 4.6875 39.8125 C4.64991577 41.50270264 4.64991577 41.50270264 4.61157227 43.22705078 C4.33043167 55.75625594 4.02147856 68.28459298 3.6875 80.8125 C3.65543457 82.04355469 3.62336914 83.27460938 3.59033203 84.54296875 C3.29777172 94.97596708 2.5345728 105.26405281 1.25 115.625 C1.1277002 116.62998535 1.00540039 117.6349707 0.87939453 118.67041016 C0.7554834 119.58999512 0.63157227 120.50958008 0.50390625 121.45703125 C0.34063843 122.68450073 0.34063843 122.68450073 0.17407227 123.93676758 C0.01350342 124.55575928 -0.14706543 125.17475098 -0.3125 125.8125 C-2.90003156 127.10626578 -4.86208985 126.98082397 -7.75 127 C-8.71808594 127.01417969 -9.68617187 127.02835938 -10.68359375 127.04296875 C-13.3125 126.8125 -13.3125 126.8125 -16.3125 124.8125 C-16.5703125 122.5 -16.5703125 122.5 -16.4375 119.8125 C-16.18157371 116.1707451 -16.18157371 116.1707451 -17.3125 112.8125 C-17.81522608 108.0981338 -18.03456393 103.35748102 -18.3125 98.625 C-18.35574402 97.91151398 -18.39898804 97.19802795 -18.44354248 96.46292114 C-19.55528052 77.92924663 -19.94777699 59.37334276 -20.3125 40.8125 C-20.9516333 40.5227832 -21.5907666 40.23306641 -22.24926758 39.93457031 C-24.3125 38.8125 -24.3125 38.8125 -25.32421875 36.859375 C-25.54722656 36.10140625 -25.77023438 35.3434375 -26 34.5625 C-26.35578125 33.36560547 -26.35578125 33.36560547 -26.71875 32.14453125 C-27.42154094 29.38422737 -27.95028349 26.63778879 -28.3125 23.8125 C-27.3225 23.8125 -26.3325 23.8125 -25.3125 23.8125 C-24.9825 22.8225 -24.6525 21.8325 -24.3125 20.8125 C-25.3025 20.4825 -26.2925 20.1525 -27.3125 19.8125 C-27.17154936 18.1870692 -27.02457913 16.56215949 -26.875 14.9375 C-26.79378906 14.03257813 -26.71257812 13.12765625 -26.62890625 12.1953125 C-26.3125 9.8125 -26.3125 9.8125 -25.3125 7.8125 C-24.6525 7.8125 -23.9925 7.8125 -23.3125 7.8125 C-23.1475 7.07 -22.9825 6.3275 -22.8125 5.5625 C-18.41995616 -2.49049704 -7.80035987 -2.79635542 0 0 Z " fill="#121512" transform="translate(113.3125,72.1875)"/>
<path d="M0 0 C2.7302389 -0.1083667 5.45614543 -0.18746694 8.1875 -0.25 C8.95642578 -0.28351562 9.72535156 -0.31703125 10.51757812 -0.3515625 C14.43032033 -0.41873404 16.53332341 -0.2673668 20 1.71875 C22.22798849 4.26004937 22.66572457 5.42309022 22.8125 8.75 C22.86019531 9.54921875 22.90789063 10.3484375 22.95703125 11.171875 C22.97121094 11.77515625 22.98539063 12.3784375 23 13 C24.65 12.67 26.3 12.34 28 12 C28.33 11.01 28.66 10.02 29 9 C33.06005808 5.72897208 36.85695631 5.57025599 41.875 5.6875 C42.55691406 5.68427734 43.23882812 5.68105469 43.94140625 5.67773438 C49.33985086 5.73428951 55.0184651 6.0184651 59 10 C59 10.99 59 11.98 59 13 C60.65 13 62.3 13 64 13 C64.144375 12.21625 64.28875 11.4325 64.4375 10.625 C65 8 65 8 66 6 C73.26 6 80.52 6 88 6 C88 6.66 88 7.32 88 8 C88.66 8 89.32 8 90 8 C90.495 10.475 90.495 10.475 91 13 C91.60055206 12.98889694 92.20110413 12.97779388 92.81985474 12.96635437 C99.08157449 12.85556708 105.34301496 12.78025248 111.60546875 12.7253418 C113.9411958 12.70022819 116.27684451 12.66613072 118.61230469 12.62280273 C121.97350414 12.56201508 125.33366285 12.53375788 128.6953125 12.51171875 C129.73615997 12.48591232 130.77700745 12.4601059 131.84939575 12.43351746 C139.96330241 12.43039246 139.96330241 12.43039246 143.64306641 15.33496094 C147.2984853 19.46822722 147.19095434 22.91616806 147.3828125 28.265625 C146.77787557 34.16684647 144.29608316 40.70391684 140 45 C129.08630227 46.39054836 118.82453134 45.74171315 108 44 C108.33 42.68 108.66 41.36 109 40 C117.58 39.67 126.16 39.34 135 39 C135.66 37.35 136.32 35.7 137 34 C137.99 33.34 138.98 32.68 140 32 C141.98134842 26.94756154 142.07946867 23.28939648 141 18 C137.7109574 16.90365247 135.34320339 16.90124972 131.8828125 16.9375 C130.0258374 16.95006836 130.0258374 16.95006836 128.13134766 16.96289062 C127.14947479 16.97219604 127.14947479 16.97219604 126.14776611 16.98168945 C113.0690549 17.10008097 100.05685183 16.80704603 87 16 C87 16.66 87 17.32 87 18 C93.27 18 99.54 18 106 18 C106 19.65 106 21.3 106 23 C102.7 23 99.4 23 96 23 C95.67 26.3 95.34 29.6 95 33 C97.31 33.33 99.62 33.66 102 34 C102 34.99 102 35.98 102 37 C98.70840684 37.05790353 95.41694397 37.09356261 92.125 37.125 C91.18785156 37.14175781 90.25070313 37.15851563 89.28515625 37.17578125 C88.38925781 37.18222656 87.49335937 37.18867187 86.5703125 37.1953125 C85.74289551 37.20578613 84.91547852 37.21625977 84.06298828 37.22705078 C82 37 82 37 80 35 C79.73008094 32.31160615 79.91262643 29.70858064 80 27 C78.22742965 30.39100415 76.93411993 33.2635203 76 37 C71.71 37 67.42 37 63 37 C63.44674293 33.35159938 64.01030554 29.96544613 65.0625 26.4375 C65.97051692 23.10810461 66.16721405 20.42788808 66 17 C62.7 16.67 59.4 16.34 56 16 C55.34 14.02 54.68 12.04 54 10 C50.54173658 9.94210994 47.08359707 9.90644179 43.625 9.875 C42.64015625 9.85824219 41.6553125 9.84148438 40.640625 9.82421875 C39.69960937 9.81777344 38.75859375 9.81132813 37.7890625 9.8046875 C36.91975098 9.79421387 36.05043945 9.78374023 35.15478516 9.77294922 C32.78654061 9.79404891 32.78654061 9.79404891 31 12 C30.3574765 14.06874034 30.3574765 14.06874034 30 16 C28.865625 16.268125 27.73125 16.53625 26.5625 16.8125 C25.386875 17.204375 24.21125 17.59625 23 18 C22.67 18.99 22.34 19.98 22 21 C21.34 21 20.68 21 20 21 C19.79503906 19.78441406 19.59007813 18.56882812 19.37890625 17.31640625 C19.10698039 15.73173486 18.83483357 14.14710137 18.5625 12.5625 C18.42779297 11.76005859 18.29308594 10.95761719 18.15429688 10.13085938 C17.79732776 6.24528697 17.79732776 6.24528697 16 3 C13.30764224 2.76321284 10.63501844 2.57801975 7.9375 2.4375 C7.17888672 2.39431641 6.42027344 2.35113281 5.63867188 2.30664062 C3.75934562 2.20026367 1.87969756 2.09960066 0 2 C0 1.34 0 0.68 0 0 Z " fill="#D8D8D8" transform="translate(33,27)"/>
<path d="M0 0 C2.23634971 3.68183137 2.69069404 7.53184528 3.25390625 11.72265625 C3.41257423 12.83549232 3.41257423 12.83549232 3.57444763 13.97080994 C3.91038398 16.3338332 4.23695456 18.69802475 4.5625 21.0625 C4.89306526 23.43030892 5.22563046 25.79780586 5.56126404 28.16490173 C5.76935097 29.6357646 5.97427355 31.10707941 6.17567444 32.57887268 C6.58682374 35.51209763 7.06064317 38.18192951 8 41 C7.47479212 29.79175986 7.47479212 29.79175986 5.9375 18.6875 C4.89340057 13.04936307 4.84928055 7.72733897 5 2 C9.29 2 13.58 2 18 2 C19.32 8.93 20.64 15.86 22 23 C22.66 23 23.32 23 24 23 C25.17877654 21.19652143 25.17877654 21.19652143 26.3125 19 C27.625 16.78125 27.625 16.78125 29 15 C31.8125 14.5 31.8125 14.5 34 15 C34 15.66 34 16.32 34 17 C33.34 17 32.68 17 32 17 C31.73501709 17.72832031 31.47003418 18.45664062 31.19702148 19.20703125 C29.99740202 22.00606178 28.6142812 24.21376508 26.84765625 26.6875 C26.23599609 27.55117188 25.62433594 28.41484375 24.99414062 29.3046875 C24.35669922 30.19414063 23.71925781 31.08359375 23.0625 32 C21.80187018 33.76975498 20.54270747 35.54055611 19.28515625 37.3125 C18.44803101 38.48232422 18.44803101 38.48232422 17.59399414 39.67578125 C15.92881365 42.03226781 15.92881365 42.03226781 14.41967773 44.79296875 C13.95118408 45.52128906 13.48269043 46.24960938 13 47 C12.34 47 11.68 47 11 47 C11 46.34 11 45.68 11 45 C10.34 45 9.68 45 9 45 C9 46.98 9 48.96 9 51 C11.47266765 50.65555119 11.47266765 50.65555119 14 50 C14.33 49.34 14.66 48.68 15 48 C15.66 48 16.32 48 17 48 C17.2475 47.319375 17.495 46.63875 17.75 45.9375 C19.24107978 42.43346252 21.09056284 39.29494339 23 36 C26.06255961 35.9729509 29.1248786 35.95313702 32.1875 35.9375 C33.05181641 35.92912109 33.91613281 35.92074219 34.80664062 35.91210938 C39.00286769 35.89603188 42.90936886 35.92440962 47 37 C47 37.99 47 38.98 47 40 C40.12631267 40.74464946 33.83079148 41.18225237 27 40 C27 40.99 27 41.98 27 43 C26.01 43.495 26.01 43.495 25 44 C24.67 44.99 24.34 45.98 24 47 C22.68 47 21.36 47 20 47 C19.67 47.99 19.34 48.98 19 50 C18.34 50 17.68 50 17 50 C16.01 52.475 16.01 52.475 15 55 C11.6875 55.3125 11.6875 55.3125 8 55 C3.98879137 50.5377703 4.04999927 44.45457899 3.4375 38.75 C2.71814527 32.37857242 1.9453825 26.13252582 0.44799805 19.89135742 C-1.0226191 13.68270837 -1.41425785 7.36007634 -1 1 C-0.67 0.67 -0.34 0.34 0 0 Z " fill="#121212" transform="translate(29,31)"/>
<path d="M0 0 C2.31 0 4.62 0 7 0 C8.10707039 3.32121118 8.16531403 5.88019423 8.22119141 9.37988281 C8.24436432 10.69845276 8.26753723 12.01702271 8.29141235 13.37554932 C8.31172756 14.81807083 8.33177084 16.2605962 8.3515625 17.703125 C8.37469137 19.18422849 8.39808181 20.66532793 8.42172241 22.14642334 C8.47017701 25.25333951 8.51509687 28.36028229 8.55761719 31.46728516 C8.61226246 35.43611322 8.67614722 39.40472865 8.74279213 43.37337112 C8.79306769 46.43435312 8.83810751 49.49539566 8.88163376 52.55648041 C8.90310009 54.01883222 8.92623112 55.48116064 8.9510994 56.94345856 C8.98527845 58.99644996 9.0123126 61.04942131 9.03759766 63.10253906 C9.05456696 64.26819397 9.07153625 65.43384888 9.08901978 66.63482666 C8.99521568 70.18085944 8.69203397 73.51964877 8 77 C5.41246844 78.29376578 3.45041015 78.16832397 0.5625 78.1875 C-0.40558594 78.20167969 -1.37367187 78.21585937 -2.37109375 78.23046875 C-5 78 -5 78 -8 76 C-8.328125 72.97265625 -8.328125 72.97265625 -8.25 69.0625 C-8.23686768 68.36680908 -8.22373535 67.67111816 -8.21020508 66.9543457 C-8.15774078 64.63542352 -8.07889039 62.31816364 -8 60 C-7.97921387 59.1534082 -7.95842773 58.30681641 -7.93701172 57.43457031 C-7.8718744 54.85127243 -7.78370139 52.26981302 -7.6875 49.6875 C-7.66526367 48.86967041 -7.64302734 48.05184082 -7.62011719 47.20922852 C-7.34648554 41.34648554 -7.34648554 41.34648554 -4 38 C-3.34 49.88 -2.68 61.76 -2 74 C-1.01 68.72 -0.02 63.44 1 58 C1.495 57.505 1.495 57.505 2 57 C1.34 56.67 0.68 56.34 0 56 C0.00523682 55.2479126 0.01047363 54.4958252 0.01586914 53.72094727 C0.03657227 50.33480658 0.04963877 46.94867916 0.0625 43.5625 C0.07087891 42.37849609 0.07925781 41.19449219 0.08789062 39.97460938 C0.09111328 38.84990234 0.09433594 37.72519531 0.09765625 36.56640625 C0.10289307 35.52427979 0.10812988 34.48215332 0.11352539 33.40844727 C0.27305556 31.04871253 0.27305556 31.04871253 -1 30 C-1.07302546 28.0429178 -1.08363306 26.08333012 -1.0625 24.125 C-1.05347656 23.05507812 -1.04445313 21.98515625 -1.03515625 20.8828125 C-1.01775391 19.45582031 -1.01775391 19.45582031 -1 18 C-1 17.01 -1 16.02 -1 15 C-0.76346382 12.19535676 -0.48986239 9.39524465 -0.21875 6.59375 C0.0420195 3.93559511 0.0420195 3.93559511 0 1 C0 0.67 0 0.34 0 0 Z " fill="#191C19" transform="translate(105,121)"/>
<path d="M0 0 C2.7302389 -0.1083667 5.45614543 -0.18746694 8.1875 -0.25 C8.95642578 -0.28351562 9.72535156 -0.31703125 10.51757812 -0.3515625 C14.43032033 -0.41873404 16.53332341 -0.2673668 20 1.71875 C22.22798849 4.26004937 22.66572457 5.42309022 22.8125 8.75 C22.86019531 9.54921875 22.90789063 10.3484375 22.95703125 11.171875 C22.97121094 11.77515625 22.98539063 12.3784375 23 13 C24.65 12.67 26.3 12.34 28 12 C28.33 11.01 28.66 10.02 29 9 C33.06005808 5.72897208 36.85695631 5.57025599 41.875 5.6875 C42.55691406 5.68427734 43.23882812 5.68105469 43.94140625 5.67773438 C49.33985086 5.73428951 55.0184651 6.0184651 59 10 C59 10.99 59 11.98 59 13 C60.65 13 62.3 13 64 13 C64.144375 12.21625 64.28875 11.4325 64.4375 10.625 C65 8 65 8 66 6 C73.26 6 80.52 6 88 6 C88 6.66 88 7.32 88 8 C88.66 8 89.32 8 90 8 C90.495 10.475 90.495 10.475 91 13 C91.60055206 12.98889694 92.20110413 12.97779388 92.81985474 12.96635437 C99.08157449 12.85556708 105.34301496 12.78025248 111.60546875 12.7253418 C113.9411958 12.70022819 116.27684451 12.66613072 118.61230469 12.62280273 C121.97350414 12.56201508 125.33366285 12.53375788 128.6953125 12.51171875 C129.73615997 12.48591232 130.77700745 12.4601059 131.84939575 12.43351746 C139.96330241 12.43039246 139.96330241 12.43039246 143.64306641 15.33496094 C147.2984853 19.46822722 147.19095434 22.91616806 147.3828125 28.265625 C146.77787557 34.16684647 144.29608316 40.70391684 140 45 C129.08630227 46.39054836 118.82453134 45.74171315 108 44 C108.33 42.68 108.66 41.36 109 40 C117.58 39.67 126.16 39.34 135 39 C135.66 37.35 136.32 35.7 137 34 C137.99 33.34 138.98 32.68 140 32 C141.98134842 26.94756154 142.07946867 23.28939648 141 18 C137.72021 16.90673667 135.36806155 16.90114869 131.91796875 16.9375 C130.6851416 16.94587891 129.45231445 16.95425781 128.18212891 16.96289062 C126.86390137 16.97513672 125.54567383 16.98738281 124.1875 17 C111.4312307 17.0785404 98.73643907 16.74141433 86 16 C85.01 13.03 85.01 13.03 84 10 C78.39 10 72.78 10 67 10 C66.34 11.98 65.68 13.96 65 16 C62.03 16 59.06 16 56 16 C55.34 14.02 54.68 12.04 54 10 C50.54173658 9.94210994 47.08359707 9.90644179 43.625 9.875 C42.64015625 9.85824219 41.6553125 9.84148438 40.640625 9.82421875 C39.69960937 9.81777344 38.75859375 9.81132813 37.7890625 9.8046875 C36.91975098 9.79421387 36.05043945 9.78374023 35.15478516 9.77294922 C32.78654061 9.79404891 32.78654061 9.79404891 31 12 C30.3574765 14.06874034 30.3574765 14.06874034 30 16 C28.865625 16.268125 27.73125 16.53625 26.5625 16.8125 C25.386875 17.204375 24.21125 17.59625 23 18 C22.67 18.99 22.34 19.98 22 21 C21.34 21 20.68 21 20 21 C19.79503906 19.78441406 19.59007813 18.56882812 19.37890625 17.31640625 C19.10698039 15.73173486 18.83483357 14.14710137 18.5625 12.5625 C18.42779297 11.76005859 18.29308594 10.95761719 18.15429688 10.13085938 C17.79732776 6.24528697 17.79732776 6.24528697 16 3 C13.30764224 2.76321284 10.63501844 2.57801975 7.9375 2.4375 C7.17888672 2.39431641 6.42027344 2.35113281 5.63867188 2.30664062 C3.75934562 2.20026367 1.87969756 2.09960066 0 2 C0 1.34 0 0.68 0 0 Z " fill="#262626" transform="translate(33,27)"/>
<path d="M0 0 C0.99 0.33 1.98 0.66 3 1 C2.01 1.495 2.01 1.495 1 2 C1.33 3.65 1.66 5.3 2 7 C5.465 6.505 5.465 6.505 9 6 C9 4.68 9 3.36 9 2 C8.01 2 7.02 2 6 2 C5.34 3.32 4.68 4.64 4 6 C4 4.35 4 2.7 4 1 C6.86881251 -0.43440626 8.87047355 0.45835119 12 1 C13.99965715 1.03703069 16.00056665 1.04760556 18 1 C17.67 2.98 17.34 4.96 17 7 C18.15628906 6.96519531 18.15628906 6.96519531 19.3359375 6.9296875 C20.33882812 6.91164063 21.34171875 6.89359375 22.375 6.875 C23.37273437 6.85179687 24.37046875 6.82859375 25.3984375 6.8046875 C28 7 28 7 30 9 C29.68128488 15.26806411 28.60001147 21.39998853 24 26 C21.12670898 26.24291992 21.12670898 26.24291992 17.49609375 26.23046875 C16.19865234 26.22853516 14.90121094 26.22660156 13.56445312 26.22460938 C12.88777588 26.21840576 12.21109863 26.21220215 11.51391602 26.20581055 C9.44209529 26.18754052 7.37072103 26.18530095 5.29882812 26.18554688 C-4.85991743 26.14008257 -4.85991743 26.14008257 -6 25 C-5.94400217 18.47625273 -4.75133136 11.75133136 0 7 C-0.30271961 5.65938457 -0.63837971 4.32594105 -1 3 C-0.67 2.01 -0.34 1.02 0 0 Z " fill="#383838" transform="translate(67,38)"/>
<path d="M0 0 C2.95857409 -0.05379226 5.91617721 -0.09357093 8.875 -0.125 C9.71675781 -0.14175781 10.55851562 -0.15851562 11.42578125 -0.17578125 C12.23144531 -0.18222656 13.03710938 -0.18867188 13.8671875 -0.1953125 C14.98262939 -0.21102295 14.98262939 -0.21102295 16.12060547 -0.22705078 C18 0 18 0 20 2 C21.65982537 7.60447207 22.25296207 13.18187229 22 19 C22.66 19 23.32 19 24 19 C24.144375 18.360625 24.28875 17.72125 24.4375 17.0625 C25 15 25 15 26 14 C27.99958364 13.95919217 30.00045254 13.95745644 32 14 C32.12375 13.21625 32.2475 12.4325 32.375 11.625 C33 9 33 9 35 7 C37.15478516 6.77294922 37.15478516 6.77294922 39.7890625 6.8046875 C40.73007813 6.81113281 41.67109375 6.81757812 42.640625 6.82421875 C43.62546875 6.84097656 44.6103125 6.85773437 45.625 6.875 C46.61757812 6.88402344 47.61015625 6.89304687 48.6328125 6.90234375 C51.08878134 6.92595884 53.54427168 6.95889201 56 7 C56 7.33 56 7.66 56 8 C51.71 8 47.42 8 43 8 C41.9254644 9.7763932 41.9254644 9.7763932 42 11 C42.99 11 43.98 11 45 11 C45 12.32 45 13.64 45 15 C45.99 15.33 46.98 15.66 48 16 C44.7 16 41.4 16 38 16 C37.61781233 14.34385343 37.28604898 12.67542976 37 11 C37.33 10.67 37.66 10.34 38 10 C37.34 9.67 36.68 9.34 36 9 C35.79029441 13.14093698 35.79029441 13.14093698 37 17 C36.38125 17.515625 35.7625 18.03125 35.125 18.5625 C31.02312718 23.26758941 31 27.90564692 31 34 C44.365 34.495 44.365 34.495 58 35 C58 35.33 58 35.66 58 36 C50.08 36 42.16 36 34 36 C34 36.66 34 37.32 34 38 C32.69675781 37.91685547 32.69675781 37.91685547 31.3671875 37.83203125 C27.63568141 37.81116153 24.59331659 37.95994158 21 39 C18.08850839 42.33037406 16.49367593 45.8599941 15 50 C14.34 50 13.68 50 13 50 C12.67 50.99 12.34 51.98 12 53 C10.35 53 8.7 53 7 53 C7 51.02 7 49.04 7 47 C7.66 47 8.32 47 9 47 C9 47.66 9 48.32 9 49 C9.66 49 10.32 49 11 49 C11.21011719 48.34644531 11.42023437 47.69289062 11.63671875 47.01953125 C13.51705122 42.85478339 16.13178281 39.37308095 18.8125 35.6875 C19.86286232 34.23465027 20.9110544 32.78022897 21.95703125 31.32421875 C22.4670166 30.61442871 22.97700195 29.90463867 23.50244141 29.17333984 C25.45163772 26.34455837 27.20587737 23.4157675 28.9284668 20.44458008 C29.28207275 19.96786865 29.63567871 19.49115723 30 19 C30.66 19 31.32 19 32 19 C32 18.34 32 17.68 32 17 C30.35 17 28.7 17 27 17 C26.773125 17.721875 26.54625 18.44375 26.3125 19.1875 C24.75168987 22.53209313 22.6968713 24.51603959 20 27 C17.86257449 19.2972024 16.52501978 11.98030063 16 4 C11.71 4 7.42 4 3 4 C3.29005704 6.52102765 3.5818178 9.04183502 3.875 11.5625 C3.96378418 12.32957275 4.05256836 13.09664551 4.14404297 13.88696289 C4.58344664 17.63656666 5.04190973 21.38009537 5.578125 25.1171875 C6.58315353 32.13802965 7.30052197 38.90434228 7 46 C4.71703558 42.57555337 4.17872846 39.52814085 3.5 35.5625 C3.30990356 34.48560913 3.30990356 34.48560913 3.1159668 33.38696289 C2.86026753 31.93325022 2.60722813 30.47906704 2.35693359 29.02441406 C2.04939694 27.28016379 1.70940803 25.54169184 1.36328125 23.8046875 C-0.17289916 15.80783346 -0.19956809 8.11576888 0 0 Z " fill="#EDEDED" transform="translate(31,29)"/>
<path d="M0 0 C0.66 0 1.32 0 2 0 C0.5981306 63.04355431 0.5981306 63.04355431 -2 75 C-2.33 75 -2.66 75 -3 75 C-3.33 53.22 -3.66 31.44 -4 9 C-5.98 9.33 -7.96 9.66 -10 10 C-10 10.99 -10 11.98 -10 13 C-10.15437283 14.85523067 -10.32233495 16.70935485 -10.5 18.5625 C-10.86910329 22.27567256 -10.86910329 22.27567256 -11 26 C-11.01160156 26.94488281 -11.02320312 27.88976562 -11.03515625 28.86328125 C-11.04417969 30.00152344 -11.05320312 31.13976562 -11.0625 32.3125 C-11.07410156 33.44300781 -11.08570312 34.57351562 -11.09765625 35.73828125 C-11.10227831 38.87494912 -11.10227831 38.87494912 -10.48632812 41.38623047 C-9.98654999 44.07228703 -9.97075438 46.35921818 -10.12109375 49.08203125 C-10.16943359 50.01337891 -10.21777344 50.94472656 -10.26757812 51.90429688 C-10.35168945 53.34385742 -10.35168945 53.34385742 -10.4375 54.8125 C-10.48970703 55.79154297 -10.54191406 56.77058594 -10.59570312 57.77929688 C-10.72487339 60.1865609 -10.85981643 62.59335638 -11 65 C-10.01 65.33 -9.02 65.66 -8 66 C-8.99 66.495 -8.99 66.495 -10 67 C-9.938125 68.7015625 -9.938125 68.7015625 -9.875 70.4375 C-9.85816159 75.14383562 -10.82378223 79.46316004 -12 84 C-12.66 83.67 -13.32 83.34 -14 83 C-14.82178686 57.99232654 -15.13686251 33.020572 -15 8 C-15.99 8.33 -16.98 8.66 -18 9 C-17.67 8.01 -17.34 7.02 -17 6 C-16.34 6 -15.68 6 -15 6 C-15.33 4.35 -15.66 2.7 -16 1 C-14.35 1 -12.7 1 -11 1 C-11 2.65 -11 4.3 -11 6 C-6.85376215 6.40045628 -6.85376215 6.40045628 -3.25 4.6875 C-2.11828201 3.15968072 -1.05466252 1.58199378 0 0 Z " fill="#70716D" transform="translate(116,112)"/>
<path d="M0 0 C1.24587891 0.00837891 2.49175781 0.01675781 3.77539062 0.02539062 C5.07283203 0.05439453 6.37027344 0.08339844 7.70703125 0.11328125 C9.01607422 0.12294922 10.32511719 0.13261719 11.67382812 0.14257812 C21.35184152 0.25809152 21.35184152 0.25809152 22.51953125 1.42578125 C22.34189621 4.77792633 21.8996671 8.08903323 21.51953125 11.42578125 C14.91953125 11.42578125 8.31953125 11.42578125 1.51953125 11.42578125 C1.51953125 12.74578125 1.51953125 14.06578125 1.51953125 15.42578125 C6.13953125 15.42578125 10.75953125 15.42578125 15.51953125 15.42578125 C15.51953125 16.41578125 15.51953125 17.40578125 15.51953125 18.42578125 C6.60953125 18.42578125 -2.30046875 18.42578125 -11.48046875 18.42578125 C-12.62630208 12.69661458 -12.62630208 12.69661458 -11.79296875 8.86328125 C-11.64472656 8.11949219 -11.49648437 7.37570313 -11.34375 6.609375 C-9.10342191 0.94266278 -5.78730953 -0.07365889 0 0 Z " fill="#181818" transform="translate(150.48046875,45.57421875)"/>
<path d="M0 0 C7.01840491 -0.3190184 7.01840491 -0.3190184 10 2 C10.875 4.5 10.875 4.5 11 7 C10.34 7.66 9.68 8.32 9 9 C9.66 9 10.32 9 11 9 C11.14586576 14.0637918 11.28806594 19.12767042 11.42724609 24.19165039 C11.47480513 25.90489299 11.52326956 27.61811076 11.57275391 29.33129883 C11.92505906 41.55772566 12.06238302 53.76859597 12 66 C11.67 66 11.34 66 11 66 C10.67 60.39 10.34 54.78 10 49 C8.86203885 51.2759223 8.83357795 52.68022095 8.75390625 55.2109375 C8.72103516 56.04367188 8.68816406 56.87640625 8.65429688 57.734375 C8.5933748 59.48685673 8.53604988 61.2394674 8.48242188 62.9921875 C8.44826172 63.8275 8.41410156 64.6628125 8.37890625 65.5234375 C8.3538501 66.28575684 8.32879395 67.04807617 8.30297852 67.83349609 C7.96765547 70.23128555 7.18867344 71.90562814 6 74 C5.6738868 69.31336877 5.36406598 64.62576627 5.0625 59.9375 C5.01576141 59.21835419 4.96902283 58.49920837 4.92086792 57.75827026 C4.33336826 48.57180858 3.91918204 39.39946499 3.75 30.1953125 C3.73279404 29.30604568 3.71558807 28.41677887 3.69786072 27.50056458 C3.61652581 23.12459676 3.5549325 18.74936403 3.51782227 14.37280273 C3.49277798 12.77066383 3.46732662 11.16853122 3.44140625 9.56640625 C3.44136597 8.82830719 3.44132568 8.09020813 3.44128418 7.32974243 C3.43100084 5.07086139 3.43100084 5.07086139 3 2 C2.01 1.34 1.02 0.68 0 0 Z " fill="#2B2F2B" transform="translate(90,111)"/>
<path d="M0 0 C2.23634971 3.68183137 2.69069404 7.53184528 3.25390625 11.72265625 C3.41257423 12.83549232 3.41257423 12.83549232 3.57444763 13.97080994 C3.91038398 16.3338332 4.23695456 18.69802475 4.5625 21.0625 C4.89306526 23.43030892 5.22563046 25.79780586 5.56126404 28.16490173 C5.76935097 29.6357646 5.97427355 31.10707941 6.17567444 32.57887268 C6.58682374 35.51209763 7.06064317 38.18192951 8 41 C8 37.37 8 33.74 8 30 C10 32 10 32 10.23046875 34.828125 C10.20919922 36.52195312 10.20919922 36.52195312 10.1875 38.25 C10.17783203 39.92835937 10.17783203 39.92835937 10.16796875 41.640625 C10.00819818 44.83603635 9.59481353 47.85938455 9 51 C11.47266765 50.65555119 11.47266765 50.65555119 14 50 C14.33 49.34 14.66 48.68 15 48 C15.66 48 16.32 48 17 48 C17.2475 47.319375 17.495 46.63875 17.75 45.9375 C19.24107978 42.43346252 21.09056284 39.29494339 23 36 C26.06255961 35.9729509 29.1248786 35.95313702 32.1875 35.9375 C33.05181641 35.92912109 33.91613281 35.92074219 34.80664062 35.91210938 C39.00286769 35.89603188 42.90936886 35.92440962 47 37 C47 37.99 47 38.98 47 40 C40.12631267 40.74464946 33.83079148 41.18225237 27 40 C27 40.99 27 41.98 27 43 C26.01 43.495 26.01 43.495 25 44 C24.67 44.99 24.34 45.98 24 47 C22.68 47 21.36 47 20 47 C19.67 47.99 19.34 48.98 19 50 C18.34 50 17.68 50 17 50 C16.01 52.475 16.01 52.475 15 55 C11.6875 55.3125 11.6875 55.3125 8 55 C3.98879137 50.5377703 4.04999927 44.45457899 3.4375 38.75 C2.71814527 32.37857242 1.9453825 26.13252582 0.44799805 19.89135742 C-1.0226191 13.68270837 -1.41425785 7.36007634 -1 1 C-0.67 0.67 -0.34 0.34 0 0 Z " fill="#262626" transform="translate(29,31)"/>
<path d="M0 0 C2.31 0 4.62 0 7 0 C8.11878427 3.35635282 8.15885588 5.95288354 8.20532227 9.4909668 C8.21522186 10.1448941 8.22512146 10.79882141 8.23532104 11.4725647 C8.26687783 13.6314127 8.29167032 15.79028271 8.31640625 17.94921875 C8.33698081 19.44709338 8.35797742 20.94496228 8.37937927 22.44282532 C8.43454809 26.3833857 8.48398021 30.32399803 8.53222656 34.26464844 C8.58247951 38.28650531 8.63814577 42.30828684 8.69335938 46.33007812 C8.80087746 54.21998836 8.90233648 62.10996166 9 70 C8.34 70 7.68 70 7 70 C6.97494385 69.19481934 6.9498877 68.38963867 6.92407227 67.56005859 C6.82748842 64.49959897 6.7283739 61.43923338 6.62768555 58.37890625 C6.56436561 56.43235185 6.50382035 54.4857078 6.44335938 52.5390625 C6.16030236 44.00380481 5.67165439 35.51311642 5 27 C4.67 28.98 4.34 30.96 4 33 C3.67 33 3.34 33 3 33 C2.67 40.59 2.34 48.18 2 56 C1.34 56 0.68 56 0 56 C0.00785522 54.8718689 0.00785522 54.8718689 0.01586914 53.72094727 C0.03657227 50.33480658 0.04963877 46.94867916 0.0625 43.5625 C0.07087891 42.37849609 0.07925781 41.19449219 0.08789062 39.97460938 C0.09272461 38.28754883 0.09272461 38.28754883 0.09765625 36.56640625 C0.10289307 35.52427979 0.10812988 34.48215332 0.11352539 33.40844727 C0.27305556 31.04871253 0.27305556 31.04871253 -1 30 C-1.07302546 28.0429178 -1.08363306 26.08333012 -1.0625 24.125 C-1.05347656 23.05507812 -1.04445313 21.98515625 -1.03515625 20.8828125 C-1.01775391 19.45582031 -1.01775391 19.45582031 -1 18 C-1 17.01 -1 16.02 -1 15 C-0.76346382 12.19535676 -0.48986239 9.39524465 -0.21875 6.59375 C0.0420195 3.93559511 0.0420195 3.93559511 0 1 C0 0.67 0 0.34 0 0 Z " fill="#1D201C" transform="translate(105,121)"/>
<path d="M0 0 C7.18991081 -0.05068173 14.3797756 -0.08572588 21.56982422 -0.10986328 C24.01613079 -0.11992504 26.46242533 -0.13357581 28.90869141 -0.15087891 C32.42353282 -0.17511919 35.9382153 -0.18648138 39.453125 -0.1953125 C40.5480426 -0.20563507 41.64296021 -0.21595764 42.77105713 -0.22659302 C43.79181335 -0.22674408 44.81256958 -0.22689514 45.86425781 -0.22705078 C46.76138489 -0.231492 47.65851196 -0.23593323 48.58282471 -0.24050903 C51.2190579 0.02179627 52.81104718 0.5120826 55 2 C56.52630023 7.08766743 55.79848563 10.60400226 53.984375 15.3984375 C53 17 53 17 50 18 C49.814375 19.2065625 49.814375 19.2065625 49.625 20.4375 C49.41875 21.283125 49.2125 22.12875 49 23 C48.01 23.495 48.01 23.495 47 24 C47 23.34 47 22.68 47 22 C38.09 22 29.18 22 20 22 C20 21.67 20 21.34 20 21 C28.58 21 37.16 21 46 21 C46 20.01 46 19.02 46 18 C41.38 18 36.76 18 32 18 C32 16.68 32 15.36 32 14 C38.6 14 45.2 14 52 14 C52 10.7 52 7.4 52 4 C48.06739056 3.92578546 44.13505278 3.87136864 40.2019043 3.83520508 C38.20672299 3.81271667 36.21173787 3.77459802 34.21679688 3.73632812 C32.96318359 3.72666016 31.70957031 3.71699219 30.41796875 3.70703125 C29.26063232 3.6913208 28.1032959 3.67561035 26.91088867 3.65942383 C24.01490082 3.75733636 24.01490082 3.75733636 22.1418457 5.3503418 C20.6583755 7.493555 20.3457958 9.4411111 20 12 C19.67 10.68 19.34 9.36 19 8 C16.03 8 13.06 8 10 8 C9.67 8.99 9.34 9.98 9 11 C9 9.68 9 8.36 9 7 C12.3 7 15.6 7 19 7 C19 5.35 19 3.7 19 2 C12.73 2 6.46 2 0 2 C0 1.34 0 0.68 0 0 Z " fill="#F0F0F0" transform="translate(120,43)"/>
<path d="M0 0 C2.7302389 -0.1083667 5.45614543 -0.18746694 8.1875 -0.25 C8.95642578 -0.28351562 9.72535156 -0.31703125 10.51757812 -0.3515625 C14.43032033 -0.41873404 16.53332341 -0.2673668 20 1.71875 C22.22798849 4.26004937 22.66572457 5.42309022 22.8125 8.75 C22.86019531 9.54921875 22.90789063 10.3484375 22.95703125 11.171875 C22.97121094 11.77515625 22.98539063 12.3784375 23 13 C24.65 12.67 26.3 12.34 28 12 C28.33 11.01 28.66 10.02 29 9 C33.06005808 5.72897208 36.85695631 5.57025599 41.875 5.6875 C42.55691406 5.68427734 43.23882812 5.68105469 43.94140625 5.67773438 C49.33985086 5.73428951 55.0184651 6.0184651 59 10 C59 10.99 59 11.98 59 13 C60.65 13 62.3 13 64 13 C64.144375 12.21625 64.28875 11.4325 64.4375 10.625 C65 8 65 8 66 6 C73.26 6 80.52 6 88 6 C88 6.66 88 7.32 88 8 C88.66 8 89.32 8 90 8 C90 9.65 90 11.3 90 13 C89.34 13 88.68 13 88 13 C87.505 11.515 87.505 11.515 87 10 C86.01 10 85.02 10 84 10 C78.33333333 10 72.66666667 10 67 10 C66.34 11.98 65.68 13.96 65 16 C62.03 16 59.06 16 56 16 C55.34 14.02 54.68 12.04 54 10 C50.54173658 9.94210994 47.08359707 9.90644179 43.625 9.875 C42.64015625 9.85824219 41.6553125 9.84148438 40.640625 9.82421875 C39.69960937 9.81777344 38.75859375 9.81132813 37.7890625 9.8046875 C36.91975098 9.79421387 36.05043945 9.78374023 35.15478516 9.77294922 C32.78654061 9.79404891 32.78654061 9.79404891 31 12 C30.3574765 14.06874034 30.3574765 14.06874034 30 16 C28.865625 16.268125 27.73125 16.53625 26.5625 16.8125 C25.386875 17.204375 24.21125 17.59625 23 18 C22.67 18.99 22.34 19.98 22 21 C21.34 21 20.68 21 20 21 C19.79503906 19.78441406 19.59007813 18.56882812 19.37890625 17.31640625 C19.10698039 15.73173486 18.83483357 14.14710137 18.5625 12.5625 C18.42779297 11.76005859 18.29308594 10.95761719 18.15429688 10.13085938 C17.79732776 6.24528697 17.79732776 6.24528697 16 3 C13.30764224 2.76321284 10.63501844 2.57801975 7.9375 2.4375 C7.17888672 2.39431641 6.42027344 2.35113281 5.63867188 2.30664062 C3.75934562 2.20026367 1.87969756 2.09960066 0 2 C0 1.34 0 0.68 0 0 Z " fill="#2C2D2E" transform="translate(33,27)"/>
<path d="M0 0 C2.95857409 -0.05379226 5.91617721 -0.09357093 8.875 -0.125 C9.71675781 -0.14175781 10.55851562 -0.15851562 11.42578125 -0.17578125 C12.23144531 -0.18222656 13.03710938 -0.18867188 13.8671875 -0.1953125 C14.98262939 -0.21102295 14.98262939 -0.21102295 16.12060547 -0.22705078 C18 0 18 0 20 2 C21.65982537 7.60447207 22.25296207 13.18187229 22 19 C22.66 19 23.32 19 24 19 C24.12375 18.360625 24.2475 17.72125 24.375 17.0625 C24.58125 16.381875 24.7875 15.70125 25 15 C25.66 14.67 26.32 14.34 27 14 C27 14.66 27 15.32 27 16 C28.65 16 30.3 16 32 16 C32 16.33 32 16.66 32 17 C30.35 17 28.7 17 27 17 C26.773125 17.721875 26.54625 18.44375 26.3125 19.1875 C24.75168987 22.53209313 22.6968713 24.51603959 20 27 C17.86257449 19.2972024 16.52501978 11.98030063 16 4 C11.71 4 7.42 4 3 4 C3.29005704 6.52102765 3.5818178 9.04183502 3.875 11.5625 C3.96378418 12.32957275 4.05256836 13.09664551 4.14404297 13.88696289 C4.58344664 17.63656666 5.04190973 21.38009537 5.578125 25.1171875 C6.58315353 32.13802965 7.30052197 38.90434228 7 46 C4.71703558 42.57555337 4.17872846 39.52814085 3.5 35.5625 C3.30990356 34.48560913 3.30990356 34.48560913 3.1159668 33.38696289 C2.86026753 31.93325022 2.60722813 30.47906704 2.35693359 29.02441406 C2.04939694 27.28016379 1.70940803 25.54169184 1.36328125 23.8046875 C-0.17289916 15.80783346 -0.19956809 8.11576888 0 0 Z " fill="#AFAFAF" transform="translate(31,29)"/>
<path d="M0 0 C0.82741699 0.01047363 1.65483398 0.02094727 2.50732422 0.03173828 C3.40322266 0.03818359 4.29912109 0.04462891 5.22216797 0.05126953 C6.62789062 0.07640625 6.62789062 0.07640625 8.06201172 0.10205078 C9.47933594 0.11558594 9.47933594 0.11558594 10.92529297 0.12939453 C13.26278464 0.15300556 15.59977295 0.18593562 17.93701172 0.22705078 C17.93701172 1.54705078 17.93701172 2.86705078 17.93701172 4.22705078 C14.63701172 4.22705078 11.33701172 4.22705078 7.93701172 4.22705078 C7.60701172 7.52705078 7.27701172 10.82705078 6.93701172 14.22705078 C9.24701172 14.55705078 11.55701172 14.88705078 13.93701172 15.22705078 C13.93701172 16.21705078 13.93701172 17.20705078 13.93701172 18.22705078 C10.64541856 18.28495431 7.35395569 18.32061339 4.06201172 18.35205078 C2.65628906 18.3771875 2.65628906 18.3771875 1.22216797 18.40283203 C-0.12167969 18.4125 -0.12167969 18.4125 -1.49267578 18.42236328 C-2.32009277 18.43283691 -3.14750977 18.44331055 -4 18.45410156 C-6.06298828 18.22705078 -6.06298828 18.22705078 -8.06298828 16.22705078 C-8.98081961 11.17897845 -6.40385723 6.57559931 -4.06298828 2.22705078 C-2.06298828 0.22705078 -2.06298828 0.22705078 0 0 Z " fill="#272727" transform="translate(121.06298828125,45.77294921875)"/>
<path d="M0 0 C0.66 0 1.32 0 2 0 C0.5981306 63.04355431 0.5981306 63.04355431 -2 75 C-2.33 75 -2.66 75 -3 75 C-3.33 53.22 -3.66 31.44 -4 9 C-6.97 8.505 -6.97 8.505 -10 8 C-9.67 7.34 -9.34 6.68 -9 6 C-8.05125 5.896875 -7.1025 5.79375 -6.125 5.6875 C-2.79565854 5.32926916 -2.79565854 5.32926916 -1.25 2.4375 C-0.8375 1.633125 -0.425 0.82875 0 0 Z " fill="#40423C" transform="translate(116,112)"/>
<path d="M0 0 C6.2780555 0.33042397 10.52448457 1.41118038 15 6 C18.47880411 10.89495446 19.49408964 15.07092435 19 21 C18.34 21.33 17.68 21.66 17 22 C17.33 22.99 17.66 23.98 18 25 C18.66 25.33 19.32 25.66 20 26 C19.34 29.3 18.68 32.6 18 36 C16.68 35.67 15.36 35.34 14 35 C14 34.34 14 33.68 14 33 C13.34 33 12.68 33 12 33 C12.33 32.34 12.66 31.68 13 31 C12.67 30.01 12.34 29.02 12 28 C12.9375 25.8125 12.9375 25.8125 14 24 C13.01 24 12.02 24 11 24 C11 23.34 11 22.68 11 22 C10.34 22 9.68 22 9 22 C9 21.34 9 20.68 9 20 C10.98 19.34 12.96 18.68 15 18 C15 17.34 15 16.68 15 16 C14.01 16 13.02 16 12 16 C10 13 10 13 9 11 C8.01 10.67 7.02 10.34 6 10 C6 9.01 6 8.02 6 7 C3.03 6.505 3.03 6.505 0 6 C0 4.02 0 2.04 0 0 Z " fill="#262723" transform="translate(105,71)"/>
<path d="M0 0 C4.62 0 9.24 0 14 0 C12.3675258 6.01047318 10.72857669 12.01646529 9 18 C4.71 18 0.42 18 -4 18 C-3.31005822 11.79052394 -1.70642393 6.00957993 0 0 Z " fill="#3A3A3A" transform="translate(100,46)"/>
<path d="M0 0 C9.9 0 19.8 0 30 0 C30 0.33 30 0.66 30 1 C24.39 1.66 18.78 2.32 13 3 C11.0412479 8.40485179 11.0412479 8.40485179 10.5 11.75 C10 14 10 14 8 16 C5.1796875 16.1953125 5.1796875 16.1953125 1.875 16.125 C0.77929688 16.10695313 -0.31640625 16.08890625 -1.4453125 16.0703125 C-2.28835937 16.04710938 -3.13140625 16.02390625 -4 16 C-3.9108799 14.64475992 -3.80272007 13.290771 -3.6875 11.9375 C-3.62949219 11.18339844 -3.57148437 10.42929687 -3.51171875 9.65234375 C-3 7 -3 7 0 0 Z " fill="#2A2A2A" transform="translate(65,47)"/>
<path d="M0 0 C0.78375 0.04125 1.5675 0.0825 2.375 0.125 C2.705 2.435 3.035 4.745 3.375 7.125 C8.325 5.64 8.325 5.64 13.375 4.125 C14.375 9.125 14.375 9.125 13 11.875 C11.375 14.125 11.375 14.125 10.375 15.125 C8.22941173 15.21275605 6.08095579 15.23195219 3.93359375 15.22265625 C2.62841797 15.21943359 1.32324219 15.21621094 -0.02148438 15.21289062 C-1.4101569 15.20453401 -2.79882877 15.19606905 -4.1875 15.1875 C-5.58007656 15.18248666 -6.97265481 15.17792347 -8.36523438 15.17382812 C-11.7851987 15.16199434 -15.20507844 15.1455088 -18.625 15.125 C-18.625 14.795 -18.625 14.465 -18.625 14.125 C-18.02171875 14.06441406 -17.4184375 14.00382812 -16.796875 13.94140625 C-15.99765625 13.85761719 -15.1984375 13.77382813 -14.375 13.6875 C-13.58609375 13.60628906 -12.7971875 13.52507813 -11.984375 13.44140625 C-9.80135361 13.14865007 -7.7476818 12.70435581 -5.625 12.125 C-5.57601562 11.42632812 -5.52703125 10.72765625 -5.4765625 10.0078125 C-5.40179688 9.09773438 -5.32703125 8.18765625 -5.25 7.25 C-5.18039063 6.34507813 -5.11078125 5.44015625 -5.0390625 4.5078125 C-4.4359117 1.03685032 -3.52544026 0.16787811 0 0 Z " fill="#565656" transform="translate(80.625,48.875)"/>
<path d="M0 0 C0 1.65 0 3.3 0 5 C-0.99 5 -1.98 5 -3 5 C-4.33981486 5.3062434 -5.67511887 5.63451555 -7 6 C-7.06058594 6.75925781 -7.12117188 7.51851563 -7.18359375 8.30078125 C-7.26738281 9.29464844 -7.35117188 10.28851563 -7.4375 11.3125 C-7.51871094 12.29863281 -7.59992188 13.28476563 -7.68359375 14.30078125 C-8 17 -8 17 -9 20 C-4.545 20.99 -4.545 20.99 0 22 C-0.33 22.99 -0.66 23.98 -1 25 C-1.66 25 -2.32 25 -3 25 C-3.33 26.32 -3.66 27.64 -4 29 C-4 27.68 -4 26.36 -4 25 C-7.96 25 -11.92 25 -16 25 C-15.67 24.01 -15.34 23.02 -15 22 C-15.99 21.67 -16.98 21.34 -18 21 C-17.85904936 19.3745692 -17.71207913 17.74965949 -17.5625 16.125 C-17.48128906 15.22007813 -17.40007812 14.31515625 -17.31640625 13.3828125 C-17 11 -17 11 -16 9 C-15.34 9 -14.68 9 -14 9 C-13.835 8.2575 -13.67 7.515 -13.5 6.75 C-10.69537675 1.60819071 -5.63469295 0 0 0 Z " fill="#393B39" transform="translate(104,71)"/>
<path d="M0 0 C0.66 0.33 1.32 0.66 2 1 C1.25 7.625 1.25 7.625 -1 11 C-1.66 11 -2.32 11 -3 11 C-3.0825 11.78375 -3.165 12.5675 -3.25 13.375 C-4 16 -4 16 -5.74853516 17.13598633 C-8.20294619 18.07788187 -10.15156689 18.32849842 -12.7734375 18.44921875 C-13.6809375 18.49240234 -14.5884375 18.53558594 -15.5234375 18.58007812 C-16.46445313 18.61552734 -17.40546875 18.65097656 -18.375 18.6875 C-19.30828125 18.73455078 -20.2415625 18.78160156 -21.203125 18.83007812 C-25.95640785 19.03542533 -30.32054241 19.04074893 -35 18 C-34.67 16.68 -34.34 15.36 -34 14 C-25.42 13.67 -16.84 13.34 -8 13 C-7.34 11.35 -6.68 9.7 -6 8 C-5.154375 7.690625 -4.30875 7.38125 -3.4375 7.0625 C-2.2309375 6.5365625 -2.2309375 6.5365625 -1 6 C-0.10169161 2.94727535 -0.10169161 2.94727535 0 0 Z " fill="#040404" transform="translate(176,53)"/>
<path d="M0 0 C3.06255961 -0.0270491 6.1248786 -0.04686298 9.1875 -0.0625 C10.48397461 -0.07506836 10.48397461 -0.07506836 11.80664062 -0.08789062 C16.00286769 -0.10396812 19.90936886 -0.07559038 24 1 C24 1.99 24 2.98 24 4 C17.12631267 4.74464946 10.83079148 5.18225237 4 4 C4 4.99 4 5.98 4 7 C3.01 7.495 3.01 7.495 2 8 C1.67 8.99 1.34 9.98 1 11 C-2.5625 12.1875 -2.5625 12.1875 -6 13 C-5.34215037 9.70319035 -4.10579427 7.15882078 -2.4375 4.25 C-1.98246094 3.45078125 -1.52742188 2.6515625 -1.05859375 1.828125 C-0.53458984 0.92320313 -0.53458984 0.92320313 0 0 Z " fill="#151615" transform="translate(52,67)"/>
<path d="M0 0 C4.95 0 9.9 0 15 0 C15 0.66 15 1.32 15 2 C10.71 2 6.42 2 2 2 C2.27714844 3.62808594 2.55429687 5.25617187 2.83984375 6.93359375 C3.2058607 9.1015403 3.57173875 11.2695103 3.9375 13.4375 C4.11990234 14.50677734 4.30230469 15.57605469 4.49023438 16.67773438 C7.17415672 32.6348727 7.17415672 32.6348727 7.0625 40.5625 C7.05347656 41.40941406 7.04445313 42.25632813 7.03515625 43.12890625 C7.02355469 43.74636719 7.01195312 44.36382812 7 45 C4.71701843 41.57552764 4.17880824 38.5281449 3.5 34.5625 C3.37326904 33.84529785 3.24653809 33.1280957 3.1159668 32.38916016 C2.86019908 30.9361922 2.60716044 29.48274104 2.35693359 28.02880859 C2.04779873 26.27168772 1.70828761 24.51996227 1.36328125 22.76953125 C-0.09422888 15.10985034 -0.15589161 7.79458045 0 0 Z " fill="#D5D5D5" transform="translate(31,30)"/>
<path d="M0 0 C0.33 0 0.66 0 1 0 C0.67 3.3 0.34 6.6 0 10 C-0.66 9.34 -1.32 8.68 -2 8 C-4.9093558 7.85482256 -7.719946 7.81369204 -10.625 7.875 C-11.42679688 7.88402344 -12.22859375 7.89304687 -13.0546875 7.90234375 C-15.03658523 7.92593777 -17.01832981 7.96180935 -19 8 C-18.67 6.02 -18.34 4.04 -18 2 C-8.45655626 0.9246824 -8.45655626 0.9246824 -3.9375 1 C-2.968125 1 -1.99875 1 -1 1 C-0.67 0.67 -0.34 0.34 0 0 Z " fill="#1A1A1A" transform="translate(172,47)"/>
<path d="M0 0 C0.33 0 0.66 0 1 0 C0.0125055 43.21479166 0.0125055 43.21479166 -1 62 C-1.33 62 -1.66 62 -2 62 C-3.0741616 54.98787306 -3.19187889 48.08698652 -3.1875 41 C-3.18741943 39.78135254 -3.18733887 38.56270508 -3.18725586 37.30712891 C-2.99448502 5.98897005 -2.99448502 5.98897005 0 0 Z " fill="#7F7B73" transform="translate(117,113)"/>
<path d="M0 0 C2.31243792 -0.02685412 4.6249627 -0.04632841 6.9375 -0.0625 C8.22527344 -0.07410156 9.51304688 -0.08570313 10.83984375 -0.09765625 C14 0 14 0 15 1 C15 2.65 15 4.3 15 6 C18.63 6 22.26 6 26 6 C26.21544006 11.23115393 25.52370193 15.43785303 24 20.4375 C23.62875 21.67371094 23.2575 22.90992188 22.875 24.18359375 C22.58625 25.11300781 22.2975 26.04242188 22 27 C20 24 20 24 20.27734375 21.6953125 C20.49519531 20.84710938 20.71304688 19.99890625 20.9375 19.125 C22.00519485 14.94372796 21.90841278 13.5420639 21 9 C15.555 8.505 15.555 8.505 10 8 C10.33 6.02 10.66 4.04 11 2 C9.9275 2.185625 8.855 2.37125 7.75 2.5625 C4.59608454 2.9304568 2.90181508 3.04465343 0 2 C0 1.34 0 0.68 0 0 Z " fill="#EFEFEF" transform="translate(74,37)"/>
<path d="M0 0 C0.33 0 0.66 0 1 0 C1.96808615 6.94601815 2.32720306 13.83877705 2.60546875 20.84179688 C2.64285156 21.69193359 2.68023437 22.54207031 2.71875 23.41796875 C2.74904297 24.17875732 2.77933594 24.9395459 2.81054688 25.72338867 C2.95560798 28.03633097 2.95560798 28.03633097 3.50708008 30.40917969 C4.48614759 35.55522449 4.18464802 40.84052321 4.1875 46.0625 C4.19974609 47.24650391 4.21199219 48.43050781 4.22460938 49.65039062 C4.22654297 50.78798828 4.22847656 51.92558594 4.23046875 53.09765625 C4.23457764 54.13414307 4.23868652 55.17062988 4.24291992 56.23852539 C3.99951666 59.00549457 3.42356649 60.64408032 2 63 C0.4870839 41.9600046 -0.30023429 21.09723257 0 0 Z " fill="#63635C" transform="translate(94,122)"/>
<path d="M0 0 C3.42301484 3.40915648 3.01139722 7.49176557 3.2421875 12.1171875 C2.75402152 18.06060835 0.2480819 24.6034806 -4.0703125 28.921875 C-6.68216185 29.21404798 -9.26275745 29.43745538 -11.8828125 29.609375 C-12.60791016 29.66931641 -13.33300781 29.72925781 -14.08007812 29.79101562 C-17.95689052 30.04994271 -20.79508827 30.16553255 -24.0703125 27.921875 C-23.03390625 27.87289062 -21.9975 27.82390625 -20.9296875 27.7734375 C-19.55987042 27.69837903 -18.19008002 27.62283253 -16.8203125 27.546875 C-16.13839844 27.5159375 -15.45648438 27.485 -14.75390625 27.453125 C-11.12063376 27.24147806 -8.10545705 27.03959551 -5.0703125 24.921875 C-4.47961236 22.97584226 -4.47961236 22.97584226 -4.0703125 20.921875 C-3.5753125 20.48875 -3.0803125 20.055625 -2.5703125 19.609375 C-0.27247226 17.02430473 -0.3865418 14.27390562 -0.0703125 10.921875 C-0.7303125 12.571875 -1.3903125 14.221875 -2.0703125 15.921875 C-3.15328575 13.03394632 -2.99959743 10.78556758 -2.5703125 7.796875 C-1.7314005 4.134701 -1.7314005 4.134701 -3.0703125 1.921875 C-4.0603125 1.261875 -5.0503125 0.601875 -6.0703125 -0.078125 C-3.48858128 -1.09237655 -2.50875469 -1.30644584 0 0 Z " fill="#696969" transform="translate(177.0703125,43.078125)"/>
<path d="M0 0 C2.97 0 5.94 0 9 0 C9.15620438 9.37226277 9.15620438 9.37226277 8 12 C7.01 12.33 6.02 12.66 5 13 C5 12.01 5 11.02 5 10 C2.69 10 0.38 10 -2 10 C-3.125 5.25 -3.125 5.25 -2 3 C-1.34 3 -0.68 3 0 3 C0 2.01 0 1.02 0 0 Z " fill="#EAEAEA" transform="translate(130,51)"/>
<path d="M0 0 C1.875 0.25 1.875 0.25 4 1 C6.27746471 4.35293415 6.21133851 7.27842863 6.125 11.25 C6.10695313 12.32765625 6.08890625 13.4053125 6.0703125 14.515625 C6.04710938 15.33546875 6.02390625 16.1553125 6 17 C5.67 17 5.34 17 5 17 C4.67 24.59 4.34 32.18 4 40 C3.34 40 2.68 40 2 40 C2.00785522 38.8718689 2.00785522 38.8718689 2.01586914 37.72094727 C2.03657227 34.33480658 2.04963877 30.94867916 2.0625 27.5625 C2.07087891 26.37849609 2.07925781 25.19449219 2.08789062 23.97460938 C2.09272461 22.28754883 2.09272461 22.28754883 2.09765625 20.56640625 C2.10289307 19.52427979 2.10812988 18.48215332 2.11352539 17.40844727 C2.27305556 15.04871253 2.27305556 15.04871253 1 14 C0.92752663 10.92441137 1.00384561 7.86084597 1.0625 4.78515625 C1.19928462 2.04270691 1.19928462 2.04270691 0 0 Z " fill="#292C29" transform="translate(103,137)"/>
<path d="M0 0 C2 2 2 2 2.22705078 4.88916016 C2.21657715 6.09362793 2.20610352 7.2980957 2.1953125 8.5390625 C2.18564453 10.49199219 2.18564453 10.49199219 2.17578125 12.484375 C2.15906929 13.86458595 2.14213939 15.24479429 2.125 16.625 C2.11497006 18.01301452 2.10584423 19.40103589 2.09765625 20.7890625 C2.07401863 24.19288026 2.04106867 27.59635506 2 31 C0.68 31 -0.64 31 -2 31 C-2 23.08 -2 15.16 -2 7 C-1.67 7 -1.34 7 -1 7 C-0.67 4.69 -0.34 2.38 0 0 Z " fill="#111311" transform="translate(109,146)"/>
<path d="M0 0 C2.7302389 -0.1083667 5.45614543 -0.18746694 8.1875 -0.25 C8.95642578 -0.28351562 9.72535156 -0.31703125 10.51757812 -0.3515625 C14.43032033 -0.41873404 16.53332341 -0.2673668 20 1.71875 C22.22798849 4.26004937 22.66572457 5.42309022 22.8125 8.75 C22.86019531 9.54921875 22.90789063 10.3484375 22.95703125 11.171875 C22.97121094 11.77515625 22.98539063 12.3784375 23 13 C24.65 13 26.3 13 28 13 C28 13.33 28 13.66 28 14 C26.02 14 24.04 14 22 14 C22 16.31 22 18.62 22 21 C21.34 21 20.68 21 20 21 C19.79503906 19.78441406 19.59007813 18.56882812 19.37890625 17.31640625 C19.10698039 15.73173486 18.83483357 14.14710137 18.5625 12.5625 C18.42779297 11.76005859 18.29308594 10.95761719 18.15429688 10.13085938 C17.79732776 6.24528697 17.79732776 6.24528697 16 3 C13.30764224 2.76321284 10.63501844 2.57801975 7.9375 2.4375 C7.17888672 2.39431641 6.42027344 2.35113281 5.63867188 2.30664062 C3.75934562 2.20026367 1.87969756 2.09960066 0 2 C0 1.34 0 0.68 0 0 Z " fill="#232323" transform="translate(33,27)"/>
<path d="M0 0 C0.99 0.33 1.98 0.66 3 1 C2.01 1.495 2.01 1.495 1 2 C1.33 3.65 1.66 5.3 2 7 C5.465 6.505 5.465 6.505 9 6 C9 4.68 9 3.36 9 2 C8.01 2 7.02 2 6 2 C5.34 3.32 4.68 4.64 4 6 C4 4.35 4 2.7 4 1 C6.86881251 -0.43440626 8.87047355 0.45835119 12 1 C13.99965715 1.03703069 16.00056665 1.04760556 18 1 C17.67 2.98 17.34 4.96 17 7 C20.63 7 24.26 7 28 7 C28 7.33 28 7.66 28 8 C23.54172074 8.0578304 19.0835372 8.09353855 14.625 8.125 C13.35398437 8.14175781 12.08296875 8.15851562 10.7734375 8.17578125 C9.56171875 8.18222656 8.35 8.18867187 7.1015625 8.1953125 C5.98088379 8.20578613 4.86020508 8.21625977 3.70556641 8.22705078 C1 8 1 8 -1 6 C-0.625 2.875 -0.625 2.875 0 0 Z " fill="#A8A8A8" transform="translate(67,38)"/>
<path d="M0 0 C6.6 0 13.2 0 20 0 C20 0.66 20 1.32 20 2 C18.68 2.33 17.36 2.66 16 3 C16.66 3.33 17.32 3.66 18 4 C17.625 6.4375 17.625 6.4375 17 9 C16.01 9.495 16.01 9.495 15 10 C15 9.34 15 8.68 15 8 C6.09 8 -2.82 8 -12 8 C-12 7.67 -12 7.34 -12 7 C-3.42 7 5.16 7 14 7 C14 6.01 14 5.02 14 4 C9.38 4 4.76 4 0 4 C0 2.68 0 1.36 0 0 Z " fill="#B0B0B0" transform="translate(152,57)"/>
<path d="M0 0 C1.89213369 2.38573379 3.02391783 4.07175348 4 7 C5.32 7.66 6.64 8.32 8 9 C8 18.24 8 27.48 8 37 C7.67 37 7.34 37 7 37 C6.66076424 34.64655194 6.32849466 32.2924516 6 29.9375 C5.90460938 29.28072266 5.80921875 28.62394531 5.7109375 27.94726562 C5.11112326 23.59861237 4.90872907 19.38670929 5 15 C4.34 15 3.68 15 3 15 C3 13.02 3 11.04 3 9 C2.34 9 1.68 9 1 9 C0.67 6.03 0.34 3.06 0 0 Z " fill="#B9B6AF" transform="translate(86,104)"/>
<path d="M0 0 C9.9 0 19.8 0 30 0 C30 2.31 30 4.62 30 7 C29.41734375 6.6390625 28.8346875 6.278125 28.234375 5.90625 C21.3266473 1.99621545 15.85609113 1.39257027 8 2 C7.67 2.66 7.34 3.32 7 4 C5.33927151 4.68132451 3.672233 5.34742127 2 6 C1.34 6.66 0.68 7.32 0 8 C0 5.36 0 2.72 0 0 Z " fill="#F9F9F8" transform="translate(90,70)"/>
<path d="M0 0 C1.18230479 5.15914816 0.87440126 8.43347673 -0.91796875 13.3984375 C-2.35477042 15.52511145 -3.55525029 15.5002716 -6 16 C-6.33 16.66 -6.66 17.32 -7 18 C-7 17.01 -7 16.02 -7 15 C-11.95 15 -16.9 15 -22 15 C-22 14.67 -22 14.34 -22 14 C-15.73 14 -9.46 14 -3 14 C-3 10.04 -3 6.08 -3 2 C-11.91 1.67 -20.82 1.34 -30 1 C-30 0.67 -30 0.34 -30 0 C-25.56285102 -0.19652332 -21.12527385 -0.38067922 -16.6875 -0.5625 C-14.79354492 -0.64661133 -14.79354492 -0.64661133 -12.86132812 -0.73242188 C-11.65283203 -0.78076172 -10.44433594 -0.82910156 -9.19921875 -0.87890625 C-8.08377686 -0.9260376 -6.96833496 -0.97316895 -5.8190918 -1.02172852 C-3 -1 -3 -1 0 0 Z " fill="#DEDEDE" transform="translate(175,45)"/>
<path d="M0 0 C7.01840491 -0.3190184 7.01840491 -0.3190184 10 2 C10.75 4.625 10.75 4.625 11 7 C9.68 7.33 8.36 7.66 7 8 C7 18.23 7 28.46 7 39 C6.67 39 6.34 39 6 39 C5.95101562 37.75347656 5.90203125 36.50695312 5.8515625 35.22265625 C5.48506695 26.58870298 5.03162791 17.97107141 4.125 9.375 C4.05877441 8.65965088 3.99254883 7.94430176 3.92431641 7.20727539 C3.70378927 4.99426384 3.70378927 4.99426384 3 2 C2.01 1.34 1.02 0.68 0 0 Z " fill="#373A35" transform="translate(90,111)"/>
<path d="M0 0 C2 2 2 2 2.23046875 4.828125 C2.21628906 5.95734375 2.20210937 7.0865625 2.1875 8.25 C2.17783203 9.92835937 2.17783203 9.92835937 2.16796875 11.640625 C2.00819818 14.83603635 1.59481353 17.85938455 1 21 C3.47266765 20.65555119 3.47266765 20.65555119 6 20 C6.33 19.34 6.66 18.68 7 18 C9.5625 17.375 9.5625 17.375 12 17 C11.67 17.99 11.34 18.98 11 20 C10.34 20 9.68 20 9 20 C8.01 22.475 8.01 22.475 7 25 C3.6875 25.3125 3.6875 25.3125 0 25 C-2.45711102 22.30510404 -2.94242493 20.47979223 -3.375 16.875 C-3 14 -3 14 -1.48828125 12.67578125 C0.65607077 10.26127464 0.2992587 8.47899656 0.1875 5.3125 C0.16042969 4.31863281 0.13335937 3.32476562 0.10546875 2.30078125 C0.05326172 1.16189453 0.05326172 1.16189453 0 0 Z " fill="#565656" transform="translate(37,61)"/>
<path d="M0 0 C0 1.65 0 3.3 0 5 C-0.99 5 -1.98 5 -3 5 C-4.33981486 5.3062434 -5.67511887 5.63451555 -7 6 C-7.06058594 6.74765625 -7.12117188 7.4953125 -7.18359375 8.265625 C-7.26738281 9.25046875 -7.35117188 10.2353125 -7.4375 11.25 C-7.51871094 12.22453125 -7.59992188 13.1990625 -7.68359375 14.203125 C-7.95074584 16.56461753 -8.35371968 18.71901065 -9 21 C-10.32 20.67 -11.64 20.34 -13 20 C-12.67 19.01 -12.34 18.02 -12 17 C-12.66 17 -13.32 17 -14 17 C-14 13 -14 13 -13 11 C-12.34 11 -11.68 11 -11 11 C-10.95875 9.741875 -10.9175 8.48375 -10.875 7.1875 C-10.60546875 4.98046875 -10.60546875 4.98046875 -10 3 C-6.37132396 0.41960815 -4.47335974 0 0 0 Z " fill="#252622" transform="translate(104,71)"/>
<path d="M0 0 C0.66 0.33 1.32 0.66 2 1 C1.25 7.625 1.25 7.625 -1 11 C-1.66 11 -2.32 11 -3 11 C-3.33 12.65 -3.66 14.3 -4 16 C-5.98 16.66 -7.96 17.32 -10 18 C-9.67 17.01 -9.34 16.02 -9 15 C-13.95 15 -18.9 15 -24 15 C-24 14.67 -24 14.34 -24 14 C-16.08 13.505 -16.08 13.505 -8 13 C-7.34 11.35 -6.68 9.7 -6 8 C-5.154375 7.690625 -4.30875 7.38125 -3.4375 7.0625 C-2.2309375 6.5365625 -2.2309375 6.5365625 -1 6 C-0.10169161 2.94727535 -0.10169161 2.94727535 0 0 Z " fill="#20201F" transform="translate(176,53)"/>
<path d="M0 0 C0.0825 0.78375 0.165 1.5675 0.25 2.375 C0.4975 3.24125 0.745 4.1075 1 5 C2.32 5.66 3.64 6.32 5 7 C4.34 10.3 3.68 13.6 3 17 C1.68 16.67 0.36 16.34 -1 16 C-1 15.34 -1 14.68 -1 14 C-1.66 14 -2.32 14 -3 14 C-2.67 13.34 -2.34 12.68 -2 12 C-2.33 11.01 -2.66 10.02 -3 9 C-2.0625 6.8125 -2.0625 6.8125 -1 5 C-1.99 5 -2.98 5 -4 5 C-4 4.34 -4 3.68 -4 3 C-4.66 3 -5.32 3 -6 3 C-6 2.34 -6 1.68 -6 1 C-3.92446352 0.4465236 -2.15634036 0 0 0 Z " fill="#222320" transform="translate(120,90)"/>
<path d="M0 0 C0.86931152 0.01047363 1.73862305 0.02094727 2.63427734 0.03173828 C3.57529297 0.03818359 4.51630859 0.04462891 5.48583984 0.05126953 C6.47068359 0.06802734 7.45552734 0.08478516 8.47021484 0.10205078 C9.46279297 0.11107422 10.45537109 0.12009766 11.47802734 0.12939453 C13.93399618 0.15300962 16.38948653 0.18594279 18.84521484 0.22705078 C18.84521484 0.55705078 18.84521484 0.88705078 18.84521484 1.22705078 C14.55521484 1.22705078 10.26521484 1.22705078 5.84521484 1.22705078 C4.77067924 3.00344398 4.77067924 3.00344398 4.84521484 4.22705078 C5.83521484 4.22705078 6.82521484 4.22705078 7.84521484 4.22705078 C7.84521484 5.54705078 7.84521484 6.86705078 7.84521484 8.22705078 C8.83521484 8.55705078 9.82521484 8.88705078 10.84521484 9.22705078 C7.54521484 9.22705078 4.24521484 9.22705078 0.84521484 9.22705078 C0.46302717 7.57090421 0.13126383 5.90248054 -0.15478516 4.22705078 C0.17521484 3.89705078 0.50521484 3.56705078 0.84521484 3.22705078 C0.18521484 2.89705078 -0.47478516 2.56705078 -1.15478516 2.22705078 C-1.48478516 3.21705078 -1.81478516 4.20705078 -2.15478516 5.22705078 C-2.48478516 4.89705078 -2.81478516 4.56705078 -3.15478516 4.22705078 C-3.81478516 4.88705078 -4.47478516 5.54705078 -5.15478516 6.22705078 C-4.46295139 2.76788193 -3.92511132 0.41359093 0 0 Z " fill="#D1D1D1" transform="translate(68.15478515625,35.77294921875)"/>
<path d="M0 0 C0.75667969 0.0928125 1.51335938 0.185625 2.29296875 0.28125 C2.29296875 0.94125 2.29296875 1.60125 2.29296875 2.28125 C1.63296875 2.28125 0.97296875 2.28125 0.29296875 2.28125 C0.06609375 2.961875 -0.16078125 3.6425 -0.39453125 4.34375 C-2.06275482 8.07739324 -4.26432733 11.00288421 -6.70703125 14.28125 C-9.20703125 13.34375 -9.20703125 13.34375 -11.70703125 11.28125 C-12.16491036 8.24308742 -11.99483711 5.33199215 -11.70703125 2.28125 C-11.37703125 2.28125 -11.04703125 2.28125 -10.70703125 2.28125 C-10.04703125 4.59125 -9.38703125 6.90125 -8.70703125 9.28125 C-8.33191406 8.6315625 -7.95679688 7.981875 -7.5703125 7.3125 C-7.05855469 6.4771875 -6.54679687 5.641875 -6.01953125 4.78125 C-5.27123047 3.52828125 -5.27123047 3.52828125 -4.5078125 2.25 C-2.70703125 0.28125 -2.70703125 0.28125 0 0 Z " fill="#333333" transform="translate(60.70703125,45.71875)"/>
<path d="M0 0 C1.65 0 3.3 0 5 0 C5.33 1.65 5.66 3.3 6 5 C6.99 5 7.98 5 9 5 C9.33 5.99 9.66 6.98 10 8 C7.69 8.33 5.38 8.66 3 9 C3 9.66 3 10.32 3 11 C3.66 11 4.32 11 5 11 C5 11.66 5 12.32 5 13 C2.0280615 11.87548273 -0.33440687 10.77706209 -3 9 C-1.68 8.67 -0.36 8.34 1 8 C1.08226668 4.95613276 0.97608217 2.92824652 0 0 Z " fill="#191B18" transform="translate(111,82)"/>
<path d="M0 0 C0.99 0 1.98 0 3 0 C2.43697042 3.94120709 1.3208055 6.7508723 -1 10 C-1.66 10 -2.32 10 -3 10 C-3.33 10.99 -3.66 11.98 -4 13 C-5.65 13 -7.3 13 -9 13 C-9 11.02 -9 9.04 -9 7 C-8.34 7 -7.68 7 -7 7 C-7 7.66 -7 8.32 -7 9 C-6.34 9 -5.68 9 -5 9 C-4.5978125 7.88625 -4.5978125 7.88625 -4.1875 6.75 C-3.0392528 4.09090121 -1.96498625 2.12218515 0 0 Z " fill="#E0DFE0" transform="translate(47,69)"/>
<path d="M0 0 C4.62 0 9.24 0 14 0 C13.67 1.65 13.34 3.3 13 5 C8.71 5 4.42 5 0 5 C0 3.35 0 1.7 0 0 Z " fill="#272727" transform="translate(102,39)"/>
<path d="M0 0 C0.78375 0.04125 1.5675 0.0825 2.375 0.125 C2.06717504 1.77171412 1.75360766 3.41735576 1.4375 5.0625 C1.26347656 5.97902344 1.08945313 6.89554688 0.91015625 7.83984375 C0.375 10.125 0.375 10.125 -0.625 11.125 C-2.29117115 11.16563832 -3.95888095 11.167721 -5.625 11.125 C-5.51090407 9.66577307 -5.38334456 8.20759402 -5.25 6.75 C-5.18039063 5.93789063 -5.11078125 5.12578125 -5.0390625 4.2890625 C-4.39806644 0.93895099 -3.37594706 0.16075938 0 0 Z " fill="#E0E0E0" transform="translate(80.625,48.875)"/>
<path d="M0 0 C1.32 0 2.64 0 4 0 C3.67 2.64 3.34 5.28 3 8 C4.32 8.33 5.64 8.66 7 9 C6.34 9.53625 5.68 10.0725 5 10.625 C2.68975201 12.89958592 2.68975201 12.89958592 2.75 16.25 C2.8325 17.1575 2.915 18.065 3 19 C2.34 19 1.68 19 1 19 C0.15976812 14.64667264 -0.10770995 10.55557481 -0.0625 6.125 C-0.05347656 4.97257812 -0.04445313 3.82015625 -0.03515625 2.6328125 C-0.02355469 1.76398438 -0.01195313 0.89515625 0 0 Z " fill="#F3F3F3" transform="translate(83,84)"/>
<path d="M0 0 C0 0.66 0 1.32 0 2 C-6.25307239 2.83288874 -11.76817361 3.03863773 -18 2 C-18 2.99 -18 3.98 -18 5 C-18.99 5.495 -18.99 5.495 -20 6 C-20.33 6.99 -20.66 7.98 -21 9 C-22.32 8.67 -23.64 8.34 -25 8 C-19.55405539 -2.60775298 -10.37545144 -0.79051059 0 0 Z " fill="#4B4B4B" transform="translate(74,69)"/>
<path d="M0 0 C5.61 0 11.22 0 17 0 C17.33 1.65 17.66 3.3 18 5 C17.34 5 16.68 5 16 5 C16 4.34 16 3.68 16 3 C13.70800823 3.14063135 11.41640814 3.28765943 9.125 3.4375 C7.84882812 3.51871094 6.57265625 3.59992187 5.2578125 3.68359375 C2.11699848 3.79206027 2.11699848 3.79206027 0 5 C0 3.35 0 1.7 0 0 Z " fill="#E9E9E9" transform="translate(100,36)"/>
<path d="M0 0 C4.52920554 2.01298024 6.28116397 4.51336764 8.28515625 8.859375 C9.35307283 12.05728912 9.27872824 14.65526112 9 18 C8.34 18.33 7.68 18.66 7 19 C7.33 19.99 7.66 20.98 8 22 C7.01 21.67 6.02 21.34 5 21 C4.67 20.01 4.34 19.02 4 18 C4.66 17.01 5.32 16.02 6 15 C5.58596921 11.17021518 4.26478509 7.62571725 3 4 C2.01 4 1.02 4 0 4 C0 2.68 0 1.36 0 0 Z " fill="#65625C" transform="translate(115,74)"/>
<path d="M0 0 C1.81274414 0.01450195 1.81274414 0.01450195 3.66210938 0.02929688 C5.55606445 0.06700195 5.55606445 0.06700195 7.48828125 0.10546875 C9.39963867 0.12577148 9.39963867 0.12577148 11.34960938 0.14648438 C14.50042182 0.18188676 17.6503917 0.23127085 20.80078125 0.29296875 C20.47078125 0.95296875 20.14078125 1.61296875 19.80078125 2.29296875 C14.19078125 2.29296875 8.58078125 2.29296875 2.80078125 2.29296875 C2.14078125 3.94296875 1.48078125 5.59296875 0.80078125 7.29296875 C-0.4446828 4.80204064 0.02402345 3.88216142 0.80078125 1.29296875 C-4.61264556 2.43811673 -7.13351355 3.63309684 -10.19921875 8.29296875 C-9.85236569 5.7262561 -9.54404111 3.78524948 -8.04370117 1.64331055 C-5.35681676 -0.32375202 -3.29964493 -0.04647387 0 0 Z " fill="#030303" transform="translate(151.19921875,46.70703125)"/>
<path d="M0 0 C2.38171031 3.80273074 2.65510945 7.89003197 3.125 12.25 C3.21136719 12.99507812 3.29773437 13.74015625 3.38671875 14.5078125 C3.59786867 16.33777846 3.79984545 18.16879879 4 20 C3.67 20 3.34 20 3 20 C2.67 21.65 2.34 23.3 2 25 C1.67 25 1.34 25 1 25 C-1.688 8.344 -1.688 8.344 -1 1 C-0.67 0.67 -0.34 0.34 0 0 Z " fill="#3D3D3D" transform="translate(29,31)"/>
<path d="M0 0 C1.40668945 0.07734375 1.40668945 0.07734375 2.84179688 0.15625 C3.81826172 0.22070312 4.79472656 0.28515625 5.80078125 0.3515625 C6.78884766 0.40828125 7.77691406 0.465 8.79492188 0.5234375 C11.2351101 0.66489769 13.67426716 0.81630524 16.11328125 0.9765625 C16.11328125 1.3065625 16.11328125 1.6365625 16.11328125 1.9765625 C15.51789551 1.99638184 14.92250977 2.01620117 14.30908203 2.03662109 C11.61835972 2.13172376 8.92842977 2.24146092 6.23828125 2.3515625 C5.30113281 2.3825 4.36398438 2.4134375 3.3984375 2.4453125 C2.50253906 2.48398437 1.60664062 2.52265625 0.68359375 2.5625 C-0.55753174 2.60963135 -0.55753174 2.60963135 -1.82373047 2.65771484 C-4.1065796 2.80255387 -4.1065796 2.80255387 -5.88671875 4.9765625 C-6.21671875 6.2965625 -6.54671875 7.6165625 -6.88671875 8.9765625 C-9.52671875 9.6365625 -12.16671875 10.2965625 -14.88671875 10.9765625 C-14.88671875 9.6565625 -14.88671875 8.3365625 -14.88671875 6.9765625 C-12.90671875 6.9765625 -10.92671875 6.9765625 -8.88671875 6.9765625 C-8.73203125 5.8009375 -8.73203125 5.8009375 -8.57421875 4.6015625 C-7.31998975 -0.18731188 -4.33805319 -0.26291231 0 0 Z " fill="#414041" transform="translate(69.88671875,34.0234375)"/>
<path d="M0 0 C2.475 0.99 2.475 0.99 5 2 C4.67 2.66 4.34 3.32 4 4 C4.474375 4.474375 4.94875 4.94875 5.4375 5.4375 C6.95833333 6.95833333 8.47916667 8.47916667 10 10 C8.68 10.33 7.36 10.66 6 11 C6.99 12.485 6.99 12.485 8 14 C6.68 14.33 5.36 14.66 4 15 C2.24265549 10.02638346 0.67415387 5.2584002 0 0 Z " fill="#363633" transform="translate(85,96)"/>
<path d="M0 0 C0.99 0 1.98 0 3 0 C3 0.99 3 1.98 3 3 C4.32 3 5.64 3 7 3 C7 3.66 7 4.32 7 5 C7.33 5.33 7.66 5.66 8 6 C8.33 6.66 8.66 7.32 9 8 C9.66 8.33 10.32 8.66 11 9 C11 9.99 11 10.98 11 12 C8.75 12.25 8.75 12.25 6 12 C3.6875 10.125 3.6875 10.125 2 8 C2 7.34 2 6.68 2 6 C1.34 6 0.68 6 0 6 C0 4.02 0 2.04 0 0 Z " fill="#0A0D0A" transform="translate(105,96)"/>
<path d="M0 0 C2.4294516 3.6441774 2.16179575 5.71241272 2 10 C2.99 10 3.98 10 5 10 C4.6875 12.375 4.6875 12.375 4 15 C3.01 15.66 2.02 16.32 1 17 C-0.58813841 11.44151555 -1.30437704 6.78316385 -1 1 C-0.67 0.67 -0.34 0.34 0 0 Z " fill="#F1F1F1" transform="translate(50,39)"/>
<path d="M0 0 C0.66 0 1.32 0 2 0 C1.74438677 2.3431213 1.40729228 4.67843403 1 7 C0.01 7.495 0.01 7.495 -1 8 C-1 8.99 -1 9.98 -1 11 C-1.99 11.33 -2.98 11.66 -4 12 C-4.33 12.66 -4.66 13.32 -5 14 C-4.34 14.33 -3.68 14.66 -3 15 C-3.99 15.66 -4.98 16.32 -6 17 C-5.85904936 15.3745692 -5.71207913 13.74965949 -5.5625 12.125 C-5.48128906 11.22007813 -5.40007812 10.31515625 -5.31640625 9.3828125 C-5 7 -5 7 -4 5 C-3.34 5 -2.68 5 -2 5 C-1.34 3.35 -0.68 1.7 0 0 Z " fill="#5A5853" transform="translate(92,75)"/>
<path d="M0 0 C2.475 0.495 2.475 0.495 5 1 C4.67 1.66 4.34 2.32 4 3 C3.76488852 5.82133774 3.61793772 8.64124555 3.4765625 11.46875 C3.31929688 12.3040625 3.16203125 13.139375 3 14 C2.01 14.66 1.02 15.32 0 16 C0 10.72 0 5.44 0 0 Z " fill="#7D7C79" transform="translate(102,122)"/>
<path d="M0 0 C0 2.31 0 4.62 0 7 C-2.64458379 8.32229189 -4.67761301 8.09677194 -7.625 8.0625 C-8.62789063 8.05347656 -9.63078125 8.04445312 -10.6640625 8.03515625 C-11.43492188 8.02355469 -12.20578125 8.01195312 -13 8 C-13.33 7.34 -13.66 6.68 -14 6 C-10.7 5.34 -7.4 4.68 -4 4 C-4 3.34 -4 2.68 -4 2 C-1 0 -1 0 0 0 Z " fill="#131514" transform="translate(113,191)"/>
<path d="M0 0 C1.875 1.84375 1.875 1.84375 2.265625 4.32421875 C2.19601563 5.66419922 2.19601563 5.66419922 2.125 7.03125 C2.08890625 7.93230469 2.0528125 8.83335938 2.015625 9.76171875 C1.94601563 10.79232422 1.94601563 10.79232422 1.875 11.84375 C1.215 11.51375 0.555 11.18375 -0.125 10.84375 C-0.785 12.49375 -1.445 14.14375 -2.125 15.84375 C-3.20797325 12.95582132 -3.05428493 10.70744258 -2.625 7.71875 C-1.786088 4.056576 -1.786088 4.056576 -3.125 1.84375 C-4.115 1.18375 -5.105 0.52375 -6.125 -0.15625 C-3.47784685 -1.19620302 -2.55229217 -1.38874721 0 0 Z " fill="#454545" transform="translate(177.125,43.15625)"/>
<path d="M0 0 C1.32 0.33 2.64 0.66 4 1 C3.88529863 2.75070517 3.75780972 4.50057536 3.625 6.25 C3.55539063 7.22453125 3.48578125 8.1990625 3.4140625 9.203125 C3.01534751 11.89633189 2.36492937 13.66963279 1 16 C0 15 0 15 -0.09765625 11.62109375 C-0.09098369 10.22652923 -0.07902532 8.83198257 -0.0625 7.4375 C-0.05798828 6.72658203 -0.05347656 6.01566406 -0.04882812 5.28320312 C-0.03700864 3.52209987 -0.01907263 1.76103964 0 0 Z " fill="#525452" transform="translate(102,180)"/>
<path d="M0 0 C1.5 1.25 1.5 1.25 3 3 C3 4.32 3 5.64 3 7 C6.96 7 10.92 7 15 7 C15 7.66 15 8.32 15 9 C10.38 9 5.76 9 1 9 C0.67 8.34 0.34 7.68 0 7 C-0.99 6.67 -1.98 6.34 -3 6 C-2.34 6 -1.68 6 -1 6 C-0.67 4.02 -0.34 2.04 0 0 Z " fill="#BBBBBB" transform="translate(99,37)"/>
<path d="M0 0 C2.19050021 0.09017996 4.378466 0.24666208 6.5625 0.4375 C7.76003906 0.53933594 8.95757812 0.64117187 10.19140625 0.74609375 C11.11824219 0.82988281 12.04507813 0.91367187 13 1 C13 1.99 13 2.98 13 4 C11.35 4 9.7 4 8 4 C8 4.66 8 5.32 8 6 C6.68 6 5.36 6 4 6 C4 4.68 4 3.36 4 2 C3.01 2 2.02 2 1 2 C0.34 3.32 -0.32 4.64 -1 6 C-1.042721 4.33388095 -1.04063832 2.66617115 -1 1 C-0.67 0.67 -0.34 0.34 0 0 Z " fill="#606060" transform="translate(72,38)"/>
<path d="M0 0 C1.65 0 3.3 0 5 0 C5 1.65 5 3.3 5 5 C5.66 5.33 6.32 5.66 7 6 C7.33 6.66 7.66 7.32 8 8 C4.7 8 1.4 8 -2 8 C-1.67 7.01 -1.34 6.02 -1 5 C-0.34 5 0.32 5 1 5 C0.67 3.35 0.34 1.7 0 0 Z " fill="#8A8A8A" transform="translate(100,113)"/>
<path d="M0 0 C0 1.66666667 0 3.33333333 0 5 C-9.57 5 -19.14 5 -29 5 C-29 4.67 -29 4.34 -29 4 C-18.605 3.505 -18.605 3.505 -8 3 C-8 2.67 -8 2.34 -8 2 C-6.865625 1.855625 -5.73125 1.71125 -4.5625 1.5625 C-1.19222799 1.38828522 -1.19222799 1.38828522 0 0 Z " fill="#6C6C6C" transform="translate(91,59)"/>
<path d="M0 0 C1.65 0 3.3 0 5 0 C5.33 0.66 5.66 1.32 6 2 C9.04581269 2.46954261 9.04581269 2.46954261 12.5625 2.625 C13.76003906 2.69976562 14.95757812 2.77453125 16.19140625 2.8515625 C17.11824219 2.90054688 18.04507813 2.94953125 19 3 C19 3.33 19 3.66 19 4 C16.79245484 4.19656224 14.58390461 4.38185459 12.375 4.5625 C11.14523438 4.66691406 9.91546875 4.77132812 8.6484375 4.87890625 C5.24372538 4.99191061 2.32441602 4.69045563 -1 4 C-0.67 2.68 -0.34 1.36 0 0 Z " fill="#1A1A1A" transform="translate(142,67)"/>
<path d="M0 0 C0.66 0.33 1.32 0.66 2 1 C2 2.65 2 4.3 2 6 C3.65 6 5.3 6 7 6 C7 6.33 7 6.66 7 7 C5.02 7 3.04 7 1 7 C1 9.31 1 11.62 1 14 C0.34 14 -0.32 14 -1 14 C-1.33 9.71 -1.66 5.42 -2 1 C-1.34 0.67 -0.68 0.34 0 0 Z " fill="#121212" transform="translate(54,34)"/>
<path d="M0 0 C1.0326802 2.78823655 1.04509293 3.8677274 0.0625 6.75 C-0.288125 7.4925 -0.63875 8.235 -1 9 C-2.65 9 -4.3 9 -6 9 C-6.99 7.02 -7.98 5.04 -9 3 C-6.03 3 -3.06 3 0 3 C0 2.01 0 1.02 0 0 Z " fill="#F3F3F4" transform="translate(98,31)"/>
<path d="M0 0 C0.53625 0.474375 1.0725 0.94875 1.625 1.4375 C4.42842836 3.28186076 6.69620258 3.62456847 10 4 C10 4.99 10 5.98 10 7 C6.37 7 2.74 7 -1 7 C-0.67 4.69 -0.34 2.38 0 0 Z " fill="#646464" transform="translate(97,57)"/>
<path d="M0 0 C6.0546875 -0.1953125 6.0546875 -0.1953125 8 0 C8.66 0.66 9.32 1.32 10 2 C9.34 2 8.68 2 8 2 C7.67 2.66 7.34 3.32 7 4 C5.33927151 4.68132451 3.672233 5.34742127 2 6 C1.34 6.66 0.68 7.32 0 8 C0 5.36 0 2.72 0 0 Z " fill="#F3F2F2" transform="translate(90,70)"/>
<path d="M0 0 C4.62 0 9.24 0 14 0 C14 0.66 14 1.32 14 2 C12.98679687 2.02126953 12.98679687 2.02126953 11.953125 2.04296875 C6.05393523 2.24548655 6.05393523 2.24548655 1.375 5.5625 C0.694375 6.7690625 0.694375 6.7690625 0 8 C0 5.36 0 2.72 0 0 Z " fill="#2C2C2C" transform="translate(100,46)"/>
<path d="M0 0 C0.99 0 1.98 0 3 0 C3 4.29 3 8.58 3 13 C3.66 13.33 4.32 13.66 5 14 C3.35 14 1.7 14 0 14 C-0.66 12.68 -1.32 11.36 -2 10 C-1.01 10 -0.02 10 1 10 C0.67 6.7 0.34 3.4 0 0 Z " fill="#F9F9F8" transform="translate(123,82)"/>
<path d="M0 0 C1.93166016 0.01740234 1.93166016 0.01740234 3.90234375 0.03515625 C5.19269531 0.04417969 6.48304688 0.05320313 7.8125 0.0625 C8.81152344 0.07410156 9.81054688 0.08570313 10.83984375 0.09765625 C10.83984375 1.08765625 10.83984375 2.07765625 10.83984375 3.09765625 C9.09019017 3.15195584 7.34004588 3.19058448 5.58984375 3.22265625 C4.6153125 3.24585937 3.64078125 3.2690625 2.63671875 3.29296875 C-0.17980605 3.09628406 -1.76964661 2.54334541 -4.16015625 1.09765625 C-3.16015625 0.09765625 -3.16015625 0.09765625 0 0 Z " fill="#0A0A0A" transform="translate(155.16015625,60.90234375)"/>
<path d="M0 0 C0 1.65 0 3.3 0 5 C-0.99 5 -1.98 5 -3 5 C-5.93446884 5.53353979 -6.82586238 5.82586238 -9 8 C-9.33 6.35 -9.66 4.7 -10 3 C-6.27034861 0.96564469 -4.33094958 0 0 0 Z " fill="#4B4944" transform="translate(104,71)"/>
<path d="M0 0 C7.75 0.75 7.75 0.75 10 3 C8.52144705 3.50181191 7.04213942 4.00140076 5.5625 4.5 C4.32693359 4.91765625 4.32693359 4.91765625 3.06640625 5.34375 C1 6 1 6 0 6 C0 4.02 0 2.04 0 0 Z " fill="#504F49" transform="translate(105,71)"/>
<path d="M0 0 C5.94 0 11.88 0 18 0 C18 0.66 18 1.32 18 2 C16.741875 2.103125 15.48375 2.20625 14.1875 2.3125 C11.39500343 2.64858808 10.25566879 2.80025876 8 4.5625 C7.67 5.036875 7.34 5.51125 7 6 C7.33 4.35 7.66 2.7 8 1 C5.36 1 2.72 1 0 1 C0 0.67 0 0.34 0 0 Z " fill="#070707" transform="translate(120,47)"/>
<path d="M0 0 C0.99 0 1.98 0 3 0 C3.67408308 1.26691507 4.33900497 2.53870749 5 3.8125 C5.556875 4.87404297 5.556875 4.87404297 6.125 5.95703125 C7 8 7 8 7 11 C6.34 11 5.68 11 5 11 C5 10.34 5 9.68 5 9 C4.01 9 3.02 9 2 9 C1.34 6.03 0.68 3.06 0 0 Z " fill="#31312D" transform="translate(115,78)"/>
<path d="M0 0 C3.73997229 5.60995843 3.11406407 11.47300069 3 18 C0.1448408 13.7172612 -0.11672494 10.85541942 -0.0625 5.8125 C-0.05347656 4.72582031 -0.04445312 3.63914063 -0.03515625 2.51953125 C-0.02355469 1.68808594 -0.01195312 0.85664062 0 0 Z " fill="#DCDCDC" transform="translate(35,57)"/>
<path d="M0 0 C3.95602172 4.85511756 5.29212746 8.71925967 5 15 C4.34 15 3.68 15 3 15 C3 13.02 3 11.04 3 9 C2.34 9 1.68 9 1 9 C0.67 6.03 0.34 3.06 0 0 Z " fill="#F7F7F7" transform="translate(86,104)"/>
<path d="M0 0 C0.33 0 0.66 0 1 0 C1.66 2.31 2.32 4.62 3 7 C-0.81489674 8.46726798 -3.29011622 7.43336419 -7 6 C-7 5.34 -7 4.68 -7 4 C-5.824375 3.8453125 -5.824375 3.8453125 -4.625 3.6875 C-1.66954819 3.22404978 -1.66954819 3.22404978 0 0 Z " fill="#F7F7F7" transform="translate(65,39)"/>
<path d="M0 0 C0.66 1.32 1.32 2.64 2 4 C1.34 4.66 0.68 5.32 0 6 C-0.99 5.67 -1.98 5.34 -3 5 C-2.67 4.67 -2.34 4.34 -2 4 C-3.98 4 -5.96 4 -8 4 C-6 1 -6 1 -2.875 0.3125 C-1.92625 0.209375 -0.9775 0.10625 0 0 Z " fill="#5C5C5C" transform="translate(92,57)"/>
<path d="M0 0 C1.32 0.33 2.64 0.66 4 1 C4 3.97 4 6.94 4 10 C3.34 10 2.68 10 2 10 C1.34 6.7 0.68 3.4 0 0 Z " fill="#8D8981" transform="translate(90,112)"/>
<path d="M0 0 C0.33 0.66 0.66 1.32 1 2 C2.65 2 4.3 2 6 2 C6 2.66 6 3.32 6 4 C2.37 4 -1.26 4 -5 4 C-5.33 3.34 -5.66 2.68 -6 2 C-4.02 1.34 -2.04 0.68 0 0 Z " fill="#252825" transform="translate(98,106)"/>
<path d="M0 0 C2.4294516 3.6441774 2.16179575 5.71241272 2 10 C1.01 10 0.02 10 -1 10 C-1.02689216 8.52093108 -1.04634621 7.04172517 -1.0625 5.5625 C-1.07410156 4.73878906 -1.08570312 3.91507813 -1.09765625 3.06640625 C-1 1 -1 1 0 0 Z " fill="#0F110E" transform="translate(105,141)"/>
<path d="M0 0 C0.33 0 0.66 0 1 0 C1.12375 0.94875 1.2475 1.8975 1.375 2.875 C1.71687177 6.08667191 1.71687177 6.08667191 4 8 C4 8.66 4 9.32 4 10 C3.01 10 2.02 10 1 10 C1 9.34 1 8.68 1 8 C-0.32 8 -1.64 8 -3 8 C-2.45276317 4.62537285 -1.9451 2.91765 0 0 Z " fill="#1C1D1A" transform="translate(104,71)"/>
<path d="M0 0 C0.99 0 1.98 0 3 0 C2.25 4.75 2.25 4.75 0 7 C-1.32 7 -2.64 7 -4 7 C-2.79618552 4.50638429 -1.54571278 2.31856917 0 0 Z " fill="#D8D8D8" transform="translate(47,69)"/>
<path d="M0 0 C0.99 0.33 1.98 0.66 3 1 C2.01 1.495 2.01 1.495 1 2 C1.33 3.65 1.66 5.3 2 7 C5.3 7 8.6 7 12 7 C12 7.33 12 7.66 12 8 C10.20866022 8.05391993 8.41686101 8.09275571 6.625 8.125 C5.62726563 8.14820313 4.62953125 8.17140625 3.6015625 8.1953125 C1 8 1 8 -1 6 C-0.625 2.875 -0.625 2.875 0 0 Z " fill="#7C7C7C" transform="translate(67,38)"/>
<path d="M0 0 C0.66 0.66 1.32 1.32 2 2 C1.69690596 6.09176955 1.12300942 9.46165096 -1 13 C-2.20577428 8.05632546 -1.6290678 4.79137588 0 0 Z " fill="#E2E2E2" transform="translate(96,51)"/>
<path d="M0 0 C1.65 0 3.3 0 5 0 C5 0.66 5 1.32 5 2 C4.34 2 3.68 2 3 2 C2.34 3.65 1.68 5.3 1 7 C0.67 6.34 0.34 5.68 0 5 C-0.66 5 -1.32 5 -2 5 C-1.34 3.35 -0.68 1.7 0 0 Z " fill="#2A2A2A" transform="translate(58,46)"/>
<path d="M0 0 C0.33 0 0.66 0 1 0 C1.125 5.75 1.125 5.75 0 8 C-2.97 8 -5.94 8 -9 8 C-6 5 -6 5 -3.3125 4.8125 C-2.1678125 4.9053125 -2.1678125 4.9053125 -1 5 C-0.67 3.35 -0.34 1.7 0 0 Z " fill="#484848" transform="translate(98,35)"/>
<path d="M0 0 C1.98 0 3.96 0 6 0 C5.34 1.65 4.68 3.3 4 5 C2.68 5 1.36 5 0 5 C0 3.35 0 1.7 0 0 Z " fill="#E6E6E6" transform="translate(57,35)"/>
<path d="M0 0 C5.94 0.33 11.88 0.66 18 1 C18 1.33 18 1.66 18 2 C16.86820313 2.06058594 15.73640625 2.12117188 14.5703125 2.18359375 C13.08852855 2.26799917 11.6067584 2.35264717 10.125 2.4375 C9.00544922 2.49647461 9.00544922 2.49647461 7.86328125 2.55664062 C3.80013136 2.71573624 3.80013136 2.71573624 0 4 C0 2.68 0 1.36 0 0 Z " fill="#0D0D0F" transform="translate(99,33)"/>
<path d="M0 0 C0.99 0 1.98 0 3 0 C3 0.66 3 1.32 3 2 C3.66 2.33 4.32 2.66 5 3 C4.67 4.32 4.34 5.64 4 7 C2.68 6.67 1.36 6.34 0 6 C0.33 5.01 0.66 4.02 1 3 C0.34 3 -0.32 3 -1 3 C-0.67 2.01 -0.34 1.02 0 0 Z " fill="#1D1F1D" transform="translate(91,85)"/>
<path d="M0 0 C0.99 0 1.98 0 3 0 C3 1.32 3 2.64 3 4 C3.99 4.33 4.98 4.66 6 5 C2.7 5 -0.6 5 -4 5 C-3.01 4.67 -2.02 4.34 -1 4 C-0.26676204 1.98491642 -0.26676204 1.98491642 0 0 Z " fill="#DFDFDF" transform="translate(73,40)"/>
<path d="M0 0 C1.98 0 3.96 0 6 0 C5.401875 0.226875 4.80375 0.45375 4.1875 0.6875 C1.4448831 2.33307014 0.58031907 4.27035797 -1 7 C-1.66 7 -2.32 7 -3 7 C-3.33 7.66 -3.66 8.32 -4 9 C-4 8.01 -4 7.02 -4 6 C-3.34 6 -2.68 6 -2 6 C-2 4.68 -2 3.36 -2 2 C-1.34 2 -0.68 2 0 2 C0 1.34 0 0.68 0 0 Z " fill="#212320" transform="translate(114,111)"/>
<path d="M0 0 C1.98 0 3.96 0 6 0 C5.67 1.32 5.34 2.64 5 4 C3.35 4 1.7 4 0 4 C0 2.68 0 1.36 0 0 Z " fill="#D3D3D3" transform="translate(154,50)"/>
<path d="M0 0 C0 0.66 0 1.32 0 2 C-3.3125 2.6875 -3.3125 2.6875 -7 3 C-8.9375 1.5625 -8.9375 1.5625 -10 0 C-6.33694766 -0.74926071 -3.57644848 -1.2380014 0 0 Z " fill="#181B18" transform="translate(97,96)"/>
<path d="M0 0 C2.475 0.495 2.475 0.495 5 1 C4.67 3.64 4.34 6.28 4 9 C0 4.5 0 4.5 0 0 Z " fill="#363530" transform="translate(120,95)"/>
<path d="M0 0 C0 1.65 0 3.3 0 5 C-1.32 5 -2.64 5 -4 5 C-4 4.34 -4 3.68 -4 3 C-4.66 3 -5.32 3 -6 3 C-6 2.34 -6 1.68 -6 1 C-3.92446352 0.4465236 -2.15634036 0 0 0 Z " fill="#383A35" transform="translate(120,90)"/>
<path d="M0 0 C0.66 0 1.32 0 2 0 C2 0.66 2 1.32 2 2 C2.66 2 3.32 2 4 2 C4 3.32 4 4.64 4 6 C2.35 6 0.7 6 -1 6 C-1 3 -1 3 0 0 Z " fill="#33342F" transform="translate(88,86)"/>
<path d="M0 0 C1.32 0 2.64 0 4 0 C4 1.32 4 2.64 4 4 C5.65 4 7.3 4 9 4 C9 4.33 9 4.66 9 5 C6.36 5 3.72 5 1 5 C0.67 3.35 0.34 1.7 0 0 Z " fill="#181819" transform="translate(88,37)"/>
<path d="M0 0 C0.66 0.33 1.32 0.66 2 1 C1.5205537 5.21912747 0.83374881 7.79663178 -2 11 C-1.125 3.375 -1.125 3.375 0 0 Z " fill="#787877" transform="translate(178,55)"/>
<path d="M0 0 C2.25 1.9375 2.25 1.9375 4 4 C3.01 5.485 3.01 5.485 2 7 C1.566875 6.38125 1.13375 5.7625 0.6875 5.125 C-0.99740483 2.7802755 -0.99740483 2.7802755 -4 1 C-2.25 0.25 -2.25 0.25 0 0 Z " fill="#515151" transform="translate(175,42)"/>
<path d="M0 0 C1.65 0.33 3.3 0.66 5 1 C4.34 2.32 3.68 3.64 3 5 C1.68 5 0.36 5 -1 5 C-0.67 3.35 -0.34 1.7 0 0 Z " fill="#B4B0A8" transform="translate(85,91)"/>
<path d="M0 0 C0.99 0 1.98 0 3 0 C3 0.66 3 1.32 3 2 C2.01 2.495 2.01 2.495 1 3 C0.67 3.99 0.34 4.98 0 6 C-1.32 5.67 -2.64 5.34 -4 5 C-2.1875 2.5 -2.1875 2.5 0 0 Z " fill="#646464" transform="translate(53,72)"/>
<path d="M0 0 C0.33 0.66 0.66 1.32 1 2 C1.66 2.33 2.32 2.66 3 3 C0.03 5.475 0.03 5.475 -3 8 C-2.37240135 5.07120629 -1.41377341 2.63904371 0 0 Z " fill="#272726" transform="translate(49,72)"/>
<path d="M0 0 C0.66 0.66 1.32 1.32 2 2 C1.34 3.98 0.68 5.96 0 8 C-0.66 7.34 -1.32 6.68 -2 6 C-2.99 6.495 -2.99 6.495 -4 7 C-3.34 5.35 -2.68 3.7 -2 2 C-1.34 2 -0.68 2 0 2 C0 1.34 0 0.68 0 0 Z " fill="#C4C4C4" transform="translate(63,46)"/>
<path d="M0 0 C3.63 0 7.26 0 11 0 C11 0.33 11 0.66 11 1 C3.57142857 3.42857143 3.57142857 3.42857143 0 2 C0 1.34 0 0.68 0 0 Z " fill="#F7F7F7" transform="translate(74,37)"/>
<path d="M0 0 C1.875 0.1875 1.875 0.1875 4 1 C5.25 3.5625 5.25 3.5625 6 6 C5.01 6.33 4.02 6.66 3 7 C2.690625 6.21625 2.38125 5.4325 2.0625 4.625 C1.07124962 2.07669872 1.07124962 2.07669872 0 0 Z " fill="#302D2A" transform="translate(103,137)"/>
<path d="M0 0 C0.99 0 1.98 0 3 0 C2.67 2.31 2.34 4.62 2 7 C1.34 7 0.68 7 0 7 C0 4.69 0 2.38 0 0 Z " fill="#6F706C" transform="translate(102,138)"/>
<path d="M0 0 C0.33 0.99 0.66 1.98 1 3 C1.66 3 2.32 3 3 3 C2.67 5.64 2.34 8.28 2 11 C-0.32590854 7.36576791 -0.16265833 4.22911669 0 0 Z " fill="#D5D3D0" transform="translate(91,119)"/>
<path d="M0 0 C0.433125 0.9590625 0.433125 0.9590625 0.875 1.9375 C1.82823451 4.15206079 1.82823451 4.15206079 4 5 C2.35 5 0.7 5 -1 5 C-1.66 3.68 -2.32 2.36 -3 1 C-2.01 0.67 -1.02 0.34 0 0 Z " fill="#D6D2CD" transform="translate(124,91)"/>
<path d="M0 0 C1.98 0 3.96 0 6 0 C1.375 4 1.375 4 -2 4 C-1.34 2.68 -0.68 1.36 0 0 Z " fill="#494B45" transform="translate(90,92)"/>
<path d="M0 0 C0 0.33 0 0.66 0 1 C-6.0546875 1.1953125 -6.0546875 1.1953125 -8 1 C-8.66 0.34 -9.32 -0.32 -10 -1 C-6.18510326 -2.46726798 -3.70988378 -1.43336419 0 0 Z " fill="#494949" transform="translate(81,62)"/>
</svg>
