<?xml version="1.0" encoding="UTF-8"?>
<svg version="1.1" xmlns="http://www.w3.org/2000/svg" width="200" height="200">
<path d="M0 0 C66 0 132 0 200 0 C200 66 200 132 200 200 C134 200 68 200 0 200 C0 134 0 68 0 0 Z " fill="#63BB47" transform="translate(0,0)"/>
<path d="M0 0 C66 0 132 0 200 0 C200 66 200 132 200 200 C134 200 68 200 0 200 C0 134 0 68 0 0 Z M104.4140625 4.56640625 C103.2223741 5.89599746 102.03485518 7.22933765 100.8515625 8.56640625 C99 10 99 10 96.9609375 9.87890625 C95 9 95 9 92 6.375 C89.37327131 3.76037703 89.37327131 3.76037703 86.984375 4.09765625 C84.38806577 5.27826143 83.65357274 6.60624771 82.25 9.0625 C81.82203125 9.79597656 81.3940625 10.52945312 80.953125 11.28515625 C80.48132813 12.13400391 80.48132813 12.13400391 80 13 C75.93037598 11.76964855 72.61674849 10.21023519 69 8 C68.34 8 67.68 8 67 8 C65.35 11.63 63.7 15.26 62 19 C57.65535464 18.39174965 53.32448133 17.73832608 49 17 C47.53832085 21.09270163 46.72634389 24.64193667 46 29 C41.71 29 37.42 29 33 29 C32.67 33.29 32.34 37.58 32 42 C28.04 42.66 24.08 43.32 20 44 C20.66 48.29 21.32 52.58 22 57 C16.555 58.98 16.555 58.98 11 61 C11.72305393 65.82165253 11.72305393 65.82165253 13.625 69.125 C15 72 15 72 14 75 C11.93359375 76.60546875 11.93359375 76.60546875 9.4375 78.1875 C8.61121094 78.71730469 7.78492188 79.24710937 6.93359375 79.79296875 C6.29550781 80.19128906 5.65742187 80.58960937 5 81 C5.61875 82.11375 6.2375 83.2275 6.875 84.375 C7.22304687 85.00148438 7.57109375 85.62796875 7.9296875 86.2734375 C9.00897274 88.1612614 9.00897274 88.1612614 11 90 C10.68067403 93.36311394 9.40850701 94.87189095 6.9375 97.0625 C5.27810407 98.47134541 5.27810407 98.47134541 4 100 C3.65386277 103.06049937 3.65386277 103.06049937 5.75 104.82421875 C6.4925 105.43910156 7.235 106.05398437 8 106.6875 C9.11375 107.62142578 9.11375 107.62142578 10.25 108.57421875 C10.8275 109.04472656 11.405 109.51523438 12 110 C11.38125 111.051875 10.7625 112.10375 10.125 113.1875 C8.48420892 116.05015677 7.13015547 118.89207246 6 122 C7.45537568 122.83848804 8.91440373 123.67063934 10.375 124.5 C11.18710938 124.9640625 11.99921875 125.428125 12.8359375 125.90625 C14.89336874 127.15035859 14.89336874 127.15035859 17 127 C16.71125 127.75925781 16.4225 128.51851563 16.125 129.30078125 C15.75375 130.29464844 15.3825 131.28851563 15 132.3125 C14.62875 133.29863281 14.2575 134.28476563 13.875 135.30078125 C12.84581498 138.00271656 12.84581498 138.00271656 13 141 C14.43554025 141.50559908 15.8735202 142.0042749 17.3125 142.5 C18.51326172 142.91765625 18.51326172 142.91765625 19.73828125 143.34375 C22.08769422 144.13933107 22.08769422 144.13933107 25 144 C24.7834375 145.01320312 24.7834375 145.01320312 24.5625 146.046875 C24.376875 146.93890625 24.19125 147.8309375 24 148.75 C23.814375 149.63171875 23.62875 150.5134375 23.4375 151.421875 C22.88846325 154.22143965 22.88846325 154.22143965 23 158 C26.96 158.33 30.92 158.66 35 159 C35.495 165.435 35.495 165.435 36 172 C40.62 172 45.24 172 50 172 C50.99 175.63 51.98 179.26 53 183 C54.5675 182.690625 56.135 182.38125 57.75 182.0625 C58.63171875 181.88847656 59.5134375 181.71445313 60.421875 181.53515625 C62.63235053 181.07631512 64.81512068 180.56663926 67 180 C67.268125 180.886875 67.53625 181.77375 67.8125 182.6875 C68.91710819 185.76877548 70.22849144 188.26221405 72 191 C74.7877088 189.9645653 77.09527263 188.93493577 79.5625 187.25 C82 186 82 186 84 186.375 C86.97010327 188.78820891 88.92075712 191.81296379 91 195 C93.92264591 193.80929241 95.26512535 192.7076823 97.4375 190.3125 C100 188 100 188 102.5 187.875 C105.70546977 189.3174614 107.56390359 191.49979579 110 194 C110.99 194 111.98 194 113 194 C114.69547681 192.00473828 114.69547681 192.00473828 116.1875 189.5 C116.71730469 188.6646875 117.24710937 187.829375 117.79296875 186.96875 C118.19128906 186.3190625 118.58960937 185.669375 119 185 C121.90462927 185.60779687 124.10153712 186.51173757 126.625 188.0625 C129.64048478 190.16595584 129.64048478 190.16595584 132 190 C134.475 184.555 134.475 184.555 137 179 C139.21354167 179.52083333 141.42708333 180.04166667 143.640625 180.5625 C146.25556002 181.12154828 146.25556002 181.12154828 150 181 C150.99 177.04 151.98 173.08 153 169 C157.29 169 161.58 169 166 169 C166 164.38 166 159.76 166 155 C170.29 154.67 174.58 154.34 179 154 C178.7834375 152.1746875 178.7834375 152.1746875 178.5625 150.3125 C178.44068359 149.28576172 178.44068359 149.28576172 178.31640625 148.23828125 C177.97315336 145.81008489 177.48094299 143.40471494 177 141 C180.63 139.35 184.26 137.7 188 136 C187.31335379 131.37631071 187.31335379 131.37631071 185.9375 128.9375 C185 127 185 127 185 123 C186.96875 121.296875 186.96875 121.296875 189.5 119.75 C190.3353125 119.22921875 191.170625 118.7084375 192.03125 118.171875 C192.6809375 117.78515625 193.330625 117.3984375 194 117 C192.79215074 114.42034003 191.71928556 112.6791835 189.8125 110.5 C188 108 188 108 188.1640625 106.078125 C189.19773487 103.5084348 190.55601827 102.14703727 192.5625 100.25 C193.20316406 99.63640625 193.84382812 99.0228125 194.50390625 98.390625 C194.99761719 97.93171875 195.49132812 97.4728125 196 97 C195.2575 96.278125 194.515 95.55625 193.75 94.8125 C191.30709485 92.31407427 189.1318953 89.76356798 187 87 C187.44472656 86.38511719 187.88945312 85.77023438 188.34765625 85.13671875 C188.91355469 84.32847656 189.47945312 83.52023438 190.0625 82.6875 C190.63097656 81.88699219 191.19945312 81.08648437 191.78515625 80.26171875 C192.18605469 79.51535156 192.58695313 78.76898438 193 78 C192.32836545 74.95317211 192.32836545 74.95317211 190.22265625 73.83203125 C189.50980469 73.49558594 188.79695312 73.15914063 188.0625 72.8125 C187.35222656 72.46832031 186.64195312 72.12414062 185.91015625 71.76953125 C184.03403704 70.87544038 184.03403704 70.87544038 182 71 C182.433125 69.86111328 182.433125 69.86111328 182.875 68.69921875 C183.431875 67.20841797 183.431875 67.20841797 184 65.6875 C184.556875 64.20830078 184.556875 64.20830078 185.125 62.69921875 C186.15418502 59.99728344 186.15418502 59.99728344 186 57 C182.7 56.01 179.4 55.02 176 54 C174.92910998 48.64554989 175.28398947 45.33030063 176 40 C169.565 39.505 169.565 39.505 163 39 C163 34.38 163 29.76 163 25 C158.38 25.33 153.76 25.66 149 26 C148.01 22.04 147.02 18.08 146 14 C144.618125 14.474375 143.23625 14.94875 141.8125 15.4375 C138.55995715 16.52510108 135.39412527 17.45256044 132 18 C131.79503906 17.37351562 131.59007812 16.74703125 131.37890625 16.1015625 C131.10949219 15.28429688 130.84007812 14.46703125 130.5625 13.625 C130.29566406 12.81289062 130.02882813 12.00078125 129.75390625 11.1640625 C129.04820271 8.98968201 129.04820271 8.98968201 128 7 C124.53872172 7.40720921 122.81525903 8.12562386 119.875 10.125 C118.92625 10.74375 117.9775 11.3625 117 12 C113.49677054 10.83225685 112.97968337 9.89892704 110.9375 6.9375 C109.47752704 4.75957185 109.47752704 4.75957185 108 3 C105.86564367 2.7657626 105.86564367 2.7657626 104.4140625 4.56640625 Z " fill="#FDFEFD" transform="translate(0,0)"/>
<path d="M0 0 C5.05279929 2.47171567 6.95770651 6.38325742 8.8671875 11.3828125 C11.74393792 20.01306377 11.0414005 32.36187189 7.078125 40.52734375 C4.63374109 44.27277071 2.03924025 45.99212825 -2.1328125 47.3828125 C-7.34617056 47.88205087 -11.75528899 48.00895955 -16.5703125 45.8203125 C-19.71851011 42.82568551 -21.2139194 40.2891306 -23.1328125 36.3828125 C-23.49246094 35.65578125 -23.85210937 34.92875 -24.22265625 34.1796875 C-25.42849359 30.47419595 -25.47439592 26.92618411 -25.4453125 23.0703125 C-25.43794067 21.93190918 -25.43794067 21.93190918 -25.43041992 20.77050781 C-25.28356159 13.77854514 -24.37309501 9.025197 -19.6953125 3.5078125 C-13.85697094 -1.33373903 -7.32491333 -2.11966356 0 0 Z " fill="#FAFDF9" transform="translate(117.1328125,37.6171875)"/>
<path d="M0 0 C4.03825066 -0.12406007 8.07575638 -0.21455045 12.11547852 -0.2746582 C13.48807102 -0.29972617 14.86053102 -0.33379082 16.23266602 -0.37719727 C18.21050696 -0.43817531 20.18934184 -0.46361009 22.16796875 -0.48828125 C23.35672607 -0.51446533 24.5454834 -0.54064941 25.77026367 -0.56762695 C29.96702631 0.16995511 31.41625646 1.67659068 34 5 C34.74151892 10.10824148 34.39812948 13.78881888 31.53125 18.2734375 C27.53224727 22.78251711 21.99770216 25.95617695 16.703125 28.72265625 C13.6188866 30.8175557 13.6188866 30.8175557 13.4140625 34.671875 C13.44809996 36.03264158 13.52568745 37.39243554 13.625 38.75 C13.74875 41.1425 13.8725 43.535 14 46 C9.05 46 4.1 46 -1 46 C-1.88676365 41.56618173 -2.16105502 37.54553283 -2.16796875 33.06640625 C-2.17129715 32.31084946 -2.17462555 31.55529266 -2.17805481 30.77684021 C-2.18310083 29.1841594 -2.18546386 27.59146809 -2.18530273 25.9987793 C-2.18748974 23.57387756 -2.20567122 21.14943079 -2.22460938 18.72460938 C-2.22754376 17.17187654 -2.22952826 15.61914157 -2.23046875 14.06640625 C-2.23765427 13.34747696 -2.24483978 12.62854767 -2.25224304 11.88783264 C-2.23272419 7.54752267 -1.59352906 4.03533504 0 0 Z " fill="#FBFDFA" transform="translate(37,103)"/>
<path d="M0 0 C2.81005071 2.27841949 3.84898818 3.54696453 5 7 C5.09501685 9.11421446 5.13072699 11.23130877 5.1328125 13.34765625 C5.13474609 15.21454102 5.13474609 15.21454102 5.13671875 17.11914062 C5.13285156 18.42044922 5.12898438 19.72175781 5.125 21.0625 C5.13080078 23.02026367 5.13080078 23.02026367 5.13671875 25.01757812 C5.13542969 26.26087891 5.13414062 27.50417969 5.1328125 28.78515625 C5.13168457 29.92863525 5.13055664 31.07211426 5.12939453 32.25024414 C5 35 5 35 4 37 C0.04 37 -3.92 37 -8 37 C-8 28.09 -8 19.18 -8 10 C-9.32 10 -10.64 10 -12 10 C-13.34252819 11.11750946 -13.34252819 11.11750946 -13.1328125 13.9921875 C-13.11726137 21.72110013 -12.89515271 29.31127762 -12 37 C-14.14576637 37.02685938 -16.29162645 37.04633088 -18.4375 37.0625 C-19.63246094 37.07410156 -20.82742187 37.08570313 -22.05859375 37.09765625 C-25 37 -25 37 -26 36 C-26.08851529 33.40640678 -26.11525945 30.83960309 -26.09765625 28.24609375 C-26.09553383 27.08292381 -26.09553383 27.08292381 -26.09336853 25.89625549 C-26.08775345 23.40996506 -26.07519846 20.9237634 -26.0625 18.4375 C-26.05748694 16.75586067 -26.0529237 15.07421994 -26.04882812 13.39257812 C-26.03777913 9.26168434 -26.02050445 5.13085724 -26 1 C-23.27774209 -0.36112895 -21.09754415 -0.09560957 -18.0625 -0.0625 C-17.00160156 -0.05347656 -15.94070312 -0.04445313 -14.84765625 -0.03515625 C-13.90792969 -0.02355469 -12.96820313 -0.01195313 -12 0 C0 0 0 0 0 0 Z " fill="#F8FDFA" transform="translate(153,112)"/>
<path d="M0 0 C1.9375 0.375 1.9375 0.375 4 1 C4.33 1.66 4.66 2.32 5 3 C7.30965848 4.05352843 9.6429774 5.05719096 12 6 C11.67 7.98 11.34 9.96 11 12 C10.01 12.33 9.02 12.66 8 13 C6.68 12.34 5.36 11.68 4 11 C4 14.96 4 18.92 4 23 C4.886875 23.226875 5.77375 23.45375 6.6875 23.6875 C10.95434135 25.37813525 13.92493804 27.84987609 16 32 C16.54317573 36.9509132 16.52241949 40.89488185 14.375 45.4375 C11.76606435 48.25240426 9.55965154 49.60709288 6 51 C5.34 51 4.68 51 4 51 C3.67 52.65 3.34 54.3 3 56 C1.68 55.67 0.36 55.34 -1 55 C-1 53.68 -1 52.36 -1 51 C-1.886875 50.896875 -2.77375 50.79375 -3.6875 50.6875 C-7.0573702 49.98809298 -9.17271538 48.91257489 -12 47 C-11.67 44.69 -11.34 42.38 -11 40 C-6.82412255 38.60804085 -4.86525224 40.17676781 -1 42 C-0.89472165 37.87440465 -1.00228193 34.01712803 -2 30 C-4.34801846 27.61512923 -7.00192261 26.42077563 -10 25 C-12.85981709 22.49766005 -13.27016802 20.36341921 -13.5625 16.6875 C-13.40318836 12.09780738 -11.8936107 9.56561531 -8.734375 6.30859375 C-6.26176488 4.44299828 -4.05522447 4.07274344 -1 4 C-0.67 2.68 -0.34 1.36 0 0 Z " fill="#F7FCF6" transform="translate(72,33)"/>
<path d="M0 0 C3.17471727 1.29290192 5.88238922 2.66740438 7.95703125 5.43359375 C9.09620343 8.85111028 9.07041606 11.46847312 9.0546875 15.0703125 C9.05146484 16.36904297 9.04824219 17.66777344 9.04492188 19.00585938 C9.03656656 20.37760483 9.02810162 21.74934962 9.01953125 23.12109375 C9.0145146 24.5045557 9.00995198 25.88801938 9.00585938 27.27148438 C8.99405654 30.6588977 8.97759144 34.04622408 8.95703125 37.43359375 C5.72803699 37.52110645 2.49935009 37.57415521 -0.73046875 37.62109375 C-1.64248047 37.64623047 -2.55449219 37.67136719 -3.49414062 37.69726562 C-8.51429396 37.75203093 -11.99554031 37.75356851 -16.04296875 34.43359375 C-16.63078125 33.96566406 -17.21859375 33.49773437 -17.82421875 33.015625 C-19.85872296 30.37468204 -19.57751705 27.93962276 -19.44140625 24.71484375 C-18.78203775 20.93963586 -17.0636071 18.61774764 -14.04296875 16.43359375 C-10.78740107 14.83811707 -7.48375496 13.56938726 -4.04296875 12.43359375 C-4.37296875 11.11359375 -4.70296875 9.79359375 -5.04296875 8.43359375 C-9.52180571 8.88063361 -9.52180571 8.88063361 -13.04296875 11.43359375 C-16.57868304 10.89787946 -16.57868304 10.89787946 -18.04296875 9.43359375 C-18.41796875 7.12109375 -18.41796875 7.12109375 -18.04296875 4.43359375 C-12.62309335 -0.70102505 -7.25693323 -2.01196046 0 0 Z " fill="#FBFDFC" transform="translate(111.04296875,111.56640625)"/>
<path d="M0 0 C3.96 0 7.92 0 12 0 C11.835 1.85625 11.67 3.7125 11.5 5.625 C11.02153154 12.29621736 10.88820579 18.93736626 10.875 25.625 C10.87048828 26.58486816 10.86597656 27.54473633 10.86132812 28.53369141 C10.86422852 29.8976001 10.86422852 29.8976001 10.8671875 31.2890625 C10.86831543 32.10068848 10.86944336 32.91231445 10.87060547 33.74853516 C10.99774092 35.96069206 11.42290618 37.86766807 12 40 C12.12205329 42.67540816 12.04467313 45.31961238 12 48 C7.71 48 3.42 48 -1 48 C-2.54202442 44.91595116 -2.16291818 41.6659066 -2.16796875 38.28125 C-2.17129715 37.50873901 -2.17462555 36.73622803 -2.17805481 35.94030762 C-2.18312506 34.29940384 -2.1854631 32.65848973 -2.18530273 31.01757812 C-2.1874672 28.53758004 -2.20555973 26.05804302 -2.22460938 23.578125 C-2.25261903 15.44978505 -2.03842124 7.92808893 0 0 Z " fill="#F7FDFB" transform="translate(75,101)"/>
<path d="M0 0 C1.65 0.33 3.3 0.66 5 1 C6.7279455 5.50229623 7.29689762 9.30906447 7.3125 14.125 C7.32925781 15.32382812 7.34601563 16.52265625 7.36328125 17.7578125 C6.97965495 21.18157414 6.32756986 22.5311792 4 25 C1.625 24.8125 1.625 24.8125 -1 24 C-3.26059412 19.89544003 -3.29873939 16.05647896 -3.3125 11.4375 C-3.33763672 9.48650391 -3.33763672 9.48650391 -3.36328125 7.49609375 C-2.99091545 3.91257346 -2.45776619 2.54855439 0 0 Z " fill="#69BD4F" transform="translate(108,47)"/>
<path d="M0 0 C2.5 0.25 2.5 0.25 4.5 2.25 C4.40172027 5.88634993 3.52762381 7.21801453 1.125 10 C-1.5 12.25 -1.5 12.25 -4.5 13.25 C-4.55391993 11.45866022 -4.59275571 9.66686101 -4.625 7.875 C-4.64820313 6.87726563 -4.67140625 5.87953125 -4.6953125 4.8515625 C-4.42769442 1.28688961 -3.56659343 0.35665934 0 0 Z " fill="#6BBE53" transform="translate(53.5,109.75)"/>
<path d="M0 0 C2.475 0.495 2.475 0.495 5 1 C5.6875 3.8125 5.6875 3.8125 6 7 C4.5625 8.875 4.5625 8.875 3 10 C2.01 9.67 1.02 9.34 0 9 C0 6.03 0 3.06 0 0 Z " fill="#7AC35B" transform="translate(75,65)"/>
<path d="M0 0 C0.99 0 1.98 0 3 0 C3 3.3 3 6.6 3 10 C1.68 9.67 0.36 9.34 -1 9 C-1.625 5.625 -1.625 5.625 -2 2 C-1.34 1.34 -0.68 0.68 0 0 Z " fill="#74BE58" transform="translate(68,44)"/>
<path d="M0 0 C1.32 0 2.64 0 4 0 C4 2.64 4 5.28 4 8 C2.68 8 1.36 8 0 8 C-1.125 2.25 -1.125 2.25 0 0 Z " fill="#7AC463" transform="translate(105,133)"/>
</svg>
